<ttFont>
          <CharString index="0">
            rmoveto
            -98 -57 56 98 49 callgsubr
            hvcurveto
            return
          </CharString>
          <CharString index="1">
            -105 callgsubr
            -183 84 return
          </CharString>
          <CharString index="2">
            98 callgsubr
            56 73 98 94 52 -53 -93 -97 -72 -53 -106 9 221 callgsubr
            156 -12 106 87 141 vvcurveto
            131 -85 91 -130 -83 -55 -34 -49 -32 vhcurveto
            206 vlineto
            endchar
          </CharString>
          <CharString index="3">
            -102 callgsubr
            107 return
          </CharString>
          <CharString index="4">
            rmoveto
            239 callsubr
            74 44 228 callgsubr
            return
          </CharString>
          <CharString index="5">
            rmoveto
            -53 callsubr
            -27 32 98 callsubr
            32 -27 27 -32 hvcurveto
            return
          </CharString>
          <CharString index="6">
            rmoveto
            110 7 72 64 93 hhcurveto
            96 76 -66 -108 1 hvcurveto
            -22 -152 rmoveto
            -51 -22 -50 -40 -79 hhcurveto
            -96 -72 65 112 -5 hvcurveto
            437 hlineto
            3 19 1 18 17 vvcurveto
            150 -105 111 -156 -163 -110 297 callsubr
            -171 110 -112 156 135 82 77 89 32 vhcurveto
            endchar
          </CharString>
          <CharString index="7">
            78 vlineto
            -126 -9 -61 70 114 vvcurveto
            93 31 69 92 106 27 -93 -115 -5 vhcurveto
            82 hlineto
            -86 callgsubr
            return
          </CharString>
          <CharString index="8">
            137 callsubr
            125 -86 -148 vlineto
            -141 31 -121 169 165 32 116 146 vhcurveto
            74 return
          </CharString>
          <CharString index="9">
            86 -93 callsubr
          </CharString>
          <CharString index="10">
            -77 512 -181 hlineto
            -85 callsubr
            return
          </CharString>
          <CharString index="11">
            87 -3 36 71 94 hhcurveto
            75 46 -46 -79 -130 -101 -15 -121 hvcurveto
            -112 -201 hlineto
            -49 callgsubr
            21 20 -1 19 hhcurveto
            156 -64 callsubr
            return
          </CharString>
          <CharString index="12">
            rmoveto
            -171 114 -112 155 157 128 112 171 173 338 callgsubr
            -155 89 callgsubr
            vhcurveto
            460 hmoveto
            -136 -94 -72 -97 -97 -79 72 136 138 84 71 97 97 89 -71 -138 vhcurveto
            return
          </CharString>
          <CharString index="13">
            hlineto
            -149 -79 -73 -120 -89 callsubr
            hvcurveto
            return
          </CharString>
          <CharString index="14">
            663 -26 callsubr
            endchar
          </CharString>
          <CharString index="15">
            276 -182 hlineto
            -93 -47 -78 -88 -108 -33 65 107 vhcurveto
            return
          </CharString>
          <CharString index="16">
            -134 89 -96 134 81 55 33 48 32 return
          </CharString>
          <CharString index="17">
            rmoveto
            -92 callsubr
            return
          </CharString>
          <CharString index="18">
            -84 callgsubr
            -41 25 return
          </CharString>
          <CharString index="19">
            -131 82 -73 123 147 53 97 127 2 vhcurveto
            -86 hlineto
            -90 -1 -28 -57 -88 hhcurveto
            -73 -44 43 83 hvcurveto
            return
          </CharString>
          <CharString index="20">
            rmoveto
            -27 -33 -43 -14 -51 -54 callsubr
            108 76 -65 -108 -32 -7 -28 -12 -24 hvcurveto
            return
          </CharString>
          <CharString index="21">
            rmoveto
            128 358 128 -358 rlineto
            80 -224 rmoveto
            94 hlineto
            -251 693 rlineto
            -100 hlineto
            -252 -693 rlineto
            93 hlineto
            54 152 rlineto
            308 hlineto
            endchar
          </CharString>
          <CharString index="22">
            -104 callsubr
            47 66 95 return
          </CharString>
          <CharString index="23">
            hhcurveto
            99 70 176 callgsubr
            -216 -98 callsubr
          </CharString>
          <CharString index="24">
            663 rmoveto
            297 -223 hlineto
            -94 -60 -69 -88 -108 -41 69 106 vhcurveto
            return
          </CharString>
          <CharString index="25">
            rmoveto
            -311 vlineto
            -112 -60 -57 -91 -91 -60 57 112 vhcurveto
            311 -90 -326 vlineto
            -155 98 -77 115 76 66 32 65 37 vhcurveto
            -88 91 549 vlineto
            endchar
          </CharString>
          <CharString index="26">
            rmoveto
            -171 119 -79 144 142 121 79 171 vhcurveto
            450 -91 -450 vlineto
            -119 -69 -52 -103 -103 -68 52 119 vhcurveto
            450 -92 vlineto
            return
          </CharString>
          <CharString index="27">
            309 callgsubr
            126 85 47 114 hvcurveto
            return
          </CharString>
          <CharString index="28">
            -87 callgsubr
            -129 return
          </CharString>
          <CharString index="29">
            663 131 return
          </CharString>
          <CharString index="30">
            454 rmoveto
            -183 209 183 hlineto
            -266 235 callgsubr
            return
          </CharString>
          <CharString index="31">
            294 -78 vlineto
            -92 -60 -32 -71 -100 -64 48 103 131 93 31 128 vhcurveto
            return
          </CharString>
          <CharString index="32">
            -53 callgsubr
            -22 49 return
          </CharString>
          <CharString index="33">
            -262 -55 callgsubr
            return
          </CharString>
          <CharString index="34">
            -164 105 -103 168 15 return
          </CharString>
          <CharString index="35">
            13 callsubr
            86 hlineto
            47 12 43 46 85 hhcurveto
            99 46 -65 -98 -98 -46 -64 -99 -85 -43 46 47 -12 hvcurveto
            -86 hlineto
            -85 16 69 -85 141 hhcurveto
            141 74 89 115 12 hvcurveto
            return
          </CharString>
          <CharString index="36">
            63 callgsubr
            91 56 130 1 vhcurveto
            endchar
          </CharString>
          <CharString index="37">
            hhcurveto
            -149 -111 271 callsubr
            111 106 149 92 75 -41 -76 40 hvcurveto
            110 hlineto
            107 callgsubr
            -19 callsubr
            hvcurveto
            return
          </CharString>
          <CharString index="38">
            -64 callgsubr
            -74 vvcurveto
            return
          </CharString>
          <CharString index="39">
            vlineto
            -107 callgsubr
            274 callgsubr
            -98 callsubr
          </CharString>
          <CharString index="40">
            57 callsubr
            -73 -90 -119 -128 -69 84 119 2 vhcurveto
            164 10 22 -8 callsubr
            return
          </CharString>
          <CharString index="41">
            -58 callgsubr
            hlineto
            endchar
          </CharString>
          <CharString index="42">
            -125 vlineto
            -99 callsubr
            return
          </CharString>
          <CharString index="43">
            3 117 47 170 vvcurveto
            116 -82 84 -126 -146 -71 -108 -126 6 vhcurveto
            return
          </CharString>
          <CharString index="44">
            82 hlineto
            105 callgsubr
            1 vhcurveto
            22 callgsubr
            -83 296 callsubr
            -81 -54 -121 73 callgsubr
            142 hvcurveto
            59 return
          </CharString>
          <CharString index="45">
            rmoveto
            278 -219 rlineto
            -49 -8 -43 -40 -75 hhcurveto
            -108 -44 69 107 hvcurveto
            return
          </CharString>
          <CharString index="46">
            -126 -46 callsubr
            return
          </CharString>
          <CharString index="47">
            565 rmoveto
            -105 -13 -53 -79 5 -173 rrcurveto
            77 hlineto
            165 -3 47 30 62 hhcurveto
            60 45 -42 -103 -169 -117 -73 -166 -121 90 callsubr
            92 hvcurveto
            336 callsubr
            -118 -19 49 121 hvcurveto
            43 372 vlineto
            return
          </CharString>
          <CharString index="48">
            vvcurveto
            -150 83 -100 182 vhcurveto
            -62 callgsubr
          </CharString>
          <CharString index="49">
            84 119 1 111 callsubr
            return
          </CharString>
          <CharString index="50">
            -77 397 -47 hlineto
            -212 -25 6 -254 vhcurveto
            -198 vlineto
            -128 68 -86 129 126 69 84 128 vhcurveto
            -86 hlineto
            -79 -31 -56 -78 -80 -30 58 80 vhcurveto
            124 vlineto
            return
          </CharString>
          <CharString index="51">
            -25 -58 -82 -80 -27 56 return
          </CharString>
          <CharString index="52">
            70 67 -7 -80 -69 -52 -30 -76 -104 -48 52 83 -5 return
          </CharString>
          <CharString index="53">
            -63 callgsubr
            41 162 callsubr
            return
          </CharString>
          <CharString index="54">
            -32 -26 -27 -32 -32 26 return
          </CharString>
          <CharString index="55">
            86 -65 callgsubr
          </CharString>
          <CharString index="56">
            -663 86 663 return
          </CharString>
          <CharString index="57">
            rmoveto
            57 hlineto
            28 3 18 14 21 40 19 -45 52 hhcurveto
            53 42 36 69 9 hvcurveto
            -57 hlineto
            -29 -3 -18 -13 -21 -40 -18 44 -52 hhcurveto
            -54 -42 -35 -69 -9 hvcurveto
            endchar
          </CharString>
          <CharString index="58">
            -144 53 -96 149 148 53 96 144 vhcurveto
            255 return
          </CharString>
          <CharString index="59">
            161 callsubr
            -88 -56 58 80 81 56 55 88 83 41 -37 -51 12 hvcurveto
            85 hlineto
            91 -7 -88 73 -126 hhcurveto
            -23 -22 -2 -5 -20 hvcurveto
            -35 13 -28 25 39 121 callsubr
            endchar
          </CharString>
          <CharString index="60">
            145 4 39 52 186 vvcurveto
            80 return
          </CharString>
          <CharString index="61">
            95 callgsubr
            133 return
          </CharString>
          <CharString index="62">
            -68 callgsubr
            -75 32 -62 53 -35 hvcurveto
            -42 -22 -45 -25 -78 196 callsubr
            -204 478 rmoveto
            -77 303 -79 vlineto
            -163 -21 -14 -131 312 callsubr
            7 7 0 1 7 vhcurveto
            -60 -61 -66 -67 -4 -4 rrcurveto
            -4 96 vlineto
            226 248 rlineto
            -4 17 17 -2 18 43 callgsubr
            77 vlineto
            endchar
          </CharString>
          <CharString index="63">
            294 callgsubr
            -146 196 141 121 67 131 55 vhcurveto
            -110 hlineto
            -76 -40 -75 -42 -92 -39 callsubr
          </CharString>
          <CharString index="64">
            -15 callsubr
            -78 34 -62 56 -35 hvcurveto
            -60 -18 -55 -34 -81 hhcurveto
            -108 -51 54 107 hvcurveto
            return
          </CharString>
          <CharString index="65">
            273 callsubr
            33 156 241 callgsubr
            -116 -74 -80 -120 4 vhcurveto
            30 callgsubr
            return
          </CharString>
          <CharString index="66">
            rmoveto
            -80 -53 50 81 289 callgsubr
            -81 -53 -50 -82 hvcurveto
            return
          </CharString>
          <CharString index="67">
            rmoveto
            -100 hlineto
            -169 -185 42 callsubr
            -906 952 rmoveto
            -77 629 -4 callgsubr
            265 77 vlineto
            endchar
          </CharString>
          <CharString index="68">
            -70 callsubr
            endchar
          </CharString>
          <CharString index="69">
            -87 callsubr
            808 493 rmoveto
            -1330 -77 1114 -149 -267 -125 hlineto
            -120 -2 -93 -110 -92 -18 68 89 -2 vhcurveto
            152 -1 -115 92 -149 hhcurveto
            -151 -115 -93 -153 -152 115 -93 150 93 79 35 62 47 hvcurveto
            -50 28 49 -34 85 hhcurveto
            162 32 121 146 hvcurveto
            74 182 -440 85 -75 callgsubr
          </CharString>
          <CharString index="70">
            785 920 -83 callsubr
            -360 211 rmoveto
            274 -143 hlineto
            27 -30 -40 17 -50 hhcurveto
            -74 -50 -32 -47 -30 hvcurveto
            -234 -307 -107 callsubr
            1107 562 rmoveto
            -1469 112 callsubr
            47 66 95 78 41 -35 -62 18 vhcurveto
            -111 18 70 return
          </CharString>
          <CharString index="71">
            rmoveto
            -1555 -77 1338 -149 -266 -112 hlineto
            -121 -1 -102 -104 -78 -29 40 89 -1 vhcurveto
            107 -1 -40 99 -149 hhcurveto
            -87 -64 -43 callgsubr
            113 -5 25 98 106 hhcurveto
            89 24 -52 -90 2 hvcurveto
            -98 1 39 -95 149 hhcurveto
            164 26 129 146 hvcurveto
            63 83 callgsubr
          </CharString>
          <CharString index="72">
            rmoveto
            -245 hlineto
            36 41 14 67 106 vvcurveto
            25 195 vlineto
            return
          </CharString>
          <CharString index="73">
            rmoveto
            9 1 hlineto
            141 12 18 63 158 vvcurveto
            9 201 -252 vlineto
            -138 -68 -82 -124 -147 -53 106 122 5 vhcurveto
            603 321 rmoveto
            -1332 -77 830 -7 hlineto
            -132 -1 -25 -118 -5 vhcurveto
            -295 -85 callgsubr
            138 189 callsubr
            103 68 308 callsubr
            85 -75 callgsubr
          </CharString>
          <CharString index="74">
            rmoveto
            -171 110 -112 156 135 82 74 103 32 vhcurveto
            -98 hlineto
            -66 -22 -51 -36 -78 hhcurveto
            -101 -72 72 136 137 72 72 101 78 52 -39 -63 21 hvcurveto
            98 hlineto
            110 -32 -82 67 -135 hhcurveto
            -156 -110 -112 -172 hvcurveto
            endchar
          </CharString>
          <CharString index="75">
            0 callgsubr
            35 53 35 return
          </CharString>
          <CharString index="76">
            hhcurveto
            93 50 40 44 26 hvcurveto
            -284 -98 callsubr
          </CharString>
          <CharString index="77">
            -56 callgsubr
            55 -22 50 return
          </CharString>
          <CharString index="78">
            -60 -96 -108 -80 -51 -113 11 vhcurveto
            return
          </CharString>
          <CharString index="79">
            203 rmoveto
            -28 -31 -42 -17 -48 -54 callsubr
            102 72 -71 -102 -29 -6 -26 -11 -23 hvcurveto
            return
          </CharString>
          <CharString index="80">
            61 129 callsubr
            return
          </CharString>
          <CharString index="81">
            130 vlineto
            return
          </CharString>
          <CharString index="82">
            60 21 85 vhcurveto
            return
          </CharString>
          <CharString index="83">
            hhcurveto
            -76 -79 -11 callgsubr
            return
          </CharString>
          <CharString index="84">
            -90 callgsubr
            24 97 105 hhcurveto
            return
          </CharString>
          <CharString index="85">
            -107 callsubr
            721 256 callsubr
            -1083 -77 512 -181 vlineto
            49 -32 -55 33 -81 hhcurveto
            -136 -87 -97 -135 -134 89 -96 134 45 callgsubr
          </CharString>
          <CharString index="86">
            663 rmoveto
            201 -263 -55 callgsubr
            -128 -68 78 119 324 callsubr
            86 152 vvcurveto
            -456 -186 rmoveto
            30 41 11 69 1 112 rrcurveto
            329 -33 hlineto
            -134 -2 -55 -189 vhcurveto
            return
          </CharString>
          <CharString index="87">
            hhcurveto
            -90 -15 callgsubr
            return
          </CharString>
          <CharString index="88">
            -196 -157 -145 -208 return
          </CharString>
          <CharString index="89">
            86 663 130 hlineto
            endchar
          </CharString>
          <CharString index="90">
            212 callgsubr
            68 -108 182 hvcurveto
            12 73 hlineto
            -138 250 callsubr
            69 55 115 99 62 -35 -63 1 hvcurveto
            return
          </CharString>
          <CharString index="91">
            -11 callsubr
            769 331 rmoveto
            77 -976 164 callsubr
            -57 -58 -81 -83 0 vvcurveto
            101 hlineto
            192 216 260 callsubr
            vhcurveto
            85 hlineto
            135 -82 98 -137 52 callsubr
            vhcurveto
            179 vlineto
            endchar
          </CharString>
          <CharString index="92">
            213 -68 callgsubr
            return
          </CharString>
          <CharString index="93">
            -182 hlineto
            53 64 callgsubr
            return
          </CharString>
          <CharString index="94">
            46 555 rmoveto
            -91 62 -57 83 84 62 57 91 92 -62 56 -84 -83 -62 -56 -92 vhcurveto
            145 91 rmoveto
            42 27 -26 -65 -64 -27 -27 -42 -42 -27 27 64 65 27 26 42 hvcurveto
            -97 -646 rmoveto
            91 hlineto
            405 693 rlineto
            -91 hlineto
            -151 -555 rmoveto
            -92 62 -56 83 83 63 56 92 91 -63 57 -83 -83 -62 -57 -91 vhcurveto
            145 91 rmoveto
            42 27 -27 -64 -64 -27 -27 -42 -42 -27 27 64 64 27 27 42 hvcurveto
            return
          </CharString>
          <CharString index="95">
            150 callgsubr
            140 callgsubr
            -129 -68 84 119 2 172 callgsubr
            -462 -308 170 callgsubr
            20 85 vhcurveto
            58 hlineto
            return
          </CharString>
          <CharString index="96">
            rmoveto
            49 callgsubr
            -98 -57 56 98 vhcurveto
            return
          </CharString>
          <CharString index="97">
            432 900 11 callsubr
            -724 276 -62 callsubr
            215 vmoveto
            498 -106 hlineto
            -90 -12 -71 -48 -37 -73 -300 235 rcurveline
            903 4 rmoveto
            77 -1115 25 callgsubr
            57 44 17 26 32 vhcurveto
            return
          </CharString>
          <CharString index="98">
            31 -69 -93 -114 -61 -70 -126 200 callgsubr
            vlineto
            endchar
          </CharString>
          <CharString index="99">
            82 152 vvcurveto
            return
          </CharString>
          <CharString index="100">
            rmoveto
            -550 vlineto
            -366 550 rlineto
            -91 -693 91 550 hlineto
            366 -550 rlineto
            91 693 hlineto
            return
          </CharString>
          <CharString index="101">
            297 callgsubr
            -38 -33 -3 -7 -29 hvcurveto
            -254 hlineto
            43 36 21 49 52 vvcurveto
            91 -70 78 -121 -107 -90 -66 -113 -90 55 -64 87 -21 vhcurveto
            -76 -39 -88 -57 -103 vvcurveto
            -98 72 -69 107 69 43 30 27 18 vhcurveto
            -123 84 259 -74 vlineto
            -63 -37 -54 -84 -72 -40 44 58 84 90 40 75 40 vhcurveto
            238 hlineto
            -14 -25 -8 -31 -37 287 callgsubr
            return
          </CharString>
          <CharString index="102">
            rmoveto
            -27 -32 -44 -14 -50 hhcurveto
            -108 -76 65 108 36 8 return
          </CharString>
          <CharString index="103">
            rmoveto
            276 -189 hlineto
            -90 -2 -47 -74 -86 hhcurveto
            -108 -33 65 107 hvcurveto
            243 callgsubr
            -102 140 vhcurveto
            5 5 0 5 hhcurveto
            -203 -244 rlineto
            101 hlineto
            243 316 rlineto
            -310 -8 callgsubr
          </CharString>
          <CharString index="104">
            36 callsubr
            -1062 90 callgsubr
            return
          </CharString>
          <CharString index="105">
            331 rmoveto
            -99 -66 -62 -99 -100 -64 274 callsubr
            62 100 99 66 -62 -99 vhcurveto
            return
          </CharString>
          <CharString index="106">
            -141 -16 -58 -107 -16 vhcurveto
            -18 hlineto
            -1 -2 return
          </CharString>
          <CharString index="107">
            rmoveto
            24 31 41 12 47 hhcurveto
            return
          </CharString>
          <CharString index="108">
            35 callgsubr
            20 19 -1 19 hhcurveto
            157 2 118 47 171 vvcurveto
            116 -82 84 -126 -146 -71 -108 -126 6 vhcurveto
            return
          </CharString>
          <CharString index="109">
            81 -36 -75 40 -84 hhcurveto
            -133 -101 -93 -136 -136 99 -93 135 83 76 40 80 36 hvcurveto
            return
          </CharString>
          <CharString index="110">
            -129 101 -28 118 -55 callsubr
            return
          </CharString>
          <CharString index="111">
            -106 -87 vlineto
            -105 -102 -34 -118 3 callsubr
            hvcurveto
            -85 hlineto
            return
          </CharString>
          <CharString index="112">
            -65 -108 -32 -7 -28 -12 -24 hvcurveto
            return
          </CharString>
          <CharString index="113">
            hhcurveto
            -77 -52 -33 -50 -29 hvcurveto
            -234 -304 -107 callsubr
            return
          </CharString>
          <CharString index="114">
            -79 hlineto
            -162 -21 -14 -129 -1 vhcurveto
            -35 169 callgsubr
            return
          </CharString>
          <CharString index="115">
            -76 callsubr
            114 180 return
          </CharString>
          <CharString index="116">
            61 74 243 -81 callsubr
            return
          </CharString>
          <CharString index="117">
            -147 70 -105 173 142 88 83 141 vhcurveto
            -85 hlineto
            -97 -50 -50 -98 -106 -47 58 109 vhcurveto
            400 296 -121 vlineto
            -113 -28 -20 -96 -3 vhcurveto
            endchar
          </CharString>
          <CharString index="118">
            304 -59 callgsubr
            return
          </CharString>
          <CharString index="119">
            rmoveto
            -65 47 -39 57 58 47 39 65 65 -47 40 -58 -57 -47 -40 -65 vhcurveto
            157 1 rmoveto
            -31 -23 -22 -30 -29 -23 22 31 31 23 21 29 30 23 -21 -31 vhcurveto
            return
          </CharString>
          <CharString index="120">
            112 -15 -73 86 -139 hhcurveto
            -141 -69 -84 -85 -16 hvcurveto
            return
          </CharString>
          <CharString index="121">
            rmoveto
            71 hlineto
            23 8 18 13 33 hhcurveto
            37 23 -20 -31 -31 -26 -17 -36 hvcurveto
            -41 -50 42 hlineto
            37 26 -18 -31 -32 -26 -19 -36 -33 -24 15 33 -6 hvcurveto
            -71 hlineto
            -65 5 48 -39 82 hhcurveto
            83 55 45 53 42 -29 27 -35 11 hvcurveto
            2 vlineto
            35 11 28 27 42 vvcurveto
            58 -63 45 -71 -72 -56 -38 -56 -6 vhcurveto
            endchar
          </CharString>
          <CharString index="122">
            rmoveto
            -77 682 -149 -266 -91 vlineto
            285 callsubr
            91 -86 -114 vlineto
            -141 31 -122 169 164 33 116 147 vhcurveto
            40 181 -102 vlineto
            -79 -90 -247 -278 0 vvcurveto
            104 hlineto
            222 268 rlineto
            -238 -52 callsubr
          </CharString>
          <CharString index="123">
            -54 callgsubr
            92 106 27 -93 -115 -5 vhcurveto
            82 hlineto
            115 -5 return
          </CharString>
          <CharString index="124">
            170 39 347 -98 callgsubr
            return
          </CharString>
          <CharString index="125">
            178 -107 callsubr
            return
          </CharString>
          <CharString index="126">
            67 hlineto
            39 5 34 22 31 59 27 -64 76 hhcurveto
            72 56 43 100 18 hvcurveto
            -68 hlineto
            -40 -5 -33 -21 -32 -58 -28 64 -76 hhcurveto
            -71 -56 -43 -100 -18 hvcurveto
            return
          </CharString>
          <CharString index="127">
            505 rmoveto
            215 callsubr
            -19 -65 rrcurveto
            257 callsubr
            -86 hhcurveto
            return
          </CharString>
          <CharString index="128">
            59 callsubr
            hvcurveto
            return
          </CharString>
          <CharString index="129">
            -110 236 callsubr
            -17 -20 -1 -21 hhcurveto
            -7 hlineto
            53 -41 -76 25 -94 -17 callsubr
            -111 vlineto
            -126 95 callgsubr
            return
          </CharString>
          <CharString index="130">
            rmoveto
            -442 -73 338 hlineto
            -338 -548 rlineto
            -72 442 72 -337 vlineto
            337 548 rlineto
            return
          </CharString>
          <CharString index="131">
            rmoveto
            -80 -154 rlineto
            62 hlineto
            101 154 rlineto
            -246 hmoveto
            -67 -154 rlineto
            62 hlineto
            89 154 rlineto
            return
          </CharString>
          <CharString index="132">
            -77 126 -216 hlineto
            191 callsubr
            return
          </CharString>
          <CharString index="133">
            100 182 70 rmoveto
            232 192 82 -192 232 128 vlineto
            176 93 -104 -169 -169 -93 -104 -176 hvcurveto
            -219 623 rmoveto
            -309 -87 -82 87 -302 219 vlineto
            223 139 126 217 217 -139 133 -223 hvcurveto
            endchar
          </CharString>
          <CharString index="134">
            86 311 callgsubr
            hvcurveto
            128 callsubr
          </CharString>
          <CharString index="135">
            135 -67 88 -116 vhcurveto
            -123 -2 -64 -78 5 -187 rrcurveto
            77 hlineto
            165 -3 48 29 61 hhcurveto
            61 44 -41 -103 -169 -117 -73 -166 -121 90 callsubr
            92 hvcurveto
            336 callsubr
            -118 -19 49 121 hvcurveto
            43 vlineto
            endchar
          </CharString>
          <CharString index="136">
            rmoveto
            -91 -549 91 300 hlineto
            126 56 37 87 vhcurveto
            24 95 hlineto
            -83 -54 -39 -63 -30 hvcurveto
            return
          </CharString>
          <CharString index="137">
            91 310 hlineto
            113 60 56 91 92 59 -56 -113 vhcurveto
            -310 90 return
          </CharString>
          <CharString index="138">
            hhcurveto
            -150 -114 -93 -153 -152 113 -94 151 return
          </CharString>
          <CharString index="139">
            hvcurveto
            -439 128 rmoveto
            -47 callsubr
            return
          </CharString>
          <CharString index="140">
            84 hlineto
            81 16 57 71 72 return
          </CharString>
          <CharString index="141">
            20 39 274 -95 callsubr
            return
          </CharString>
          <CharString index="142">
            -67 39 72 -42 88 hhcurveto
            85 311 callgsubr
            hvcurveto
            -182 85 -18 callgsubr
          </CharString>
          <CharString index="143">
            -90 callsubr
            844 181 rmoveto
            77 return
          </CharString>
          <CharString index="144">
            205 callgsubr
            -121 return
          </CharString>
          <CharString index="145">
            rmoveto
            -77 682 -149 -266 -65 callsubr
            181 -440 -52 callsubr
          </CharString>
          <CharString index="146">
            -91 -62 61 90 91 62 60 91 91 57 -62 -89 -89 -57 -62 -91 hvcurveto
            return
          </CharString>
          <CharString index="147">
            -149 -56 callgsubr
            return
          </CharString>
          <CharString index="148">
            -132 -2 220 callsubr
            return
          </CharString>
          <CharString index="149">
            rlineto
            -42 callgsubr
            return
          </CharString>
          <CharString index="150">
            hlineto
            137 callsubr
            return
          </CharString>
          <CharString index="151">
            -6 vlineto
            -50 -17 -44 -47 -69 vvcurveto
            -115 97 -60 122 121 76 58 93 30 vhcurveto
            -2 14 15 -1 15 hhcurveto
            60 257 callgsubr
            hvcurveto
            -146 86 294 -78 vlineto
            -92 -61 -32 -70 -100 161 callgsubr
          </CharString>
          <CharString index="152">
            -181 vlineto
            -106 callsubr
            return
          </CharString>
          <CharString index="153">
            114 callsubr
            1 vhcurveto
            165 10 22 -8 callsubr
            return
          </CharString>
          <CharString index="154">
            134 61 124 callsubr
            -82 hhcurveto
            -79 -28 56 80 hvcurveto
            return
          </CharString>
          <CharString index="155">
            227 -140 -54 11 -153 hhcurveto
            -31 -74 36 hlineto
            136 15 -13 -151 104 hvcurveto
            return
          </CharString>
          <CharString index="156">
            -137 97 -100 135 return
          </CharString>
          <CharString index="157">
            64 callsubr
            -23 -21 -3 -6 -19 vhcurveto
            return
          </CharString>
          <CharString index="158">
            43 176 580 rmoveto
            281 -224 rlineto
            -51 -24 -47 -33 -60 hhcurveto
            -107 -43 71 105 hvcurveto
            298 215 rmoveto
            -228 vlineto
            -4 0 -5 -1 -4 vhcurveto
            -297 236 rlineto
            5 vlineto
            -212 77 rmoveto
            -77 126 -221 vlineto
            -142 return
          </CharString>
          <CharString index="159">
            -77 -53 -32 -49 -30 return
          </CharString>
          <CharString index="160">
            177 callsubr
            vlineto
            endchar
          </CharString>
          <CharString index="161">
            331 rmoveto
            -99 -67 -62 -99 -100 -64 274 callsubr
            62 100 99 67 -62 -99 vhcurveto
            return
          </CharString>
          <CharString index="162">
            20 callsubr
            -98 -61 -47 -79 -28 hvcurveto
            0 vlineto
            -1 -3 -2 -8 rlineto
            -61 -21 -33 -37 -79 hhcurveto
            -110 -34 74 105 hvcurveto
            207 145 vlineto
            629 hlineto
            350 hmoveto
            77 return
          </CharString>
          <CharString index="163">
            -63 -49 8 67 69 61 2 71 hvcurveto
            162 171 return
          </CharString>
          <CharString index="164">
            rmoveto
            201 -262 hlineto
            -128 return
          </CharString>
          <CharString index="165">
            -5 callsubr
            30 15 26 hvcurveto
            345 -102 rmoveto
            -1 -6 -1 -7 -6 vvcurveto
            -3 -20 -6 -19 -8 -16 -285 221 rcurveline
            225 callsubr
            hvcurveto
            return
          </CharString>
          <CharString index="166">
            -75 callsubr
            -41 25 return
          </CharString>
          <CharString index="167">
            -54 -49 -72 -22 hvcurveto
            257 callsubr
            -86 252 callgsubr
            -94 -147 -73 callsubr
            hvcurveto
            -80 callgsubr
            30 69 92 106 27 -93 -115 -5 vhcurveto
            83 hlineto
            111 -5 return
          </CharString>
          <CharString index="168">
            -107 442 693 -47 callgsubr
            return
          </CharString>
          <CharString index="169">
            hlineto
            75 callgsubr
            return
          </CharString>
          <CharString index="170">
            -169 hlineto
            108 callgsubr
            return
          </CharString>
          <CharString index="171">
            rmoveto
            -77 200 -31 vlineto
            -132 -3 -53 -188 vhcurveto
            -1 -29 0 -27 3 -26 rrcurveto
            -112 -2 -62 -82 -116 hhcurveto
            -135 -57 84 125 8 212 callsubr
            32 157 241 callgsubr
            return
          </CharString>
          <CharString index="172">
            28 -93 -115 -5 vhcurveto
            82 hlineto
            115 -5 27 93 106 hhcurveto
            91 -9 callsubr
          </CharString>
          <CharString index="173">
            -72 -22 hvcurveto
            2 callgsubr
            return
          </CharString>
          <CharString index="174">
            vlineto
            -119 -44 -84 -107 -103 -47 64 93 5 vhcurveto
            61 9 73 24 90 vvcurveto
            113 -112 24 -166 vhcurveto
            return
          </CharString>
          <CharString index="175">
            rmoveto
            71 50 rlineto
            63 47 28 35 50 vvcurveto
            61 -49 54 -78 -78 -42 -43 -56 -3 vhcurveto
            73 hlineto
            24 4 16 17 28 hhcurveto
            29 23 -22 -36 -43 -28 -32 -42 -34 hvcurveto
            -102 -81 rlineto
            -52 252 61 vlineto
            endchar
          </CharString>
          <CharString index="176">
            rmoveto
            -65 -59 37 316 callsubr
            -41 -60 hvcurveto
            return
          </CharString>
          <CharString index="177">
            -125 43 callsubr
            125 return
          </CharString>
          <CharString index="178">
            hlineto
            -18 174 callsubr
            41 callgsubr
            return
          </CharString>
          <CharString index="179">
            214 callgsubr
            122 rrcurveto
            return
          </CharString>
          <CharString index="180">
            315 callgsubr
            230 callgsubr
            158 159 106 195 callgsubr
            -68 -70 -114 -110 301 callsubr
            return
          </CharString>
          <CharString index="181">
            194 callsubr
            -62 -17 -55 -34 -82 hhcurveto
            -108 -51 54 107 hvcurveto
            return
          </CharString>
          <CharString index="182">
            hlineto
            136 callsubr
            return
          </CharString>
          <CharString index="183">
            105 callgsubr
            1 vhcurveto
            22 callgsubr
            -77 296 callsubr
            -81 -54 -121 73 callgsubr
            142 hvcurveto
            59 return
          </CharString>
          <CharString index="184">
            -612 -466 1002 rmoveto
            -69 37 vlineto
            114 46 -19 -109 71 hvcurveto
            73 -76 -51 0 -104 279 callsubr
            252 -131 -52 21 -154 hhcurveto
            return
          </CharString>
          <CharString index="185">
            vvcurveto
            -105 83 -73 105 125 56 79 141 vhcurveto
            59 183 -380 -98 callsubr
          </CharString>
          <CharString index="186">
            0 callsubr
            102 72 -71 -102 156 callgsubr
            return
          </CharString>
          <CharString index="187">
            -35 -21 12 30 30 21 11 35 hvcurveto
            47 return
          </CharString>
          <CharString index="188">
            58 callgsubr
            vhcurveto
            -312 86 return
          </CharString>
          <CharString index="189">
            13 73 hlineto
            -138 -38 275 callgsubr
            69 55 114 88 41 -25 -46 16 hvcurveto
            -150 20 93 -94 157 86 callgsubr
          </CharString>
          <CharString index="190">
            207 -413 -18 callsubr
          </CharString>
          <CharString index="191">
            -80 callgsubr
            30 69 92 106 27 -93 -115 -4 vhcurveto
            82 hlineto
            return
          </CharString>
          <CharString index="192">
            69 26 29 81 vhcurveto
            74 vlineto
            -137 -62 -52 -120 hvcurveto
            -46 -71 -74 71 -475 92 475 return
          </CharString>
          <CharString index="193">
            -24 hlineto
            -1 callsubr
            return
          </CharString>
          <CharString index="194">
            rmoveto
            -216 -385 hlineto
            -109 -91 -67 -107 return
          </CharString>
          <CharString index="195">
            36 44 12 74 1 121 rrcurveto
            return
          </CharString>
          <CharString index="196">
            -2 -88 215 callgsubr
            88 return
          </CharString>
          <CharString index="197">
            92 callgsubr
            41 return
          </CharString>
          <CharString index="198">
            41 59 82 -25 callsubr
            return
          </CharString>
          <CharString index="199">
            -77 198 callsubr
            return
          </CharString>
          <CharString index="200">
            hlineto
            -1 -3 rlineto
            -1 return
          </CharString>
          <CharString index="201">
            149 callsubr
            40 59 83 -25 callsubr
            58 hlineto
            return
          </CharString>
          <CharString index="202">
            115 291 callsubr
            582 -313 vlineto
            -97 -68 -78 -96 189 callgsubr
            72 -364 -72 167 hlineto
            -46 -31 -29 -51 -69 vvcurveto
            -124 return
          </CharString>
          <CharString index="203">
            155 callsubr
            -654 -7 callgsubr
            return
          </CharString>
          <CharString index="204">
            -56 -33 -53 -83 -82 -34 53 56 vhcurveto
            -76 hlineto
            -97 54 -81 138 139 53 81 97 vhcurveto
            return
          </CharString>
          <CharString index="205">
            32 27 27 32 return
          </CharString>
          <CharString index="206">
            620 rmoveto
            -99 callgsubr
            161 hmoveto
            -99 callgsubr
            return
          </CharString>
          <CharString index="207">
            104 -72 63 -103 -113 -53 -76 -100 1 vhcurveto
            79 hlineto
            58 23 46 65 67 23 -45 -51 -70 -48 -47 -94 -125 -91 69 129 145 99 68 146 vhcurveto
            endchar
          </CharString>
          <CharString index="208">
            -57 -10 -37 -36 -53 vvcurveto
            -64 53 -41 74 vhcurveto
            91 63 hlineto
            endchar
          </CharString>
          <CharString index="209">
            115 -5 27 251 callsubr
            31 -69 -93 -114 -62 -70 -125 200 callgsubr
            return
          </CharString>
          <CharString index="210">
            -180 vlineto
            234 callsubr
            return
          </CharString>
          <CharString index="211">
            -53 -37 -31 -59 -74 vvcurveto
            -128 92 -86 138 return
          </CharString>
          <CharString index="212">
            -138 -66 -84 -124 -147 -55 98 123 return
          </CharString>
          <CharString index="213">
            rmoveto
            140 callsubr
            return
          </CharString>
          <CharString index="214">
            rmoveto
            178 249 77 return
          </CharString>
          <CharString index="215">
            -77 284 -243 return
          </CharString>
          <CharString index="216">
            -226 454 361 rmoveto
            -49 -8 -43 -40 -75 hhcurveto
            -108 -44 69 107 hvcurveto
            132 vlineto
            358 83 rmoveto
            77 -570 -77 126 -218 vlineto
            -152 86 return
          </CharString>
          <CharString index="217">
            -44 91 callsubr
            return
          </CharString>
          <CharString index="218">
            vhcurveto
            165 10 return
          </CharString>
          <CharString index="219">
            -77 512 -181 hlineto
            -106 callsubr
            314 vlineto
            107 return
          </CharString>
          <CharString index="220">
            hvcurveto
            -110 23 83 -70 152 hhcurveto
            13 73 hlineto
            309 callgsubr
            126 86 47 114 hvcurveto
            143 19 callgsubr
          </CharString>
          <CharString index="221">
            181 callgsubr
            -128 -69 84 119 return
          </CharString>
          <CharString index="222">
            -266 70 callsubr
            return
          </CharString>
          <CharString index="223">
            332 -11 callsubr
            return
          </CharString>
          <CharString index="224">
            663 130 77 return
          </CharString>
          <CharString index="225">
            -122 115 -57 120 101 71 33 67 38 vhcurveto
            35 callsubr
          </CharString>
          <CharString index="226">
            162 callgsubr
            183 -380 -98 callsubr
          </CharString>
          <CharString index="227">
            32 48 32 hvcurveto
            -182 85 269 callsubr
            return
          </CharString>
          <CharString index="228">
            vvcurveto
            56 51 23 67 vhcurveto
            return
          </CharString>
          <CharString index="229">
            -79 hlineto
            -163 -21 -14 -130 285 callgsubr
            91 50 95 29 vhcurveto
            -3 15 16 -1 16 hhcurveto
            73 57 25 return
          </CharString>
          <CharString index="230">
            -92 -110 vlineto
            67 -34 -71 52 -97 hhcurveto
            -148 -114 -110 -170 hvcurveto
            return
          </CharString>
          <CharString index="231">
            89 139 callsubr
            -58 return
          </CharString>
          <CharString index="232">
            -79 49 -53 59 -23 return
          </CharString>
          <CharString index="233">
            rmoveto
            -7 callgsubr
            return
          </CharString>
          <CharString index="234">
            131 347 rmoveto
            166 112 106 149 148 111 -106 -166 -166 -111 -107 -148 -149 -112 107 166 vhcurveto
            return
          </CharString>
          <CharString index="235">
            -182 163 callgsubr
          </CharString>
          <CharString index="236">
            89 140 -3 return
          </CharString>
          <CharString index="237">
            vhcurveto
            -120 151 callsubr
            return
          </CharString>
          <CharString index="238">
            -185 702 rmoveto
            82 94 hlineto
            99 20 54 81 82 19 -54 -99 vhcurveto
            -56 258 callsubr
            return
          </CharString>
          <CharString index="239">
            rmoveto
            -119 hlineto
            -285 -321 rlineto
            321 -91 -693 91 310 vlineto
            283 -310 rlineto
            121 hlineto
            -324 342 rlineto
            endchar
          </CharString>
          <CharString index="240">
            106 callsubr
            73 45 319 callgsubr
            return
          </CharString>
          <CharString index="241">
            rmoveto
            -80 -53 51 80 289 callgsubr
            -80 -53 -51 -82 hvcurveto
            return
          </CharString>
          <CharString index="242">
            rmoveto
            35 27 27 35 34 -27 28 -35 -34 -27 -28 -34 -35 27 -27 34 hvcurveto
            return
          </CharString>
          <CharString index="243">
            -17 -35 -7 -45 -52 vvcurveto
            33 callsubr
            return
          </CharString>
          <CharString index="244">
            -120 89 callsubr
            120 vhcurveto
            return
          </CharString>
          <CharString index="245">
            hhcurveto
            -136 -87 322 callsubr
            return
          </CharString>
          <CharString index="246">
            172 callsubr
            1 -26 return
          </CharString>
          <CharString index="247">
            -65 -59 37 251 callgsubr
            return
          </CharString>
          <CharString index="248">
            487 rmoveto
            -315 hlineto
            return
          </CharString>
          <CharString index="249">
            hhcurveto
            -37 hlineto
            -149 -79 -73 329 callsubr
            75 78 106 56 -23 49 -41 25 hvcurveto
            103 76 -24 -85 1 hvcurveto
            return
          </CharString>
          <CharString index="250">
            rmoveto
            88 callsubr
            528 -181 hlineto
            55 callgsubr
            -102 -75 -55 -85 -31 hvcurveto
            947 239 rmoveto
            77 return
          </CharString>
          <CharString index="251">
            57 79 141 hvcurveto
            148 callgsubr
          </CharString>
          <CharString index="252">
            -149 -82 -75 21 68 69 73 11 74 vhcurveto
            59 75 -58 hlineto
            -79 -69 15 67 70 65 5 77 1 hvcurveto
            82 147 142 hlineto
            return
          </CharString>
          <CharString index="253">
            rmoveto
            -94 -39 -66 -92 -72 -56 40 79 81 64 44 81 vhcurveto
            2 hlineto
            42 37 5 10 33 hvcurveto
            -6 329 rmoveto
            142 241 77 return
          </CharString>
          <CharString index="254">
            rmoveto
            -693 334 70 -243 623 vlineto
            endchar
          </CharString>
          <CharString index="255">
            74 83 callgsubr
          </CharString>
          <CharString index="256">
            121 callgsubr
            -43 return
          </CharString>
          <CharString index="257">
            rmoveto
            -69 36 vlineto
            211 callsubr
            -54 0 -100 279 callsubr
            return
          </CharString>
          <CharString index="258">
            vlineto
            -126 95 callgsubr
            47 callsubr
            141 return
          </CharString>
          <CharString index="259">
            165 callgsubr
            vlineto
            endchar
          </CharString>
          <CharString index="260">
            -91 -60 -60 -93 -89 -59 62 89 88 59 63 89 return
          </CharString>
          <CharString index="261">
            55 -36 -64 38 -86 hhcurveto
            return
          </CharString>
          <CharString index="262">
            rmoveto
            181 148 77 return
          </CharString>
          <CharString index="263">
            302 callgsubr
            -109 -87 callgsubr
            -148 hlineto
            -7 return
          </CharString>
          <CharString index="264">
            rmoveto
            77 vlineto
            -139 -86 -138 86 rlineto
            -77 vlineto
            138 -83 rlineto
            return
          </CharString>
          <CharString index="265">
            118 -149 rlineto
            return
          </CharString>
          <CharString index="266">
            -612 -97 732 rmoveto
            235 -144 -53 11 -155 hhcurveto
            -31 -74 36 hlineto
            138 14 -13 -159 108 hvcurveto
            return
          </CharString>
          <CharString index="267">
            hhcurveto
            -79 -64 35 83 105 74 24 105 hvcurveto
            endchar
          </CharString>
          <CharString index="268">
            -85 hlineto
            -51 -12 -41 -37 -83 hhcurveto
            return
          </CharString>
          <CharString index="269">
            45 0 callsubr
            return
          </CharString>
          <CharString index="270">
            -89 -20 -54 -80 return
          </CharString>
          <CharString index="271">
            -77 512 -181 vlineto
            277 callsubr
            91 -90 135 hvcurveto
            10 hlineto
            return
          </CharString>
          <CharString index="272">
            hlineto
            -102 -48 -76 -114 -93 -66 48 89 91 64 52 95 vhcurveto
            -420 285 rmoveto
            -77 664 77 vlineto
            endchar
          </CharString>
          <CharString index="273">
            rmoveto
            233 -257 hlineto
            -96 -20 -65 -96 -96 -21 65 96 vhcurveto
            return
          </CharString>
          <CharString index="274">
            154 callgsubr
            -94 151 return
          </CharString>
          <CharString index="275">
            176 rmoveto
            239 callsubr
            return
          </CharString>
          <CharString index="276">
            hlineto
            6 callgsubr
            -120 90 -74 return
          </CharString>
          <CharString index="277">
            -77 336 -106 vlineto
            -132 -17 -93 return
          </CharString>
          <CharString index="278">
            90 callgsubr
            66 return
          </CharString>
          <CharString index="279">
            140 310 callsubr
            -94 return
          </CharString>
          <CharString index="280">
            128 rmoveto
            145 4 return
          </CharString>
          <CharString index="281">
            -31 -9 -39 1 -44 rrcurveto
            return
          </CharString>
          <CharString index="282">
            -371 75 hmoveto
            91 return
          </CharString>
          <CharString index="283">
            hhcurveto
            -51 282 callsubr
            118 74 77 106 56 -22 49 -41 25 hvcurveto
            return
          </CharString>
          <CharString index="284">
            vlineto
            -141 31 -121 169 165 32 116 146 vhcurveto
            74 263 callsubr
            return
          </CharString>
          <CharString index="285">
            hlineto
            -182 7 227 callsubr
            66 43 63 34 hvcurveto
            -220 -98 callsubr
          </CharString>
          <CharString index="286">
            413 455 rmoveto
            72 -364 -72 169 vlineto
            -47 -29 -29 -50 -69 vvcurveto
            -132 111 -76 132 return
          </CharString>
          <CharString index="287">
            hlineto
            -135 -62 -83 -128 -130 -68 284 callgsubr
            endchar
          </CharString>
          <CharString index="288">
            72 callgsubr
            -75 vvcurveto
            return
          </CharString>
          <CharString index="289">
            113 -46 79 -82 24 vhcurveto
            103 vlineto
            endchar
          </CharString>
          <CharString index="290">
            116 118 75 return
          </CharString>
          <CharString index="291">
            -2 484 483 193 callgsubr
            -682 -77 434 287 callsubr
            return
          </CharString>
          <CharString index="292">
            rrcurveto
            0 vlineto
            -3 4 -2 5 rlineto
            -11 21 -8 24 26 vvcurveto
            65 35 37 58 62 30 -38 -60 -3 vhcurveto
            return
          </CharString>
          <CharString index="293">
            202 callsubr
            -135 return
          </CharString>
          <CharString index="294">
            vvcurveto
            -6 callgsubr
            vhcurveto
            13 73 hlineto
            -80 callsubr
            return
          </CharString>
          <CharString index="295">
            -94 callgsubr
            endchar
          </CharString>
          <CharString index="296">
            vlineto
            -181 8 84 -125 181 hhcurveto
            return
          </CharString>
          <CharString index="297">
            84 -65 callgsubr
          </CharString>
          <CharString index="298">
            337 callgsubr
            151 return
          </CharString>
          <CharString index="299">
            -72 214 callsubr
            return
          </CharString>
          <CharString index="300">
            -149 -30 callsubr
            -41 25 hvcurveto
            return
          </CharString>
          <CharString index="301">
            hhcurveto
            -127 -88 264 callgsubr
            return
          </CharString>
          <CharString index="302">
            124 57 325 callgsubr
            return
          </CharString>
          <CharString index="303">
            hhcurveto
            -109 -54 47 110 hvcurveto
            return
          </CharString>
          <CharString index="304">
            hhcurveto
            52 callsubr
            hvcurveto
            return
          </CharString>
          <CharString index="305">
            132 -181 return
          </CharString>
          <CharString index="306">
            -88 129 134 -46 callgsubr
            -85 hlineto
            -94 -26 -58 -81 -80 -27 56 80 vhcurveto
            return
          </CharString>
          <CharString index="307">
            rrcurveto
            47 42 62 64 86 vvcurveto
            107 -78 71 -121 -106 -87 -71 -107 -87 56 -60 99 -58 vhcurveto
            return
          </CharString>
          <CharString index="308">
            vlineto
            -68 -3 -51 -63 -63 -4 51 64 vhcurveto
            -81 hlineto
            -116 -5 47 -74 105 hhcurveto
            113 35 return
          </CharString>
          <CharString index="309">
            107 callsubr
            -732 -77 398 315 callgsubr
            return
          </CharString>
          <CharString index="310">
            hhcurveto
            148 53 96 144 hvcurveto
            281 callgsubr
          </CharString>
          <CharString index="311">
            -25 94 327 rmoveto
            399 78 -399 hlineto
            endchar
          </CharString>
          <CharString index="312">
            -575 rmoveto
            236 -97 vlineto
            -157 -243 rlineto
            -42 181 -69 73 69 48 49 vlineto
            return
          </CharString>
          <CharString index="313">
            -106 84 248 callgsubr
            return
          </CharString>
          <CharString index="314">
            -72 173 hlineto
            -47 -30 -29 -50 -69 vvcurveto
            -131 return
          </CharString>
          <CharString index="315">
            249 callsubr
            141 return
          </CharString>
          <CharString index="316">
            rmoveto
            -115 166 rlineto
            -84 hlineto
            105 -166 rlineto
            return
          </CharString>
          <CharString index="317">
            105 195 callsubr
            return
          </CharString>
          <CharString index="318">
            111 47 -18 -102 67 hvcurveto
            65 -71 return
          </CharString>
          <CharString index="319">
            hvcurveto
            273 callsubr
            return
          </CharString>
          <CharString index="320">
            -166 rlineto
            94 hlineto
            return
          </CharString>
          <CharString index="321">
            105 220 callgsubr
            return
          </CharString>
          <CharString index="322">
            -66 -9 -48 -40 return
          </CharString>
          <CharString index="323">
            131 295 rmoveto
            99 175 rlineto
            -89 hlineto
            -96 -175 96 -175 rlineto
            89 hlineto
            return
          </CharString>
          <CharString index="324">
            -142 66 -107 140 81 callsubr
            292 vlineto
            98 48 return
          </CharString>
          <CharString index="325">
            71 callsubr
            -39 -65 return
          </CharString>
          <CharString index="326">
            -44 callgsubr
            endchar
          </CharString>
          <CharString index="327">
            -53 -189 vhcurveto
            return
          </CharString>
          <CharString index="328">
            97 6 -55 71 -101 hhcurveto
            -97 -49 -64 -70 -5 hvcurveto
            94 -71 -58 10 -108 hhcurveto
            return
          </CharString>
          <CharString index="329">
            120 callgsubr
            -142 161 rlineto
            return
          </CharString>
          <CharString index="330">
            -64 267 callsubr
            -26 32 32 27 26 32 32 -27 27 -32 hvcurveto
            return
          </CharString>
          <CharString index="331">
            -23 callgsubr
            endchar
          </CharString>
          <CharString index="332">
            24 32 41 12 47 hhcurveto
            107 77 -65 -108 return
          </CharString>
          <CharString index="333">
            -111 -73 -55 11 71 68 61 12 70 hvcurveto
            return
          </CharString>
          <CharString index="334">
            89 -116 179 hhcurveto
            101 return
          </CharString>
          <CharString index="335">
            295 callsubr
            hvcurveto
            return
          </CharString>
          <CharString index="336">
            hhcurveto
            -31 -69 36 hlineto
            return
          </CharString>
          <CharString index="337">
            19 vhcurveto
            155 return
          </CharString>
          <CharString index="338">
            rmoveto
            -53 callsubr
            -26 32 33 26 26 32 32 -26 27 -33 hvcurveto
            return
          </CharString>
          <CharString index="339">
            rmoveto
            -30 -25 -25 -31 -30 25 -25 30 30 26 25 30 31 -26 25 -30 hvcurveto
            return
          </CharString>
          <CharString index="340">
            hmoveto
            -1 callgsubr
            return
          </CharString>
          <CharString index="341">
            48 -32 -55 33 -80 138 callgsubr
            return
          </CharString>
          <CharString index="342">
            116 146 hvcurveto
            148 callsubr
          </CharString>
          <CharString index="343">
            -17 vhcurveto
            -25 93 callsubr
            return
          </CharString>
          <CharString index="344">
            -343 121 callgsubr
            return
          </CharString>
          <CharString index="345">
            -100 -65 62 99 145 callgsubr
            return
          </CharString>
          <CharString index="346">
            -65 -59 36 251 callgsubr
            return
          </CharString>
          <CharString index="347">
            vlineto
            183 callgsubr
            return
          </CharString>
          <CharString index="348">
            497 rmoveto
            -144 hlineto
            return
          </CharString>
          <CharString index="349">
            33 175 callgsubr
            -33 -32 -26 -26 -33 228 callsubr
            return
          </CharString>
          <CharString index="350">
            31 41 12 47 hhcurveto
            108 76 5 callsubr
            return
          </CharString>
          <CharString index="351">
            -183 84 269 callsubr
            100 52 -60 -96 vhcurveto
            -1 vlineto
            return
          </CharString>
          <CharString index="352">
            hhcurveto
            100 69 46 63 303 callsubr
          </CharString>
          <CharString index="353">
            -78 hlineto
            -110 -65 -49 -114 -98 -82 return
          </CharString>
          <CharString index="354">
            -79 vvcurveto
            -149 84 -99 181 vhcurveto
            13 return
          </CharString>
          <CharString index="355">
            vlineto
            -114 16 -67 79 -27 vhcurveto
            -6 vlineto
            return
          </CharString>
          <CharString index="356">
            hlineto
            -94 -56 callsubr
            80 vhcurveto
            return
          </CharString>
          <CharString index="357">
            -37 275 callgsubr
            return
          </CharString>
          <CharString index="358">
            93 106 hhcurveto
            92 return
          </CharString>
          <CharString index="359">
            213 rmoveto
            -34 callgsubr
            80 50 -50 -80 -80 return
          </CharString>
          <CharString index="360">
            77 -741 170 callsubr
            -97 -139 vvcurveto
            return
          </CharString>
          <CharString index="361">
            -73 82 -170 rmoveto
            90 hlineto
            273 1112 rlineto
            -90 hlineto
            endchar
          </CharString>
          <CharString index="362">
            vvcurveto
            56 51 23 68 vhcurveto
            endchar
          </CharString>
          <CharString index="363">
            485 rmoveto
            77 return
          </CharString>
          <CharString index="364">
            77 -24 -64 44 return
          </CharString>
          <CharString index="365">
            -138 -77 134 -51 callsubr
            133 77 -133 return
          </CharString>
          <CharString index="366">
            46 30 33 23 vhcurveto
            -130 83 259 -74 vlineto
            -62 -56 -54 return
          </CharString>
          <CharString index="367">
            rlineto
            -183 84 269 callsubr
            100 52 -60 -96 return
          </CharString>
          <CharString index="368">
            -213 hlineto
            -9 0 -8 1 -9 vhcurveto
            return
          </CharString>
          <CharString index="369">
            -16 hlineto
            -153 -1 -8 -189 vhcurveto
            return
          </CharString>
          <CharString index="370">
            181 -440 86 -78 callsubr
            return
          </CharString>
          <CharString index="371">
            -129 vhcurveto
            -35 -169 hlineto
            -151 return
          </CharString>
          <CharString index="372">
            -209 hlineto
            -149 65 -105 159 return
          </CharString>
          <CharString index="373">
            -215 -143 -100 -173 return
          </CharString>
          <CharString index="374">
            rmoveto
            -32 -27 -27 -32 -32 27 return
          </CharString>
          <CharString index="375">
            -46 callsubr
            62 return
          </CharString>
          <CharString index="376">
            315 293 callsubr
            return
          </CharString>
          <CharString index="377">
            126 88 73 91 7 return
          </CharString>
          <CharString index="378">
            107 166 166 return
          </CharString>
          <CharString index="379">
            rmoveto
            -88 -20 -55 -80 return
          </CharString>
          <CharString index="380">
            159 -3 137 return
          </CharString>
          <CharString index="381">
            62 99 100 64 return
          </CharString>
          <CharString index="382">
            -44 -67 -64 -51 -49 -46 -38 vhcurveto
            -78 42 -53 42 66 vvcurveto
            return
          </CharString>
          <CharString index="383">
            hhcurveto
            86 62 36 53 35 hvcurveto
            -183 84 663 130 return
          </CharString>
          <CharString index="384">
            49 -32 -55 33 -81 138 callsubr
            return
          </CharString>
          <CharString index="385">
            vlineto
            283 callsubr
            return
          </CharString>
          <CharString index="386">
            229 callsubr
            118 50 0 -80 74 hvcurveto
            85 hlineto
            return
          </CharString>
          <CharString index="387">
            301 callsubr
            endchar
          </CharString>
          <CharString index="388">
            -120 73 callgsubr
            141 hvcurveto
            return
          </CharString>
          <CharString index="389">
            169 callsubr
            117 return
          </CharString>
          <CharString index="390">
            135 -38 hlineto
            -114 15 -67 80 -27 vhcurveto
            -6 vlineto
            return
          </CharString>
          <CharString index="391">
            -57 -87 330 callgsubr
            20 return
          </CharString>
          <CharString index="392">
            -121 89 callsubr
            121 vhcurveto
            return
          </CharString>
          <CharString index="393">
            -85 208 callsubr
            return
          </CharString>
          <CharString index="394">
            -105 -96 240 callsubr
            return
          </CharString>
          <CharString index="395">
            -77 126 -209 vlineto
            -149 return
          </CharString>
          <CharString index="396">
            140 -94 97 -132 16 vhcurveto
            return
          </CharString>
          <CharString index="397" raw="1">
            fb0bfb15 47dff70b 0b 
          </CharString>
          <CharString index="398">
            -36 740 rmoveto
            -77 return
          </CharString>
          <CharString index="399" raw="1">
            e0f92bf7 160b  
          </CharString>
          <CharString index="400">
            vlineto
            107 47 66 95 return
          </CharString>
          <CharString index="401">
            -91 -147 -146 return
          </CharString>
          <CharString index="402">
            -32 26 -26 32 return
          </CharString>
          <CharString index="403">
            -53 vlineto
            -152 return
          </CharString>
          <CharString index="404">
            -111 -173 return
          </CharString>
          <CharString index="405">
            -100 -45 -62 -103 -109 -40 69 106 vhcurveto
            211 return
          </CharString>
          <CharString index="406">
            -145 108 -95 143 11 10 1 1 10 return
          </CharString>
          <CharString index="407">
            81 callgsubr
            vhcurveto
            59 return
          </CharString>
          <CharString index="408">
            -75 70 110 129 92 56 129 1 vhcurveto
            return
          </CharString>
          <CharString index="409">
            14 -24 24 36 121 callsubr
            endchar
          </CharString>
          <CharString index="410">
            34 hvcurveto
            -215 -98 callsubr
          </CharString>
          <CharString index="411">
            rmoveto
            335 callgsubr
          </CharString>
          <CharString index="412">
            86 -78 callsubr
            hlineto
            endchar
          </CharString>
          <CharString index="413">
            rmoveto
            178 248 77 return
          </CharString>
          <CharString index="414">
            -55 -80 -60 -43 41 59 return
          </CharString>
          <CharString index="415">
            43 63 33 hvcurveto
            -220 return
          </CharString>
          <CharString index="416">
            32 -26 26 -32 return
          </CharString>
          <CharString index="417">
            -3 vhcurveto
            -86 hlineto
            return
          </CharString>
          <CharString index="418">
            -41 -60 -65 -59 37 81 77 55 41 65 hvcurveto
            return
          </CharString>
          <CharString index="419">
            vhcurveto
            -33 -142 hlineto
            -155 95 -78 148 return
          </CharString>
          <CharString index="420">
            136 -100 93 -133 -83 -79 -40 -81 -35 return
          </CharString>
          <CharString index="421">
            -266 -125 hlineto
            -120 -2 -88 -110 return
          </CharString>
          <CharString index="422">
            hhcurveto
            85 52 -54 -77 17 hvcurveto
            -7 -6 -334 return
          </CharString>
          <CharString index="423">
            82 76 55 268 callgsubr
            -53 return
          </CharString>
          <CharString index="424">
            -663 -52 callsubr
          </CharString>
          <CharString index="425">
            rlineto
            96 hlineto
            -142 161 return
          </CharString>
          <CharString index="426">
            -51 callsubr
            130 return
          </CharString>
          <CharString index="427">
            -142 68 -108 182 return
          </CharString>
          <CharString index="428">
            -47 -71 -77 -54 -41 -60 hvcurveto
            return
          </CharString>
          <CharString index="429">
            -97 -135 -134 return
          </CharString>
          <CharString index="430">
            hvcurveto
            -35 85 37 vlineto
            return
          </CharString>
          <CharString index="431">
            111 callsubr
            21 return
          </CharString>
          <CharString index="432">
            434 -102 -40 return
          </CharString>
          <CharString index="433">
            -120 90 -75 return
          </CharString>
          <CharString index="434">
            43 200 rlineto
            -88 hlineto
            -43 -200 rlineto
            return
          </CharString>
          <CharString index="435">
            1 -26 -58 -82 hhcurveto
            -80 -27 56 80 hvcurveto
            return
          </CharString>
          <CharString index="436">
            -120 290 callgsubr
            return
          </CharString>
          <CharString index="437">
            hlineto
            -169 5 99 -116 173 hhcurveto
            return
          </CharString>
          <CharString index="438">
            47 170 vvcurveto
            116 -81 84 -127 return
          </CharString>
          <CharString index="439">
            -77 413 -65 vlineto
            -159 -4 -127 return
          </CharString>
          <CharString index="440">
            hvcurveto
            -5 0 -6 -5 -5 0 -6 -5 vvcurveto
            return
          </CharString>
          <CharString index="441">
            162 181 226 77 hlineto
            endchar
          </CharString>
          <CharString index="442">
            91 740 -91 hlineto
            endchar
          </CharString>
          <CharString index="443">
            14 75 -13 hlineto
            return
          </CharString>
          <CharString index="444">
            -171 -142 return
          </CharString>
          <CharString index="445">
            44 -47 -70 -78 return
          </CharString>
        <CharString name=".notdef">
          139 176 hmoveto
          399 701 -399 hlineto
          59 -55 rmoveto
          281 -591 -281 hlineto
          endchar
        </CharString>
        <CharString name="A">
          79 217 224 -86 callsubr
        </CharString>
        <CharString name="AE">
          284 238 224 rmoveto
          228 403 rlineto
          -403 vlineto
          367 397 rmoveto
          72 -425 vlineto
          -395 -693 rlineto
          99 hlineto
          86 152 rlineto
          268 -152 367 72 -276 242 246 71 -246 236 hlineto
          endchar
        </CharString>
        <CharString name="Aacute">
          79 443 927 33 callgsubr
          -226 -619 -86 callsubr
        </CharString>
        <CharString name="Abreve">
          79 489 902 rmoveto
          -58 hlineto
          13 callgsubr
          -272 -659 -86 callsubr
        </CharString>
        <CharString name="Acircumflex">
          79 485 741 rmoveto
          77 vlineto
          -139 83 -138 -83 rlineto
          -77 vlineto
          138 86 rlineto
          -129 -603 -86 callsubr
        </CharString>
        <CharString name="Adieresis">
          79 426 764 rmoveto
          -99 callgsubr
          -161 hmoveto
          -99 callgsubr
          -48 -540 -86 callsubr
        </CharString>
        <CharString name="Agrave">
          79 443 801 rmoveto
          -213 126 rlineto
          -84 vlineto
          213 -112 rlineto
          -226 -507 -86 callsubr
        </CharString>
        <CharString name="Amacron">
          79 522 854 320 callgsubr
          -305 -557 -86 callsubr
        </CharString>
        <CharString name="Aogonek">
          79 217 224 rmoveto
          128 357 128 -357 rlineto
          127 -363 rmoveto
          80 callsubr
          58 hlineto
          -251 691 rlineto
          -100 hlineto
          -252 -693 rlineto
          93 hlineto
          55 152 rlineto
          307 hlineto
          55 -152 rlineto
          -58 -11 -34 -34 -52 vvcurveto
          -64 53 -41 73 vhcurveto
          91 63 hlineto
          endchar
        </CharString>
        <CharString name="Aring">
          79 346 909 109 callgsubr
          -129 -528 -86 callsubr
        </CharString>
        <CharString name="Atilde">
          79 453 853 rmoveto
          -29 -3 -18 -13 -21 -40 -18 44 -52 hhcurveto
          -54 -42 -35 -69 -9 hvcurveto
          57 hlineto
          28 3 18 14 21 40 19 -45 52 hhcurveto
          53 42 36 69 9 hvcurveto
          -293 -629 -86 callsubr
        </CharString>
        <CharString name="B">
          0 166 72 rmoveto
          247 157 vlineto
          89 59 -47 -76 -77 -52 -47 -89 hvcurveto
          -164 548 rmoveto
          153 hlineto
          84 50 -45 -70 -69 -50 -44 -84 hvcurveto
          -153 hlineto
          -91 301 rmoveto
          -693 260 vlineto
          140 86 81 102 83 -58 75 -91 15 hvcurveto
          82 23 51 50 80 vvcurveto
          103 -75 81 -147 vhcurveto
          endchar
        </CharString>
        <CharString name="C">
          165 39 347 -44 callsubr
        </CharString>
        <CharString name="CR">
          -312 endchar
        </CharString>
        <CharString name="Cacute">
          165 273 801 -44 callgsubr
          -447 -580 -44 callsubr
        </CharString>
        <CharString name="Ccaron">
          165 388 815 -66 callgsubr
          -488 -554 -44 callsubr
        </CharString>
        <CharString name="Ccedilla">
          165 709 502 rmoveto
          107 callgsubr
          -19 callsubr
          -195 140 -141 180 -16 hvcurveto
          -109 55 vlineto
          5 callgsubr
          48 vlineto
          128 9 107 67 51 121 rrcurveto
          -110 hlineto
          -76 -40 -75 -42 -92 hhcurveto
          -149 -111 271 callsubr
          111 106 149 92 75 -41 -76 40 hvcurveto
          endchar
        </CharString>
        <CharString name="D">
          84 294 693 66 callgsubr
        </CharString>
        <CharString name="Dcaron">
          84 348 815 -66 callgsubr
          -193 -208 66 callgsubr
        </CharString>
        <CharString name="Dcroat">
          26 callsubr
        </CharString>
        <CharString name="E">
          61 callsubr
          endchar
        </CharString>
        <CharString name="Eacute">
          -107 137 801 -44 callgsubr
          92 -234 -47 callgsubr
          endchar
        </CharString>
        <CharString name="Ecaron">
          -107 252 815 -66 callgsubr
          51 -208 -47 callgsubr
          endchar
        </CharString>
        <CharString name="Ecircumflex">
          -107 391 818 -23 callgsubr
          51 -48 -47 callgsubr
          endchar
        </CharString>
        <CharString name="Edieresis">
          -107 172 764 rmoveto
          -99 callgsubr
          161 hmoveto
          -99 callgsubr
          109 -71 -47 callgsubr
          endchar
        </CharString>
        <CharString name="Edotaccent">
          61 callsubr
          -189 143 rmoveto
          -99 callgsubr
          endchar
        </CharString>
        <CharString name="Egrave">
          61 callsubr
          -305 222 4 callgsubr
        </CharString>
        <CharString name="Emacron">
          61 callsubr
          -365 160 125 callgsubr
          endchar
        </CharString>
        <CharString name="Eogonek">
          -107 395 -139 rmoveto
          80 callsubr
          128 -276 242 246 71 -246 236 276 72 -367 -693 266 hlineto
          -52 -12 -33 -35 -50 vvcurveto
          -64 53 -41 74 vhcurveto
          91 63 hlineto
          endchar
        </CharString>
        <CharString name="Eth">
          26 callsubr
        </CharString>
        <CharString name="Euro">
          186 458 229 rmoveto
          68 -256 vlineto
          -3 16 -1 17 17 vvcurveto
          18 1 17 3 16 vhcurveto
          256 67 -238 hlineto
          97 39 89 57 110 hhcurveto
          92 75 -41 -76 40 hvcurveto
          110 hlineto
          107 callgsubr
          -156 -132 -92 -143 -47 hvcurveto
          -95 -67 80 hlineto
          -2 -17 -1 -17 -17 vvcurveto
          -17 1 -17 2 -16 vhcurveto
          -80 -68 95 hlineto
          -142 47 132 -93 156 hhcurveto
          141 121 67 131 55 hvcurveto
          -110 hlineto
          -76 -40 -75 -42 -92 hhcurveto
          -110 -89 58 97 -39 hvcurveto
          endchar
        </CharString>
        <CharString name="F">
          -122 75 hmoveto
          91 313 236 72 -236 235 299 73 -390 hlineto
          endchar
        </CharString>
        <CharString name="G">
          9 callgsubr
          endchar
        </CharString>
        <CharString name="Gbreve">
          9 callgsubr
          492 536 rmoveto
          19 -58 vlineto
          13 callgsubr
          endchar
        </CharString>
        <CharString name="H">
          70 515 693 rmoveto
          -308 -349 308 -91 -693 91 313 349 -313 92 693 vlineto
          endchar
        </CharString>
        <CharString name="I">
          139 callgsubr
          endchar
        </CharString>
        <CharString name="Iacute">
          139 callgsubr
          -70 108 219 callsubr
        </CharString>
        <CharString name="Icircumflex">
          139 callgsubr
          184 125 224 callsubr
        </CharString>
        <CharString name="Idieresis">
          139 callgsubr
          -35 71 rmoveto
          -99 callgsubr
          161 hmoveto
          -99 callgsubr
          endchar
        </CharString>
        <CharString name="Idotaccent">
          139 callgsubr
          45 71 rmoveto
          -99 callgsubr
          endchar
        </CharString>
        <CharString name="Igrave">
          139 callgsubr
          -70 150 4 callgsubr
        </CharString>
        <CharString name="Imacron">
          139 callgsubr
          -131 88 125 callgsubr
          endchar
        </CharString>
        <CharString name="Iogonek">
          -371 120 -138 rmoveto
          80 callsubr
          61 -1 687 -91 -690 hlineto
          101 callsubr
        </CharString>
        <CharString name="J">
          -60 346 181 rmoveto
          -58 -29 -50 -73 -72 -28 50 58 -1 vhcurveto
          -93 hlineto
          -115 79 -73 115 115 78 73 115 vhcurveto
          512 -91 vlineto
          endchar
        </CharString>
        <CharString name="K">
          -14 570 693 132 callsubr
        </CharString>
        <CharString name="L">
          -183 75 693 147 callsubr
        </CharString>
        <CharString name="Lacute">
          -183 99 801 -44 callgsubr
          -237 -234 147 callsubr
        </CharString>
        <CharString name="Lcaron">
          -183 214 815 -66 callgsubr
          -278 -208 147 callsubr
        </CharString>
        <CharString name="Lslash">
          -183 182 70 rmoveto
          266 vlineto
          104 38 rlineto
          82 vlineto
          -104 -38 rlineto
          275 -91 -308 vlineto
          -87 -31 rlineto
          -82 vlineto
          87 31 rlineto
          -303 334 70 vlineto
          endchar
        </CharString>
        <CharString name="M">
          245 689 693 rmoveto
          -260 -568 -261 568 rlineto
          -93 -693 91 505 hlineto
          233 -505 rlineto
          59 hlineto
          232 505 rlineto
          -505 92 693 vlineto
          endchar
        </CharString>
        <CharString name="N">
          86 532 693 -7 callsubr
          endchar
        </CharString>
        <CharString name="NULL">
          -612 endchar
        </CharString>
        <CharString name="Nacute">
          86 234 801 -44 callgsubr
          85 -234 -7 callsubr
          endchar
        </CharString>
        <CharString name="Ncaron">
          86 349 815 -66 callgsubr
          44 -208 -7 callsubr
          endchar
        </CharString>
        <CharString name="Ntilde">
          86 532 693 -7 callsubr
          -423 58 -50 callsubr
        </CharString>
        <CharString name="O">
          17 callsubr
          endchar
        </CharString>
        <CharString name="OE">
          469 127 callsubr
          886 273 rmoveto
          73 -366 -131 vlineto
          95 -61 -92 43 -106 hhcurveto
          -194 -159 -143 -210 -207 157 -147 196 106 92 44 93 61 hvcurveto
          -130 366 72 -275 241 245 72 -245 235 vlineto
          endchar
        </CharString>
        <CharString name="Oacute">
          170 276 801 -44 callgsubr
          -450 -580 -98 callgsubr
          endchar
        </CharString>
        <CharString name="Ocircumflex">
          170 530 818 -23 callgsubr
          -491 -394 -98 callgsubr
          endchar
        </CharString>
        <CharString name="Odieresis">
          170 311 764 rmoveto
          -99 callgsubr
          161 hmoveto
          -99 callgsubr
          -433 -417 -98 callgsubr
          endchar
        </CharString>
        <CharString name="Ograve">
          17 callsubr
          -375 496 4 callgsubr
        </CharString>
        <CharString name="Ohungarumlaut">
          170 507 899 24 callsubr
          -389 -552 -98 callgsubr
          endchar
        </CharString>
        <CharString name="Omacron">
          170 215 781 125 callgsubr
          -176 -507 -98 callgsubr
          endchar
        </CharString>
        <CharString name="Oslash">
          170 597 522 rmoveto
          34 -46 20 -59 -70 vvcurveto
          -166 -111 -107 -148 -62 -55 18 34 -44 vhcurveto
          -45 45 rmoveto
          -35 45 -20 60 71 vvcurveto
          166 112 106 149 62 55 -19 -33 44 vhcurveto
          203 126 rmoveto
          -86 hlineto
          -60 -64 rlineto
          45 -60 -75 26 -83 hhcurveto
          -19 callsubr
          -95 33 -83 56 -62 hvcurveto
          -100 -107 rlineto
          86 hlineto
          60 65 rlineto
          -46 60 75 -26 83 hhcurveto
          196 156 147 207 95 -33 83 -54 61 hvcurveto
          endchar
        </CharString>
        <CharString name="Otilde">
          17 callsubr
          -409 404 -50 callsubr
        </CharString>
        <CharString name="P">
          -34 166 358 rmoveto
          262 134 vlineto
          104 44 -51 -80 -79 -44 -52 -104 hvcurveto
          240 131 rmoveto
          114 -78 90 -162 vhcurveto
          -225 -693 91 286 134 hlineto
          171 69 96 107 hvcurveto
          endchar
        </CharString>
        <CharString name="Q">
          173 127 callsubr
          625 -478 rmoveto
          -177 175 rlineto
          100 60 65 109 134 vvcurveto
          208 -156 145 -196 -19 callsubr
          -207 157 -147 196 36 36 5 10 32 vhcurveto
          140 -139 rlineto
          endchar
        </CharString>
        <CharString name="R">
          5 166 620 -24 callgsubr
        </CharString>
        <CharString name="Racute">
          5 406 927 33 callgsubr
          -240 -223 -24 callgsubr
        </CharString>
        <CharString name="Rcaron">
          5 447 824 157 callsubr
          -142 -121 -24 callgsubr
        </CharString>
        <CharString name="S">
          -25 149 508 -72 callgsubr
        </CharString>
        <CharString name="Sacute">
          -25 178 801 -44 callgsubr
          -242 -419 -72 callgsubr
        </CharString>
        <CharString name="Scaron">
          -25 294 815 -66 callgsubr
          -284 -393 -72 callgsubr
        </CharString>
        <CharString name="T">
          -66 44 620 160 callgsubr
        </CharString>
        <CharString name="Tcaron">
          -66 273 815 -66 callgsubr
          -368 -281 160 callgsubr
        </CharString>
        <CharString name="Thorn">
          -34 166 216 rmoveto
          262 134 vlineto
          104 44 -51 -81 -78 -44 -52 -104 hvcurveto
          240 130 rmoveto
          115 -78 89 -162 vhcurveto
          -135 143 -90 -693 91 144 134 hlineto
          171 69 95 107 hvcurveto
          endchar
        </CharString>
        <CharString name="U">
          9 callsubr
          endchar
        </CharString>
        <CharString name="Uacute">
          61 221 801 -44 callgsubr
          -360 -684 -81 callsubr
          endchar
        </CharString>
        <CharString name="Ucircumflex">
          61 475 818 -23 callgsubr
          -401 -498 -81 callsubr
          endchar
        </CharString>
        <CharString name="Udieresis">
          61 256 764 rmoveto
          -99 callgsubr
          161 hmoveto
          -99 callgsubr
          -343 -521 -81 callsubr
          endchar
        </CharString>
        <CharString name="Ugrave">
          9 callsubr
          147 150 4 callgsubr
        </CharString>
        <CharString name="Uhungarumlaut">
          9 callsubr
          378 206 24 callsubr
          endchar
        </CharString>
        <CharString name="Umacron">
          9 callsubr
          86 88 125 callgsubr
          endchar
        </CharString>
        <CharString name="Uogonek">
          61 74 243 rmoveto
          -152 94 -79 122 -16 vhcurveto
          -5 -11 -3 -13 -13 vvcurveto
          -65 54 -40 73 vhcurveto
          91 63 -83 hlineto
          -34 -18 14 27 24 16 10 50 14 hvcurveto
          76 21 93 65 151 vvcurveto
          450 -91 -450 vlineto
          -119 -69 -52 -103 -103 -68 52 119 vhcurveto
          450 -92 vlineto
          endchar
        </CharString>
        <CharString name="Uring">
          61 232 856 12 callsubr
          -315 -614 -81 callsubr
          endchar
        </CharString>
        <CharString name="V">
          68 291 hmoveto
          98 hlineto
          267 693 rlineto
          -97 hlineto
          -220 -596 -218 596 rlineto
          -97 hlineto
          endchar
        </CharString>
        <CharString name="W">
          368 860 693 rmoveto
          -163 -587 -155 587 rlineto
          -100 hlineto
          -168 -589 -154 589 rlineto
          -96 hlineto
          196 -694 101 1 167 560 156 -560 rlineto
          102 hlineto
          210 693 rlineto
          endchar
        </CharString>
        <CharString name="X">
          17 580 693 rmoveto
          -101 hlineto
          -159 -274 -169 274 rlineto
          -101 hlineto
          214 -346 -214 -347 rlineto
          101 hlineto
          159 273 169 -273 rlineto
          100 hlineto
          -213 346 rlineto
          endchar
        </CharString>
        <CharString name="Y">
          -40 456 693 51 callgsubr
        </CharString>
        <CharString name="Yacute">
          -40 384 927 33 callgsubr
          72 -150 51 callgsubr
        </CharString>
        <CharString name="Ydieresis">
          -40 367 764 rmoveto
          -99 callgsubr
          -161 hmoveto
          -99 callgsubr
          250 -71 51 callgsubr
        </CharString>
        <CharString name="Z">
          -70 492 693 23 callsubr
          endchar
        </CharString>
        <CharString name="Zacute">
          -70 156 801 -44 callgsubr
          123 -234 23 callsubr
          endchar
        </CharString>
        <CharString name="Zcaron">
          -70 271 815 -66 callgsubr
          82 -208 23 callsubr
          endchar
        </CharString>
        <CharString name="Zdotaccent">
          -70 492 693 23 callsubr
          -221 144 rmoveto
          -99 callgsubr
          endchar
        </CharString>
        <CharString name="a">
          -101 callgsubr
          endchar
        </CharString>
        <CharString name="aacute">
          -101 callgsubr
          -284 383 219 callsubr
        </CharString>
        <CharString name="abreve">
          -101 callgsubr
          -26 465 rmoveto
          19 -58 vlineto
          13 callgsubr
          endchar
        </CharString>
        <CharString name="acircumflex">
          -101 callgsubr
          -30 400 224 callsubr
        </CharString>
        <CharString name="acute">
          -379 10 657 219 callsubr
        </CharString>
        <CharString name="adieresis">
          -101 callgsubr
          -249 346 rmoveto
          -99 callgsubr
          161 hmoveto
          -99 callgsubr
          endchar
        </CharString>
        <CharString name="ae">
          472 598 309 rmoveto
          107 12 80 67 91 hhcurveto
          98 72 -66 -108 1 hvcurveto
          -635 -240 rmoveto
          -96 -89 80 129 129 89 72 96 98 88 -76 -129 -128 -88 -77 -98 hvcurveto
          275 480 rmoveto
          -91 -89 hlineto
          71 -45 -67 27 -80 hhcurveto
          -156 -114 -110 -170 -170 114 -117 148 88 72 43 60 40 hvcurveto
          -94 91 93 vlineto
          -62 39 72 -40 82 hhcurveto
          131 79 77 89 32 hvcurveto
          -98 hlineto
          -52 -21 -49 -39 -79 hhcurveto
          -88 -83 65 112 -11 hvcurveto
          444 hlineto
          3 19 1 18 17 vvcurveto
          148 -103 113 -154 -82 -63 -24 -74 -52 vhcurveto
          endchar
        </CharString>
        <CharString name="agrave">
          -101 callgsubr
          -284 425 4 callgsubr
        </CharString>
        <CharString name="amacron">
          -101 callgsubr
          -345 363 125 callgsubr
          endchar
        </CharString>
        <CharString name="ampersand">
          56 242 66 rmoveto
          -67 -53 58 73 73 53 57 67 67 55 -57 -73 -73 -55 -58 -67 hvcurveto
          411 -66 rmoveto
          -362 472 rlineto
          -36 48 -10 27 31 vvcurveto
          48 35 39 53 52 35 -38 -49 -12 -2 -17 -4 -12 vhcurveto
          92 hlineto
          4 14 3 18 14 vvcurveto
          80 -65 77 -115 -116 -64 -79 -82 -54 26 -49 43 -56 vhcurveto
          40 -30 rlineto
          6 -10 -5 3 -11 hhcurveto
          -108 -90 -82 -121 -121 91 -83 113 95 77 63 85 23 hvcurveto
          105 -140 rlineto
          endchar
        </CharString>
        <CharString name="aogonek">
          58 317 69 rmoveto
          -96 -89 80 129 129 89 72 96 98 88 -76 -129 -128 -88 -77 -98 hvcurveto
          231 -208 rmoveto
          80 callsubr
          605 -92 -110 hlineto
          67 -34 -71 52 -97 hhcurveto
          -148 -114 -110 -170 -170 114 -117 148 97 71 53 68 34 hvcurveto
          -110 vlineto
          101 callsubr
        </CharString>
        <CharString name="apostrophemod">
          157 callgsubr
        </CharString>
        <CharString name="approxequal">
          -92 38 204 rmoveto
          19 callsubr
          211 vmoveto
          19 callsubr
          endchar
        </CharString>
        <CharString name="aring">
          -101 callgsubr
          -273 438 12 callsubr
          endchar
        </CharString>
        <CharString name="asciicircum">
          20 498 170 rmoveto
          96 hlineto
          -236 523 rlineto
          -84 hlineto
          -236 -523 rlineto
          96 hlineto
          182 409 rlineto
          endchar
        </CharString>
        <CharString name="asciitilde">
          -92 38 251 rmoveto
          19 callsubr
          endchar
        </CharString>
        <CharString name="asterisk">
          -120 286 734 rmoveto
          -82 hlineto
          18 -152 -122 92 -42 -73 142 -54 -142 -54 42 -75 122 93 -18 -151 rlineto
          82 hlineto
          -20 151 120 -91 40 73 -143 54 143 54 -40 72 -120 -91 rlineto
          endchar
        </CharString>
        <CharString name="at">
          545 737 274 rmoveto
          -117 -17 -92 -89 -93 hhcurveto
          -92 -65 88 118 18 hvcurveto
          117 17 92 88 92 hhcurveto
          93 65 -88 -117 -18 hvcurveto
          -177 -450 rmoveto
          -243 7 -168 128 247 vvcurveto
          281 200 222 285 238 136 -141 -208 -175 -93 -117 -71 -29 -15 18 38 5 vhcurveto
          25 161 rlineto
          152 24 -92 120 -151 hhcurveto
          -146 -137 -109 -169 -25 hvcurveto
          -170 -25 102 -118 137 hhcurveto
          97 67 53 69 43 hvcurveto
          -62 -2 30 -60 84 hhcurveto
          130 136 155 214 255 -182 170 -274 -344 -247 -254 -325 -291 208 -160 278 -7 hvcurveto
          endchar
        </CharString>
        <CharString name="atilde">
          -101 callgsubr
          -318 333 -50 callsubr
        </CharString>
        <CharString name="b">
          58 166 439 rmoveto
          301 -91 -740 91 112 -25 callgsubr
        </CharString>
        <CharString name="backslash">
          71 247 942 rmoveto
          -91 hlineto
          313 -1112 rlineto
          90 hlineto
          endchar
        </CharString>
        <CharString name="bar">
          -311 105 795 rmoveto
          -901 91 901 vlineto
          endchar
        </CharString>
        <CharString name="braceleft">
          -62 227 373 rmoveto
          73 15 32 54 66 65 -16 43 84 vvcurveto
          136 50 80 78 29 vhcurveto
          16 -91 vlineto
          -38 -17 -86 -42 -185 -72 17 -54 -69 vvcurveto
          -45 -13 -67 -88 -17 vhcurveto
          -42 vlineto
          88 -18 13 -66 -45 -69 -17 -54 -72 vvcurveto
          -185 86 -42 38 -17 vhcurveto
          91 16 hlineto
          -78 29 -50 80 136 84 16 43 65 vvcurveto
          66 -29 54 -76 15 vhcurveto
          endchar
        </CharString>
        <CharString name="braceright">
          -65 323 371 rmoveto
          -76 -15 -28 -54 -66 -65 16 -43 -84 vvcurveto
          -136 -51 -80 -78 -29 vhcurveto
          -16 92 vlineto
          38 17 86 42 185 72 -17 54 69 vvcurveto
          45 12 66 88 18 vhcurveto
          42 vlineto
          -88 17 -12 67 45 69 17 54 72 vvcurveto
          185 -86 42 -38 17 vhcurveto
          -92 -16 hlineto
          78 -29 51 -80 -136 -84 -16 -43 -65 vvcurveto
          -66 31 -54 73 -15 vhcurveto
          endchar
        </CharString>
        <CharString name="bracketleft">
          -138 160 -171 rmoveto
          170 77 -86 960 86 76 -170 hlineto
          endchar
        </CharString>
        <CharString name="bracketright">
          -138 315 942 rmoveto
          -171 -76 86 -960 -86 -77 171 hlineto
          endchar
        </CharString>
        <CharString name="breve">
          -307 295 739 rmoveto
          19 -58 vlineto
          13 callgsubr
          endchar
        </CharString>
        <CharString name="brokenbar">
          -311 105 272 rmoveto
          -378 91 378 vlineto
          145 vmoveto
          378 -91 -378 vlineto
          endchar
        </CharString>
        <CharString name="bullet">
          -166 222 211 rmoveto
          70 54 54 68 69 -54 54 -70 -68 -54 -54 -69 -68 54 -54 68 hvcurveto
          endchar
        </CharString>
        <CharString name="c">
          -12 39 274 -33 callsubr
        </CharString>
        <CharString name="cacute">
          -12 184 657 -44 callgsubr
          -358 -509 -33 callsubr
        </CharString>
        <CharString name="caron">
          -315 148 671 -66 callgsubr
          endchar
        </CharString>
        <CharString name="ccaron">
          -12 300 671 -66 callgsubr
          -400 -483 -33 callsubr
        </CharString>
        <CharString name="ccedilla">
          -12 554 381 rmoveto
          110 -32 -82 67 -135 hhcurveto
          -156 -110 -112 -172 -158 94 -108 138 -15 hvcurveto
          -107 55 vlineto
          5 callgsubr
          45 vlineto
          117 10 72 71 30 95 rrcurveto
          -98 hlineto
          -66 -22 -51 -36 -78 hhcurveto
          -101 -72 72 136 137 72 72 101 78 52 -39 -63 21 hvcurveto
          endchar
        </CharString>
        <CharString name="cedilla">
          -346 126 7 rmoveto
          -64 -121 55 hlineto
          5 callgsubr
          endchar
        </CharString>
        <CharString name="cent">
          103 561 354 rmoveto
          -13 85 -72 72 -117 11 rrcurveto
          88 -60 -88 vlineto
          -153 -14 -75 -117 -131 vvcurveto
          -130 75 -116 153 -14 vhcurveto
          -89 60 89 vlineto
          117 10 72 72 13 85 rrcurveto
          -85 hlineto
          -53 -17 -42 -39 -87 hhcurveto
          -104 -70 69 117 116 70 69 104 87 42 -39 -53 17 hvcurveto
          endchar
        </CharString>
        <CharString name="circumflex">
          -315 287 674 224 callsubr
        </CharString>
        <CharString name="colon">
          -310 143 hmoveto
          242 callsubr
          427 vmoveto
          33 26 26 32 32 -26 26 -33 -32 -26 -26 -32 228 callsubr
          endchar
        </CharString>
        <CharString name="comma">
          -426 39 54 callgsubr
          endchar
        </CharString>
        <CharString name="commaaccent">
          -488 11 -48 188 callsubr
        </CharString>
        <CharString name="commaaccent.alt">
          -488 11 -48 188 callsubr
        </CharString>
        <CharString name="copyright">
          178 510 260 rmoveto
          -46 -17 -35 -31 -64 hhcurveto
          -75 -57 52 112 112 57 51 75 56 44 -24 -53 16 hvcurveto
          87 hlineto
          90 -27 -74 55 -102 hhcurveto
          -121 -96 -91 -140 -140 96 -92 121 102 74 62 83 27 hvcurveto
          -504 86 rmoveto
          190 116 124 186 185 116 -124 -190 -189 -116 -126 -185 -186 -116 126 189 vhcurveto
          648 hmoveto
          208 -140 146 -206 -206 -141 -146 -208 -208 141 -147 206 206 140 147 208 vhcurveto
          endchar
        </CharString>
        <CharString name="currency">
          -75 265 257 rmoveto
          -55 -46 40 80 79 48 42 55 55 50 -42 -79 -80 -53 -40 -54 hvcurveto
          212 284 rmoveto
          -45 45 -62 -62 rlineto
          19 -28 -35 10 -39 hhcurveto
          -38 -35 -10 -18 -29 hvcurveto
          -61 61 -45 -45 61 -60 rlineto
          -19 -28 -11 -35 -41 vvcurveto
          -40 10 -35 18 -28 vhcurveto
          -59 -59 45 -45 59 59 rlineto
          -18 27 34 -10 39 hhcurveto
          40 37 11 20 29 hvcurveto
          62 -62 45 45 -62 60 rlineto
          19 28 11 34 40 vvcurveto
          40 -11 35 -18 28 vhcurveto
          endchar
        </CharString>
        <CharString name="d">
          58 39 278 rmoveto
          -170 114 -117 148 97 71 53 68 34 vhcurveto
          -112 92 740 -92 -301 vlineto
          67 -34 -71 52 -97 hhcurveto
          -148 -114 -110 -170 hvcurveto
          464 -4 rmoveto
          -128 -88 -77 -98 -96 -89 80 129 129 89 72 96 98 88 -76 -129 vhcurveto
          endchar
        </CharString>
        <CharString name="dagger">
          -57 313 539 rmoveto
          233 callgsubr
          -10 -745 rlineto
          91 hlineto
          -10 745 193 -9 rlineto
          73 vlineto
          endchar
        </CharString>
        <CharString name="daggerdbl">
          -55 507 549 rmoveto
          -193 -10 233 callgsubr
          rlineto
          -449 vlineto
          -193 9 rlineto
          -72 vlineto
          193 9 -10 -242 rlineto
          91 hlineto
          -10 242 193 -9 rlineto
          72 vlineto
          -193 -9 rlineto
          449 vlineto
          193 -9 rlineto
          endchar
        </CharString>
        <CharString name="danda">
          -356 316 callgsubr
          endchar
        </CharString>
        <CharString name="dcaron">
          147 646 740 -94 callgsubr
          -698 -462 rmoveto
          -170 114 -117 148 97 71 53 68 34 vhcurveto
          -112 92 740 -92 -301 vlineto
          67 -34 -71 52 -97 hhcurveto
          -148 -114 -110 -170 hvcurveto
          464 -4 rmoveto
          -128 -88 -77 -98 -96 -89 80 129 129 89 72 96 98 88 -76 -129 vhcurveto
          endchar
        </CharString>
        <CharString name="dcroat">
          58 317 69 rmoveto
          -96 -89 80 129 129 89 72 96 98 88 -76 -129 -128 -88 -77 -98 hvcurveto
          338 580 rmoveto
          -60 91 -92 -91 -84 -59 84 -151 hlineto
          67 -34 -71 52 -97 hhcurveto
          -148 -114 -110 -170 -170 114 -117 148 97 71 53 68 34 hvcurveto
          -112 92 590 60 vlineto
          endchar
        </CharString>
        <CharString name="degree">
          -200 29 523 rmoveto
          -107 71 -69 101 102 80 69 107 108 -76 69 -101 -101 -76 -69 -108 vhcurveto
          280 hmoveto
          -80 -53 -40 -54 -55 -45 40 80 80 47 42 55 55 50 -42 -80 vhcurveto
          endchar
        </CharString>
        <CharString name="dieresis">
          -323 64 99 callsubr
          endchar
        </CharString>
        <CharString name="divide">
          96 365 95 rmoveto
          32 26 26 272 callgsubr
          -33 -26 -26 -32 -32 26 -26 33 hvcurveto
          425 vmoveto
          32 26 26 33 300 callgsubr
          hvcurveto
          -255 -194 rmoveto
          509 80 -509 hlineto
          endchar
        </CharString>
        <CharString name="dollar">
          40 320 301 rmoveto
          66 -17 52 -25 -70 vvcurveto
          -61 -43 -49 -75 -9 vhcurveto
          -56 325 rmoveto
          -64 18 -51 25 70 vvcurveto
          72 49 37 66 6 vhcurveto
          56 -2 rmoveto
          60 -12 33 -42 4 -42 rrcurveto
          100 hlineto
          -12 101 -73 64 -112 9 rrcurveto
          81 -56 -81 vlineto
          -125 -10 -79 -76 -108 vvcurveto
          -139 105 -28 99 -23 vhcurveto
          -245 vlineto
          -71 9 -32 43 -4 51 rrcurveto
          -97 hlineto
          -105 87 -65 117 -9 vhcurveto
          -81 56 81 vlineto
          137 11 70 95 94 vvcurveto
          138 -107 27 -100 22 vhcurveto
          endchar
        </CharString>
        <CharString name="dotaccent">
          -484 64 620 rmoveto
          -99 callgsubr
          endchar
        </CharString>
        <CharString name="dotlessi">
          -371 75 hmoveto
          335 callgsubr
        </CharString>
        <CharString name="dottedcircle">
          48 139 517 rmoveto
          -26 18 -19 26 26 18 19 26 25 -18 19 -26 -26 -18 -19 -25 vhcurveto
          -82 -110 rmoveto
          -25 20 -19 26 24 20 19 25 25 -20 19 -24 -26 -20 -19 -25 vhcurveto
          -13 -126 rmoveto
          -25 19 -18 25 26 18 18 331 callgsubr
          52 -116 rmoveto
          -26 18 -18 26 25 19 18 26 25 -19 19 -25 -26 -18 -19 -25 vhcurveto
          101 -75 rmoveto
          -26 19 -20 26 25 19 20 26 24 -19 20 -25 -26 -19 -20 -24 vhcurveto
          127 -16 rmoveto
          -26 18 -18 26 26 19 18 26 26 -19 18 -26 -26 -18 -18 -26 vhcurveto
          121 53 rmoveto
          -26 19 -18 25 25 20 18 26 25 -20 19 -25 -25 -19 -19 -25 vhcurveto
          73 98 rmoveto
          -25 19 -19 26 24 19 19 25 26 -19 19 -24 -26 -19 -19 -26 vhcurveto
          10 134 rmoveto
          -26 18 -18 26 25 19 18 26 26 -19 18 -25 -26 -18 -18 -26 vhcurveto
          -50 118 rmoveto
          -25 19 -19 25 26 18 19 331 callgsubr
          -95 68 rmoveto
          -24 19 -20 26 25 18 20 24 26 -18 19 -25 -26 -19 -19 -26 vhcurveto
          -126 15 rmoveto
          -26 18 -18 26 26 18 18 26 26 -18 18 -26 -26 -18 -18 -26 vhcurveto
          endchar
        </CharString>
        <CharString name="doubledanda">
          -144 316 callgsubr
          126 hmoveto
          -741 86 741 vlineto
          endchar
        </CharString>
        <CharString name="dvA">
          219 650 740 rmoveto
          -342 -215 vlineto
          -97 callgsubr
          131 77 hlineto
          endchar
        </CharString>
        <CharString name="dvAA">
          494 1142 740 rmoveto
          -492 -342 -215 hlineto
          -97 callgsubr
          190 -663 -18 callsubr
        </CharString>
        <CharString name="dvAI">
          49 369 327 182 callgsubr
          -139 vlineto
          48 callsubr
          -507 -77 146 -392 hlineto
          10 callsubr
        </CharString>
        <CharString name="dvAU">
          547 1064 740 12 callgsubr
          -271 -342 -215 hlineto
          -97 callgsubr
          190 319 callsubr
          77 hlineto
          endchar
        </CharString>
        <CharString name="dvAcandra">
          219 813 981 rmoveto
          97 callsubr
          -239 -583 rmoveto
          -215 hlineto
          -97 callgsubr
          131 77 -217 hlineto
          endchar
        </CharString>
        <CharString name="dvAnusvara">
          -612 -137 840 71 callgsubr
          endchar
        </CharString>
        <CharString name="dvAnusvara.amI">
          194 callgsubr
          endchar
        </CharString>
        <CharString name="dvB">
          -198 586 740 rmoveto
          -622 -77 622 hlineto
          -138 -464 -87 callsubr
          -164 330 rmoveto
          -151 -115 -93 -153 -152 115 -93 150 151 115 93 152 153 -115 93 -150 hvcurveto
          endchar
        </CharString>
        <CharString name="dvBA">
          60 442 -28 callsubr
          -514 487 rmoveto
          -77 529 116 callgsubr
          -100 143 86 64 36 55 36 hvcurveto
          -177 190 callsubr
        </CharString>
        <CharString name="dvBH">
          -78 216 callgsubr
          312 74 rmoveto
          -229 -63 callsubr
          229 vlineto
          endchar
        </CharString>
        <CharString name="dvBHA">
          190 216 callgsubr
          461 362 rmoveto
          -216 -288 -162 -63 callsubr
          162 -378 -98 callsubr
        </CharString>
        <CharString name="dvBH_LA">
          791 216 callgsubr
          1062 285 rmoveto
          77 -884 -77 534 88 callgsubr
          -23 -64 44 -87 hhcurveto
          -66 -50 -21 -39 -33 hvcurveto
          -173 -63 callsubr
          133 vlineto
          -10 -31 -5 -36 -40 vvcurveto
          -73 callsubr
          vhcurveto
          16 callsubr
          27 251 callsubr
          31 -69 -93 -114 -62 -70 -125 9 hvcurveto
          -78 vlineto
          167 -15 106 103 164 vvcurveto
          129 -52 89 -108 230 callsubr
          vlineto
          endchar
        </CharString>
        <CharString name="dvBH_NA">
          686 781 117 callgsubr
          -404 142 -14 callgsubr
          182 362 rmoveto
          -77 559 -176 -316 vlineto
          -61 -49 -12 -23 -37 hvcurveto
          -195 -63 callsubr
          131 vlineto
          -11 -24 -5 -29 -31 vvcurveto
          -84 callgsubr
          -42 25 vhcurveto
          208 -413 85 256 callgsubr
        </CharString>
        <CharString name="dvBH_R">
          -78 457 -25 rmoveto
          220 271 rlineto
          88 vlineto
          -2 -4 -323 -355 0 vvcurveto
          25 349 -14 callgsubr
          83 74 rmoveto
          76 vlineto
          76 callsubr
          217 74 vlineto
          endchar
        </CharString>
        <CharString name="dvBH_RA">
          196 375 324 170 callgsubr
          21 85 vhcurveto
          58 hlineto
          468 355 rmoveto
          -221 -282 -164 76 hlineto
          105 callgsubr
          vhcurveto
          279 callgsubr
          -153 -80 -54 -120 73 callgsubr
          142 hvcurveto
          59 164 -93 vlineto
          -69 -76 -259 -277 0 vvcurveto
          99 hlineto
          229 263 rlineto
          -202 86 663 135 vlineto
          endchar
        </CharString>
        <CharString name="dvBH_R_YA">
          620 851 254 callgsubr
          -68 86 119 2 172 callgsubr
          -474 -305 -14 callgsubr
          191 356 rmoveto
          -77 198 -32 vlineto
          -138 -1 -35 -189 vhcurveto
          -116 76 hlineto
          76 callsubr
          116 vlineto
          3 -49 10 -44 17 -38 rrcurveto
          -89 -98 -165 -180 0 vvcurveto
          105 hlineto
          184 221 rlineto
          -58 46 70 -32 91 hhcurveto
          100 91 callgsubr
          -52 callsubr
        </CharString>
        <CharString name="dvBH_VA">
          571 1004 54 callsubr
          -631 -14 94 callsubr
          166 362 rmoveto
          -77 465 -183 vlineto
          54 64 callgsubr
          -91 -74 -45 -72 -38 hvcurveto
          -162 82 hlineto
          129 -49 83 -123 -124 -47 -84 -131 vhcurveto
          33 callsubr
          17 -58 -76 vhcurveto
          -83 -53 vlineto
          -153 -80 -54 -121 73 callgsubr
          142 hvcurveto
          59 137 261 callgsubr
          36 53 35 vhcurveto
          -183 84 -18 callgsubr
        </CharString>
        <CharString name="dvBH_YA">
          608 839 -12 callsubr
          170 361 rmoveto
          -77 207 -34 237 callgsubr
          -104 81 hlineto
          105 callgsubr
          1 vhcurveto
          22 callgsubr
          -82 296 callsubr
          -81 -54 -120 -106 83 -72 105 23 callgsubr
        </CharString>
        <CharString name="dvB_BA">
          509 891 203 -30 callgsubr
          -408 45 rmoveto
          24 32 41 12 47 hhcurveto
          102 74 -59 -98 7 333 callsubr
          -1 -25 -7 -23 -10 -20 rrcurveto
          -39 -48 -5 callsubr
          30 15 26 hvcurveto
          490 45 37 callgsubr
          -1193 -77 978 -179 hlineto
          154 callsubr
          -93 -78 -42 -70 -44 hvcurveto
          71 -43 -79 41 -98 31 callsubr
          98 80 41 71 43 hvcurveto
          -69 43 78 -42 93 hhcurveto
          86 64 36 55 36 hvcurveto
          129 callgsubr
        </CharString>
        <CharString name="dvB_BHA">
          603 790 320 149 callsubr
          40 60 82 -25 callsubr
          58 hlineto
          -342 -181 -5 callsubr
          30 15 26 hvcurveto
          343 -121 rmoveto
          -3 -20 -6 -19 -8 -16 -285 221 rcurveline
          225 callsubr
          -7 0 -7 -1 -6 hvcurveto
          745 429 rmoveto
          -216 -286 -162 81 hlineto
          128 -49 83 -121 -20 -17 -2 -4 -16 vhcurveto
          -685 -77 591 247 callgsubr
          17 54 70 70 19 -55 -76 vhcurveto
          -84 -53 vlineto
          -74 -57 -13 -26 -39 hvcurveto
          102 -33 -94 60 -119 31 callsubr
          90 76 34 61 45 hvcurveto
          -49 34 58 -30 67 hhcurveto
          239 callgsubr
          162 -380 -98 callsubr
        </CharString>
        <CharString name="dvB_BH_RA">
          605 789 324 rmoveto
          -88 -19 -55 -80 -60 -44 41 59 83 61 21 85 vhcurveto
          57 hlineto
          -341 -187 -87 callsubr
          767 494 rmoveto
          -217 -282 -164 76 hlineto
          129 -48 262 callgsubr
          -684 -77 590 hlineto
          -16 -34 -8 -42 -50 vvcurveto
          84 hlineto
          79 18 53 69 72 16 -58 -76 vhcurveto
          -77 -52 vlineto
          -75 -57 -13 -27 -40 hvcurveto
          100 -34 -93 58 -117 167 callsubr
          92 76 35 63 45 hvcurveto
          -48 34 58 -28 65 hhcurveto
          239 callgsubr
          164 -97 vlineto
          -61 -71 -207 -238 0 vvcurveto
          103 hlineto
          165 213 rlineto
          -192 -50 callgsubr
        </CharString>
        <CharString name="dvB_DA">
          428 448 199 -5 callsubr
          30 15 26 hvcurveto
          41 45 rmoveto
          225 callsubr
          -32 -7 -28 -12 -24 hvcurveto
          441 236 141 callgsubr
          -1112 -77 878 -102 -40 vlineto
          -114 -93 -29 -70 -50 hvcurveto
          73 -43 -82 42 -99 31 callsubr
          96 80 39 69 44 hvcurveto
          -63 41 74 -36 89 hhcurveto
          292 callgsubr
          hvcurveto
          -146 86 -76 callsubr
          endchar
        </CharString>
        <CharString name="dvB_DHA">
          510 448 199 -5 callsubr
          31 15 25 hvcurveto
          997 317 -19 callgsubr
          -643 -77 553 62 callsubr
          -57 -21 -41 -41 -6 -65 -3 -18 -6 -18 -8 -15 100 callgsubr
          78 36 63 45 hvcurveto
          -54 41 76 -27 76 hhcurveto
          93 79 33 59 42 hvcurveto
          -195 -98 callsubr
        </CharString>
        <CharString name="dvB_DH_VA">
          895 1328 -2 callsubr
          -880 -133 -5 callsubr
          31 15 25 hvcurveto
          740 317 -45 callgsubr
          -642 -77 552 62 callsubr
          -60 -22 -42 -44 -3 -69 -3 -16 -5 -14 -7 -13 100 callgsubr
          77 35 63 46 hvcurveto
          -54 42 79 -26 81 hhcurveto
          101 71 33 67 38 hvcurveto
          35 callsubr
        </CharString>
        <CharString name="dvB_JA">
          646 448 199 -38 callsubr
        </CharString>
        <CharString name="dvB_JHA">
          615 1046 320 rmoveto
          -350 hlineto
          -63 -49 21 67 68 61 4 71 hvcurveto
          162 183 168 hlineto
          -606 -425 rmoveto
          -24 -26 -36 -13 -45 hhcurveto
          -99 -67 55 98 35 8 29 15 23 hvcurveto
          1073 299 rmoveto
          -1299 -77 828 -108 -87 hlineto
          -106 -101 -24 -121 -7 0 -7 1 -6 hvcurveto
          -2 -39 -7 -35 -14 -29 -243 198 rcurveline
          20 31 41 10 47 hhcurveto
          27 39 -5 -8 26 hvcurveto
          73 vlineto
          10 -31 -43 4 -32 hhcurveto
          -171 -83 -104 -129 -144 106 -86 142 113 77 63 97 30 hvcurveto
          -28 39 56 -8 61 hhcurveto
          75 55 -14 -80 -58 -28 -43 -77 -73 -49 31 57 -11 hvcurveto
          -86 -227 84 124 hlineto
          -35 30 48 -22 68 hhcurveto
          125 51 76 83 44 -20 44 -31 21 hvcurveto
          177 -251 305 callsubr
        </CharString>
        <CharString name="dvB_J_YA">
          1045 1108 420 rmoveto
          6 0 hlineto
          144 12 18 62 160 vvcurveto
          9 200 -252 vlineto
          -138 -68 -82 -123 -148 -53 106 122 6 vhcurveto
          -645 -226 rmoveto
          -25 -29 -41 -14 -54 hhcurveto
          -107 -76 65 108 35 8 31 14 26 hvcurveto
          296 -77 rmoveto
          1 -29 2 -29 5 -27 -265 208 rcurveline
          25 31 42 13 50 hhcurveto
          61 46 -21 -31 27 hvcurveto
          1236 289 rmoveto
          -1728 -77 1226 -7 hlineto
          -154 -1 -9 -188 vhcurveto
          -241 -108 hlineto
          -121 -1 -92 -111 -92 -18 67 90 -2 vhcurveto
          147 vlineto
          53 -37 -72 45 -106 hhcurveto
          -148 -117 -89 -158 -152 114 -94 150 81 63 25 45 45 hvcurveto
          -34 29 45 -22 68 hhcurveto
          162 33 120 147 hvcurveto
          58 154 189 callsubr
          102 67 42 62 34 hvcurveto
          -218 -98 callsubr
        </CharString>
        <CharString name="dvB_JxA">
          646 715 22 -102 callsubr
          -267 177 -38 callsubr
        </CharString>
        <CharString name="dvB_LA">
          716 448 199 58 callsubr
          858 332 rmoveto
          77 -1400 -77 1050 52 callgsubr
          -70 -51 -24 -42 -34 hvcurveto
          83 -40 -85 48 -106 31 callsubr
          83 70 29 52 46 hvcurveto
          36 -101 91 -57 129 11 rrcurveto
          -100 callsubr
          vlineto
          endchar
        </CharString>
        <CharString name="dvB_L_YA">
          1172 1403 -104 callgsubr
          -955 -431 58 callsubr
          1314 409 rmoveto
          -1856 -77 1354 -31 hlineto
          -116 -2 -55 -129 -12 vhcurveto
          39 -25 -48 26 -65 hhcurveto
          -90 -55 288 callgsubr
          -87 hhcurveto
          -69 -52 -24 -42 -33 hvcurveto
          83 -40 -86 48 -106 31 callsubr
          83 70 29 52 46 hvcurveto
          36 -101 91 -57 129 11 rrcurveto
          78 vlineto
          -125 -9 -62 70 114 vvcurveto
          93 31 69 92 106 27 -93 -115 -5 vhcurveto
          82 hlineto
          111 -4 21 100 106 hhcurveto
          42 31 -16 -27 9 hvcurveto
          -175 8 94 -113 172 -84 callsubr
        </CharString>
        <CharString name="dvB_NA">
          616 711 176 -103 callsubr
          -263 22 -87 callsubr
          778 494 rmoveto
          -1300 -77 1084 -176 -315 hlineto
          -76 -57 -19 -34 -38 hvcurveto
          90 -39 -91 52 -111 167 callsubr
          92 78 36 63 46 hvcurveto
          -53 37 63 -30 74 hhcurveto
          -66 callsubr
        </CharString>
        <CharString name="dvB_R">
          -198 84 callgsubr
          -281 -298 rmoveto
          -4 98 vlineto
          211 220 rlineto
          43 42 25 58 66 vvcurveto
          151 -113 95 -149 -148 -116 -93 -153 -152 115 -89 150 12 11 1 1 11 vhcurveto
          -391 648 rmoveto
          -77 622 77 vlineto
          endchar
        </CharString>
        <CharString name="dvB_RA">
          60 442 203 rmoveto
          -29 -31 -42 -16 -48 -54 callsubr
          99 75 -69 -104 156 callgsubr
          -514 487 rmoveto
          -77 529 116 callgsubr
          -95 143 11 10 1 1 10 hvcurveto
          -137 -143 rlineto
          -5 98 vlineto
          194 226 rlineto
          -171 190 callsubr
        </CharString>
        <CharString name="dvB_SA">
          609 1041 424 -35 callsubr
          -593 -464 -87 callsubr
          771 493 rmoveto
          -1293 -77 796 86 callsubr
          rlineto
          -2 -15 -16 -1 -18 hhcurveto
          100 -34 -94 58 -119 hhcurveto
          -151 -115 -93 -153 -152 115 -93 150 77 66 24 44 47 hvcurveto
          -94 18 63 -62 109 128 callgsubr
        </CharString>
        <CharString name="dvB_SHA">
          586 453 199 rmoveto
          -27 -33 -43 -14 -51 hhcurveto
          -107 -77 65 108 36 8 31 16 25 hvcurveto
          41 217 callgsubr
          -527 493 rmoveto
          -77 683 vlineto
          7 16 20 3 21 hhcurveto
          76 48 -45 -82 -129 -100 -14 -122 hvcurveto
          -27 hlineto
          110 -30 -98 64 -125 154 callgsubr
          -93 151 75 66 23 43 47 hvcurveto
          -99 17 70 -55 106 hhcurveto
          147 45 265 callgsubr
          -20 -57 -87 hhcurveto
          -74 240 callgsubr
          20 4 -1 19 hhcurveto
          156 2 118 45 170 vvcurveto
          117 -82 86 -126 -26 -22 -3 -6 -21 vhcurveto
          380 hmoveto
          -740 -52 callsubr
        </CharString>
        <CharString name="dvB_TA">
          499 84 callgsubr
          660 493 rmoveto
          -1182 -77 966 -166 -144 hlineto
          -93 -78 -22 -51 -52 hvcurveto
          97 -35 -92 56 -115 167 callsubr
          78 67 25 47 46 hvcurveto
          -98 29 82 -61 142 hhcurveto
          -62 callgsubr
        </CharString>
        <CharString name="dvB_VA">
          488 921 -95 callgsubr
          -719 136 rmoveto
          225 callsubr
          -32 -7 -28 -12 -24 hvcurveto
          -39 -48 -5 callsubr
          30 15 26 hvcurveto
          975 317 rmoveto
          -1172 -77 957 -14 callsubr
          -85 -70 -40 -63 -40 hvcurveto
          71 -44 -81 40 -97 31 callsubr
          98 81 40 71 43 hvcurveto
          -63 41 69 -39 85 hhcurveto
          27 callsubr
        </CharString>
        <CharString name="dvB_YA">
          547 777 -104 callgsubr
          -329 -431 -87 callsubr
          708 493 rmoveto
          -1230 -77 728 -31 hlineto
          -118 -2 -55 -136 -10 vhcurveto
          81 -42 -86 47 -105 167 callsubr
          105 86 47 81 42 hvcurveto
          -68 45 75 -39 101 -84 callsubr
        </CharString>
        <CharString name="dvC">
          -155 179 callsubr
          162 80 105 149 vhcurveto
          -81 165 callsubr
        </CharString>
        <CharString name="dvCA">
          95 callsubr
          102 -81 124 95 55 41 48 29 vhcurveto
          -188 -52 callsubr
        </CharString>
        <CharString name="dvCH">
          152 callgsubr
          -156 160 -59 170 196 callgsubr
          28 callsubr
        </CharString>
        <CharString name="dvCHA">
          208 557 -60 callsubr
          299 hmoveto
          77 -892 -77 135 -38 vlineto
          -114 15 -67 80 -27 vhcurveto
          -6 vlineto
          -69 -26 -45 -56 -82 166 callgsubr
        </CharString>
        <CharString name="dvCH_R">
          152 callgsubr
          -145 138 -61 156 -8 vhcurveto
          -136 -149 42 callsubr
          -142 161 rlineto
          153 35 88 109 155 vvcurveto
          28 callsubr
        </CharString>
        <CharString name="dvCH_RA">
          208 557 -60 callsubr
          299 hmoveto
          77 -892 -77 135 -38 vlineto
          32 callgsubr
          -141 131 -62 152 -10 vhcurveto
          -137 -150 rlineto
          96 hlineto
          122 149 rlineto
          0 vlineto
          158 callsubr
          96 hlineto
          -140 159 rlineto
          159 33 92 109 159 vvcurveto
          182 callsubr
        </CharString>
        <CharString name="dvCH_R_YA">
          738 -48 callgsubr
          -142 132 -62 152 -10 vhcurveto
          -138 -151 42 callsubr
          -141 160 110 23 79 60 37 87 rlinecurve
          -67 46 74 -39 101 -84 callsubr
        </CharString>
        <CharString name="dvCH_YA">
          736 -48 callgsubr
          -156 160 -59 170 167 117 67 113 49 vhcurveto
          -67 46 74 -39 101 -84 callsubr
        </CharString>
        <CharString name="dvC_CA">
          491 592 455 rmoveto
          -46 -31 -29 -51 -69 vvcurveto
          -1 vlineto
          -72 -10 -42 -55 -90 hhcurveto
          -92 -57 48 88 91 66 52 95 hvcurveto
          752 285 rmoveto
          -1171 -77 954 -313 hlineto
          -97 -67 -78 -97 189 callgsubr
          72 -744 -72 176 hlineto
          -48 -30 -30 -51 -68 vvcurveto
          -131 100 -76 129 87 58 38 57 32 vhcurveto
          -60 40 73 -35 82 hhcurveto
          94 55 41 48 29 hvcurveto
          -188 -50 callgsubr
        </CharString>
        <CharString name="dvC_CHA">
          650 999 565 rmoveto
          -104 -13 -53 -79 5 -173 rrcurveto
          76 hlineto
          165 -3 47 30 62 hhcurveto
          61 44 -42 -103 -169 -117 -73 -166 -120 90 callsubr
          91 hvcurveto
          336 callsubr
          -117 -20 49 121 hvcurveto
          43 373 vlineto
          298 hmoveto
          77 -1334 -77 577 -38 248 callsubr
          -60 -23 -43 -46 -9 -66 rrcurveto
          -63 -19 -43 -37 -79 hhcurveto
          -92 -62 48 88 91 63 52 96 hvcurveto
          25 72 -364 207 callsubr
          106 -76 128 72 53 23 42 35 vhcurveto
          -94 47 130 -38 135 hhcurveto
          196 callgsubr
          112 -46 79 -81 24 hvcurveto
          104 vlineto
          endchar
        </CharString>
        <CharString name="dvC_CH_VA">
          639 982 580 rmoveto
          -100 -16 -51 -80 5 -168 rrcurveto
          76 hlineto
          165 -3 49 29 60 hhcurveto
          61 44 -41 -103 -169 -117 -73 -166 -120 92 callgsubr
          40 91 hvcurveto
          14 76 -13 hlineto
          -117 -20 48 122 hvcurveto
          27 366 vlineto
          -4 -712 rmoveto
          -97 -1 -47 -73 -94 hhcurveto
          -70 -72 41 92 76 52 48 74 9 hvcurveto
          21 hlineto
          50 46 6 12 41 hvcurveto
          309 598 rmoveto
          77 -1323 -77 566 -22 248 callsubr
          -63 -24 -44 -50 -6 -73 rrcurveto
          -61 -15 -36 -45 -82 hhcurveto
          -94 -55 49 88 91 62 53 96 hvcurveto
          25 72 -364 -72 174 hlineto
          -46 -31 -30 -53 -66 vvcurveto
          -136 98 -72 128 75 52 29 46 34 vhcurveto
          30 -54 60 -35 71 -19 rrcurveto
          -50 -30 -33 -50 -75 vvcurveto
          -129 104 -74 111 72 49 28 42 30 vhcurveto
          -122 82 445 vlineto
          90 53 50 91 117 vvcurveto
          116 -49 81 -87 21 vhcurveto
          85 vlineto
          endchar
        </CharString>
        <CharString name="dvC_MA">
          628 1059 454 11 callgsubr
          482 360 rmoveto
          -1313 -77 831 297 callgsubr
          -146 -80 -49 -110 -7 hvcurveto
          -74 -14 -38 -46 -83 hhcurveto
          -88 -58 46 88 91 64 55 95 hvcurveto
          48 72 -386 -72 175 hlineto
          -48 -31 -31 -53 -68 vvcurveto
          -129 99 -77 124 79 57 32 54 32 vhcurveto
          -51 33 59 -31 69 hhcurveto
          124 144 callsubr
        </CharString>
        <CharString name="dvC_NA">
          638 733 176 -103 callsubr
          553 564 rmoveto
          -1321 -77 1105 -176 -315 hlineto
          -144 -79 -68 -114 -5 hvcurveto
          -76 -11 -41 -53 -95 hhcurveto
          -92 -58 48 88 91 63 52 96 hvcurveto
          33 72 -372 207 callsubr
          101 -76 129 86 59 33 55 35 vhcurveto
          -55 35 65 -32 76 hhcurveto
          -66 callsubr
        </CharString>
        <CharString name="dvC_R">
          -157 179 callsubr
          vhcurveto
          15 hlineto
          -59 -54 -82 -75 -4 -3 rrcurveto
          -6 101 vlineto
          195 197 rlineto
          49 46 25 70 79 vvcurveto
          -79 165 callsubr
        </CharString>
        <CharString name="dvC_RA">
          95 callsubr
          100 -76 126 7 6 0 1 7 vhcurveto
          -142 -150 rlineto
          103 hlineto
          198 235 rlineto
          -190 -52 callsubr
        </CharString>
        <CharString name="dvC_YA">
          590 820 46 callsubr
          416 110 rmoveto
          -1272 -77 771 211 callgsubr
          -2 -36 2 -34 5 -32 rrcurveto
          -101 -2 -41 -68 -108 hhcurveto
          -92 -58 48 88 91 64 52 95 hvcurveto
          33 72 -372 207 callsubr
          101 -76 129 103 65 46 73 31 vhcurveto
          -71 45 76 -41 103 104 callgsubr
          -26 callsubr
          endchar
        </CharString>
        <CharString name="dvCandrabindu">
          -612 53 995 rmoveto
          -75 hlineto
          -56 -34 -54 -83 -82 -35 54 56 vhcurveto
          -75 hlineto
          -97 56 -81 136 137 55 81 97 vhcurveto
          -192 -24 rmoveto
          29 24 23 30 29 -24 23 -29 -29 -24 -23 -29 -30 24 -23 29 hvcurveto
          endchar
        </CharString>
        <CharString name="dvD">
          -16 642 -236 209 callsubr
          -26 236 rmoveto
          -37 callgsubr
          100 -86 139 59 52 20 32 24 hvcurveto
          -146 vlineto
          endchar
        </CharString>
        <CharString name="dvDA">
          -16 522 hmoveto
          -37 callgsubr
          100 -86 139 59 52 20 32 24 hvcurveto
          -146 vlineto
          endchar
        </CharString>
        <CharString name="dvDA_mvR">
          -34 527 210 rmoveto
          -78 hlineto
          -88 -48 -46 -100 -85 -60 26 66 71 71 15 73 vhcurveto
          60 72 -55 hlineto
          -79 -70 17 69 74 73 5 80 hvcurveto
          124 172 181 77 -650 -77 383 -100 -68 hlineto
          -112 -98 -35 -111 -61 41 -48 58 -13 hvcurveto
          -6 vlineto
          -58 -12 -41 -50 -62 vvcurveto
          -106 97 -54 135 127 100 54 151 -1 vhcurveto
          endchar
        </CharString>
        <CharString name="dvDD">
          -30 278 -79 rmoveto
          105 -165 rlineto
          93 hlineto
          -114 165 rlineto
          108 561 rmoveto
          181 148 77 -654 -77 420 -106 -87 vlineto
          -105 -102 -34 -118 -129 101 -28 118 74 callgsubr
        </CharString>
        <CharString name="dvDDA">
          -30 470 482 rmoveto
          181 148 77 -654 -77 420 -106 -87 vlineto
          -105 -102 -34 -118 -129 101 -28 118 74 callgsubr
        </CharString>
        <CharString name="dvDDH">
          23 347 -63 8 callgsubr
          44 558 rmoveto
          168 196 77 -707 -77 425 -93 vlineto
          -175 -2 -142 -88 -197 -77 callgsubr
          68 146 vhcurveto
          endchar
        </CharString>
        <CharString name="dvDDHA">
          23 475 495 rmoveto
          168 196 77 -707 -77 425 -93 vlineto
          -175 -2 -142 -88 -197 -77 callgsubr
          68 146 vhcurveto
          endchar
        </CharString>
        <CharString name="dvDDH_DDHA">
          28 449 516 rmoveto
          147 227 77 -712 -77 399 -76 vlineto
          -179 -7 -115 -77 -165 vvcurveto
          -100 51 -67 77 -36 vhcurveto
          -76 -32 -52 -67 -98 vvcurveto
          -158 127 -86 157 132 94 66 113 95 -71 57 -95 -104 -65 -75 -95 1 vhcurveto
          76 hlineto
          59 2 35 40 56 hhcurveto
          57 28 -33 -47 -69 -61 -38 -84 -117 -87 61 107 113 90 56 110 hvcurveto
          3 hlineto
          132 94 63 114 94 -71 62 -95 -110 -59 -76 -96 3 hvcurveto
          75 hlineto
          58 3 29 43 60 hhcurveto
          57 28 -37 -47 -69 -61 -38 -84 -117 -87 53 107 134 106 47 149 hvcurveto
          endchar
        </CharString>
        <CharString name="dvDDH_R">
          23 348 -141 8 callgsubr
          43 636 -17 callgsubr
        </CharString>
        <CharString name="dvDDH_RA">
          23 475 495 -17 callgsubr
        </CharString>
        <CharString name="dvDDH_YA">
          599 475 571 rmoveto
          92 556 -306 67 callsubr
          -627 169 rmoveto
          -77 425 -93 vlineto
          -165 -1 -152 -83 -203 -77 callgsubr
          65 135 3 vhcurveto
          208 hlineto
          118 68 -7 -62 -54 -51 -11 -84 2 158 callgsubr
          -162 85 -65 callgsubr
        </CharString>
        <CharString name="dvDDHxA">
          23 381 -54 -102 callsubr
          94 549 rmoveto
          168 196 77 -707 -77 425 -93 vlineto
          -175 -2 -142 -88 -197 -77 callgsubr
          68 146 vhcurveto
          endchar
        </CharString>
        <CharString name="dvDD_DDA">
          -36 470 511 rmoveto
          152 142 77 -648 -77 423 -80 -80 vlineto
          -103 -99 -23 -109 -110 93 -27 111 81 50 -9 -60 -58 -51 -21 -69 -91 -47 36 65 -9 hvcurveto
          -81 hlineto
          7 -61 27 -43 43 -29 rrcurveto
          -37 -18 -26 -31 -52 vvcurveto
          -104 92 -28 111 81 50 -9 -60 -58 -50 -22 -70 -93 -45 37 66 -9 vhcurveto
          -81 hlineto
          -116 13 88 -56 130 hhcurveto
          128 72 59 92 115 -98 22 -107 -80 -49 8 56 62 72 -1 62 128 72 59 91 116 -98 22 -107 -80 -49 8 56 62 69 1 59 hvcurveto
          endchar
        </CharString>
        <CharString name="dvDD_DDHA">
          -36 469 511 rmoveto
          152 143 77 -648 -77 421 -80 -80 vlineto
          -102 -99 -23 -109 -110 92 -27 112 81 50 -9 -60 -58 -51 -21 -69 -92 -46 36 65 -9 hvcurveto
          -82 hlineto
          8 -65 31 -45 48 -28 rrcurveto
          -75 -34 -54 -67 -101 vvcurveto
          -159 128 -86 154 132 94 68 112 94 -71 58 -95 -103 -65 -76 -94 1 vhcurveto
          75 hlineto
          58 2 35 41 56 hhcurveto
          57 29 -33 -48 -69 -61 -38 -84 -116 -87 62 107 109 80 53 106 10 hvcurveto
          6 hlineto
          129 71 59 91 116 -98 22 -106 -81 -49 8 56 62 69 1 60 hvcurveto
          endchar
        </CharString>
        <CharString name="dvDD_R">
          -30 292 -156 8 callgsubr
          94 638 -9 callgsubr
        </CharString>
        <CharString name="dvDD_RA">
          -30 470 482 -9 callgsubr
        </CharString>
        <CharString name="dvDD_VA">
          -14 414 17 rmoveto
          -94 -31 -57 -91 -69 -48 42 67 75 62 34 68 5 vhcurveto
          -1 8 8 0 8 hhcurveto
          32 28 3 7 25 hvcurveto
          65 410 rmoveto
          155 155 77 -670 -77 429 -80 -87 vlineto
          -105 -94 -24 -111 -112 89 -27 114 79 57 -5 -65 -62 -50 -18 -70 -95 -43 36 65 -10 hvcurveto
          -84 hlineto
          8 -68 31 -47 52 -27 rrcurveto
          -56 -25 -37 -47 -73 vvcurveto
          -111 89 -71 104 64 40 24 35 25 vhcurveto
          -118 81 409 vlineto
          24 25 13 33 41 vvcurveto
          122 -104 18 -108 -83 -44 9 56 62 64 1 60 vhcurveto
          endchar
        </CharString>
        <CharString name="dvDD_YA">
          533 470 558 rmoveto
          105 495 -319 vlineto
          -119 -44 -83 -107 -103 -47 64 93 5 vhcurveto
          61 8 73 25 90 vvcurveto
          114 -110 22 -168 vhcurveto
          -561 182 rmoveto
          -77 420 -106 -87 vlineto
          -105 -102 -34 -118 -129 101 -28 118 -91 callgsubr
          225 hlineto
          118 67 -7 -61 -54 -47 -9 -71 -1 hvcurveto
          -16 hlineto
          -175 -13 77 -109 154 hhcurveto
          79 54 32 51 30 hvcurveto
          -149 85 -65 callgsubr
        </CharString>
        <CharString name="dvDDxA">
          -30 325 -66 -102 callsubr
          145 548 rmoveto
          181 148 77 -654 -77 420 -106 -87 vlineto
          -105 -102 -34 -118 -129 101 -28 118 74 callgsubr
        </CharString>
        <CharString name="dvDH">
          -192 349 566 rmoveto
          127 callgsubr
          148 121 71 180 -1 vhcurveto
          -81 hlineto
          131 callgsubr
          endchar
        </CharString>
        <CharString name="dvDHA">
          107 755 740 -3 callgsubr
          -101 -69 -68 -96 125 callsubr
          hvcurveto
          327 callgsubr
          -43 -46 -74 vvcurveto
          -118 111 -61 114 93 79 33 59 42 vhcurveto
          -195 -98 callsubr
        </CharString>
        <CharString name="dvDH_MA">
          583 1014 454 rmoveto
          -182 209 182 hlineto
          -265 237 callsubr
          -42 41 59 82 59 21 85 vhcurveto
          58 hlineto
          482 360 rmoveto
          -740 -77 258 297 callgsubr
          -152 -79 -53 -119 -1 hvcurveto
          -64 -14 -52 -39 -81 hhcurveto
          -76 -63 30 77 78 74 25 80 hvcurveto
          46 74 -50 hlineto
          -89 -69 callsubr
          -122 104 -57 115 81 64 27 53 35 vhcurveto
          -51 33 58 -31 68 hhcurveto
          125 144 callsubr
        </CharString>
        <CharString name="dvDH_NA">
          576 671 117 callgsubr
          -191 564 rmoveto
          -77 528 -176 -316 vlineto
          -148 142 callgsubr
          hvcurveto
          -7 vlineto
          -67 -12 -53 -41 -83 hhcurveto
          -76 -63 30 77 78 74 25 80 hvcurveto
          46 74 -50 hlineto
          -89 -69 callsubr
          -122 104 -57 115 83 66 29 55 34 vhcurveto
          -55 36 65 -32 76 180 callgsubr
        </CharString>
        <CharString name="dvDH_N_YA">
          985 1066 412 rmoveto
          2 vlineto
          132 14 18 62 155 vvcurveto
          18 201 -250 vlineto
          105 callsubr
          5 vhcurveto
          -359 -238 69 callsubr
          962 566 rmoveto
          -1141 -77 639 262 callsubr
          -249 hlineto
          -148 -80 -73 -120 hvcurveto
          -10 vlineto
          -65 -14 -52 -39 -81 hhcurveto
          -76 -63 30 77 78 74 25 80 hvcurveto
          46 74 -50 hlineto
          -89 -69 callsubr
          -122 104 -57 115 83 65 28 55 35 vhcurveto
          -56 35 65 -32 77 hhcurveto
          308 callgsubr
          -23 49 -41 25 hvcurveto
          140 hlineto
          -182 8 227 callsubr
          67 308 callsubr
          85 -75 callgsubr
        </CharString>
        <CharString name="dvDH_R">
          -192 523 355 rmoveto
          -126 -77 -50 -109 -79 -80 30 77 78 74 25 80 vhcurveto
          46 74 -50 hlineto
          -89 -64 callgsubr
          -73 vvcurveto
          -125 121 -54 123 16 16 1 2 16 vhcurveto
          -58 -54 -79 -74 -4 -3 rrcurveto
          -7 101 vlineto
          200 212 rlineto
          -1 hlineto
          37 40 22 57 77 vvcurveto
          endchar
        </CharString>
        <CharString name="dvDH_RA">
          107 755 740 -3 callgsubr
          -101 -69 -68 -96 125 callsubr
          hvcurveto
          327 callgsubr
          -43 -46 -74 vvcurveto
          -118 110 -55 117 16 15 1 2 14 vhcurveto
          -159 -165 rlineto
          100 hlineto
          226 251 rlineto
          -198 -98 callsubr
        </CharString>
        <CharString name="dvDH_VA">
          485 918 -2 callsubr
          -427 408 -40 callgsubr
          -101 -69 -68 -96 125 callsubr
          hvcurveto
          327 callgsubr
          -43 -46 -74 vvcurveto
          118 callsubr
        </CharString>
        <CharString name="dvDH_YA">
          548 778 -10 callgsubr
          -101 -69 -68 -96 125 callsubr
          hvcurveto
          79 callgsubr
        </CharString>
        <CharString name="dvD_BA">
          38 callgsubr
          168 77 -663 188 callgsubr
          -113 91 -72 102 65 42 25 37 26 vhcurveto
          -100 82 541 -77 vlineto
          -4 -1 -27 -2 -3 vhcurveto
          -71 -3 -63 -19 -58 160 callsubr
        </CharString>
        <CharString name="dvD_BHA">
          730 522 hmoveto
          -37 callgsubr
          100 -86 139 59 52 20 32 24 hvcurveto
          -146 vlineto
          7 -70 8 callgsubr
          389 388 -14 callgsubr
          461 362 rmoveto
          -216 -288 -162 -63 callsubr
          162 -378 -98 callsubr
        </CharString>
        <CharString name="dvD_B_RA">
          38 callgsubr
          169 77 -664 188 callgsubr
          -112 90 -70 101 -1 vhcurveto
          -103 -106 rlineto
          94 hlineto
          130 152 3 4 3 3 3 3 rlinecurve
          5 6 rlineto
          -102 82 541 -77 vlineto
          -3 -1 -27 -1 -2 vhcurveto
          -72 -2 -64 -20 -59 160 callsubr
        </CharString>
        <CharString name="dvD_DA">
          -55 414 70 rmoveto
          -127 84 275 -80 vlineto
          -93 -47 -43 -93 -81 -52 27 65 70 71 19 73 vhcurveto
          60 72 -56 hlineto
          -78 -70 18 69 74 67 9 77 hvcurveto
          141 158 164 77 -630 -77 380 -86 -68 hlineto
          -118 -100 -32 -115 -61 43 -51 56 -14 hvcurveto
          -6 vlineto
          -61 -17 -38 -49 -62 vvcurveto
          -102 86 -58 125 58 64 22 38 23 vhcurveto
          endchar
        </CharString>
        <CharString name="dvD_DHA">
          229 738 483 rmoveto
          180 139 77 -913 -77 688 -102 -40 vlineto
          -172 -124 -67 -171 -99 48 -71 75 -35 hvcurveto
          259 callgsubr
          6 78 -6 hlineto
          -67 -46 31 65 76 58 27 71 hvcurveto
          76 vlineto
          -130 2 -86 -67 -108 vvcurveto
          -71 40 -49 53 -18 vhcurveto
          44 callsubr
        </CharString>
        <CharString name="dvD_GA">
          147 callgsubr
          -86 201 callsubr
          69 126 hvcurveto
          70 10 vlineto
          57 58 17 26 21 hvcurveto
          -349 82 492 -78 vlineto
          -4 -1 -15 -2 -3 vhcurveto
          -70 -3 -63 -19 -59 303 callgsubr
        </CharString>
        <CharString name="dvD_GHA">
          238 271 218 rmoveto
          78 -6 vlineto
          -67 -46 31 65 76 59 27 71 35 28 -6 -12 23 hvcurveto
          -33 -37 -19 -51 -66 vvcurveto
          -99 48 -71 75 -35 vhcurveto
          259 callgsubr
          473 265 141 callgsubr
          -922 -77 688 -102 -40 vlineto
          -72 -63 -12 -26 -50 hvcurveto
          30 -36 -50 18 -67 hhcurveto
          -123 -86 -66 -107 -71 40 -49 53 -18 hvcurveto
          44 callsubr
        </CharString>
        <CharString name="dvD_G_RA">
          147 callgsubr
          -74 201 callsubr
          68 126 hvcurveto
          59 10 vlineto
          57 58 17 26 21 hvcurveto
          -145 vlineto
          -56 -63 -162 -182 0 vvcurveto
          100 hlineto
          118 147 rlineto
          -114 82 500 -78 vlineto
          -3 -1 -13 -1 -3 vhcurveto
          -72 -2 -63 -20 -61 303 callgsubr
        </CharString>
        <CharString name="dvD_MA">
          208 635 166 rmoveto
          -158 149 -175 hlineto
          -78 -62 15 83 96 77 9 98 hvcurveto
          112 145 186 hlineto
          -240 -615 rmoveto
          -68 -9 -58 -71 -48 -41 27 56 66 41 21 70 vhcurveto
          58 hlineto
          462 648 rmoveto
          -893 -77 399 -68 -30 hlineto
          -158 -99 -43 -138 -123 93 -51 120 hvcurveto
          102 -74 -45 hlineto
          -146 -54 -64 -95 -101 74 -59 95 116 46 75 127 hvcurveto
          43 158 -308 86 879 136 vlineto
          endchar
        </CharString>
        <CharString name="dvD_NA">
          712 443 -70 8 callgsubr
          280 246 -103 callsubr
          553 564 rmoveto
          -1396 -77 325 callsubr
          hlineto
          -172 -124 -67 -171 314 callgsubr
          hvcurveto
          -146 86 8 callsubr
          660 -176 -315 -94 callsubr
          207 -413 86 663 130 hlineto
          endchar
        </CharString>
        <CharString name="dvD_R">
          -16 522 hmoveto
          -37 callgsubr
          97 -82 142 hvcurveto
          80 callgsubr
          vlineto
          91 -64 rmoveto
          -84 hlineto
          105 213 callsubr
          endchar
        </CharString>
        <CharString name="dvD_RA">
          -16 484 483 141 callgsubr
          -668 -77 325 callsubr
          vlineto
          106 callgsubr
          97 -82 142 hvcurveto
          80 callgsubr
          86 -76 callsubr
          endchar
        </CharString>
        <CharString name="dvD_VA">
          -3 435 159 callgsubr
          24 279 rmoveto
          145 185 77 -680 -77 410 -68 -31 vlineto
          -165 -96 -60 -144 -82 43 -57 61 -30 hvcurveto
          78 callgsubr
        </CharString>
        <CharString name="dvD_YA">
          76 507 328 rmoveto
          -134 -60 -80 145 callsubr
          217 77 rmoveto
          -762 -77 317 -86 hlineto
          -2 -36 0 -1 -3 hvcurveto
          -101 -2 223 callgsubr
          107 -54 124 106 73 33 66 42 vhcurveto
          -140 -50 callgsubr
        </CharString>
        <CharString name="dvD_Y_RA">
          76 507 328 rmoveto
          -131 -60 -83 145 callsubr
          201 77 rmoveto
          -744 -77 315 -86 -40 hlineto
          -102 -3 223 callgsubr
          106 -49 124 19 19 1 2 17 vhcurveto
          -119 -120 rlineto
          98 hlineto
          156 178 10 9 8 9 8 11 rlinecurve
          6 7 rlineto
          -143 86 663 115 vlineto
          endchar
        </CharString>
        <CharString name="dvE">
          49 369 327 182 callgsubr
          -733 -77 146 -392 vlineto
          10 callsubr
        </CharString>
        <CharString name="dvEcandra">
          17 373 1005 rmoveto
          -79 -13 -63 -48 -44 -17 63 79 vhcurveto
          -76 hlineto
          -89 40 -71 97 97 40 71 89 vhcurveto
          -109 -678 182 callgsubr
          -733 -77 146 -392 vlineto
          10 callsubr
        </CharString>
        <CharString name="dvEyelash">
          -563 297 453 rmoveto
          -3 -19 -23 -3 -27 hhcurveto
          -79 -86 29 100 -4 hvcurveto
          -72 hlineto
          -147 1 122 -51 116 hhcurveto
          35 32 5 9 25 hvcurveto
          271 vmoveto
          77 -354 -77 vlineto
          endchar
        </CharString>
        <CharString name="dvEyelash_HA">
          95 581 483 193 callgsubr
          -779 -77 531 287 callsubr
          -18 3 -16 6 -16 hvcurveto
          -73 5 -73 30 -4 93 rrcurveto
          -72 hlineto
          -147 1 122 -50 116 hhcurveto
          15 14 1 1 14 hvcurveto
          0 vlineto
          104 callsubr
          168 callgsubr
          -42 -37 -82 hhcurveto
          -89 -56 58 80 81 57 55 88 82 42 -37 -51 12 hvcurveto
          85 hlineto
          91 -7 -88 73 -126 hhcurveto
          -23 -22 -2 -5 -20 hvcurveto
          -36 13 -28 25 39 vvcurveto
          56 52 23 67 vhcurveto
          endchar
        </CharString>
        <CharString name="dvEyelash_YA">
          250 298 386 rmoveto
          161 11 22 82 151 vvcurveto
          33 201 -262 vlineto
          -128 -73 -90 -119 -128 -69 84 118 2 vhcurveto
          -331 355 rmoveto
          -77 432 -31 vlineto
          -129 -2 -53 -174 -3 vhcurveto
          -77 2 -80 31 -4 96 rrcurveto
          -72 hlineto
          1 -138 108 -53 110 -5 rrcurveto
          -167 12 94 -107 167 hhcurveto
          100 91 callgsubr
          -13 callgsubr
        </CharString>
        <CharString name="dvG">
          -173 487 740 rmoveto
          -523 108 callsubr
          hlineto
          -106 callgsubr
          156 vlineto
          endchar
        </CharString>
        <CharString name="dvGA">
          102 -36 740 rmoveto
          108 callsubr
          vlineto
          -106 callgsubr
          202 317 callsubr
        </CharString>
        <CharString name="dvGH">
          -209 126 callgsubr
          148 116 74 175 vhcurveto
          -78 hlineto
          -114 -71 -59 -115 -84 -84 25 84 39 callgsubr
          vlineto
          endchar
        </CharString>
        <CharString name="dvGHA">
          83 514 356 rmoveto
          -108 -90 -65 -108 -79 -76 28 81 39 callgsubr
          335 vlineto
          217 77 rmoveto
          -767 -77 128 -29 hlineto
          181 callsubr
          338 callgsubr
          -60 115 94 77 33 62 42 vhcurveto
          -202 -50 callgsubr
        </CharString>
        <CharString name="dvGH_MA">
          561 993 454 rmoveto
          -183 209 183 hlineto
          -266 -343 20 callgsubr
          -361 23 rmoveto
          75 -53 vlineto
          -108 -22 45 111 hvcurveto
          29 544 -209 296 callsubr
          -80 -53 -119 -1 hvcurveto
          -62 -10 -46 -37 -77 hhcurveto
          -80 -62 29 80 77 64 34 83 hvcurveto
          896 337 rmoveto
          -1245 -77 132 -29 hlineto
          -98 15 -59 70 -32 vhcurveto
          -6 vlineto
          -57 -24 -44 -50 -75 vvcurveto
          -123 93 -60 131 70 60 25 50 35 vhcurveto
          -50 33 59 -31 68 hhcurveto
          155 callgsubr
          hvcurveto
          59 183 -380 85 -75 callgsubr
        </CharString>
        <CharString name="dvGH_NA">
          552 984 141 callsubr
          6 callgsubr
          hvcurveto
          -7 vlineto
          -64 -10 -48 -40 -78 hhcurveto
          -81 -63 28 81 77 65 34 83 hvcurveto
          52 75 -52 hlineto
          -108 -22 45 111 hvcurveto
          29 805 85 callgsubr
          553 564 rmoveto
          -1236 -77 128 -29 hlineto
          72 callgsubr
          -74 vvcurveto
          -124 98 -59 130 72 62 25 52 36 vhcurveto
          -54 36 64 -30 74 hhcurveto
          -66 callsubr
        </CharString>
        <CharString name="dvGH_R">
          -211 126 callgsubr
          12 12 1 1 12 vhcurveto
          -46 -43 -106 -96 -5 -4 rrcurveto
          -4 101 vlineto
          210 208 rlineto
          0 vlineto
          45 41 27 61 84 vvcurveto
          -76 hlineto
          -114 -71 -59 -115 -84 -84 25 84 39 callgsubr
          vlineto
          endchar
        </CharString>
        <CharString name="dvGH_RA">
          83 514 356 rmoveto
          -107 -89 -66 -108 -80 -76 28 81 39 callgsubr
          335 vlineto
          217 77 rmoveto
          -767 -77 128 -29 hlineto
          181 callsubr
          -122 109 -53 117 16 16 1 2 15 vhcurveto
          -145 -151 rlineto
          103 hlineto
          208 237 rlineto
          -203 -50 callgsubr
        </CharString>
        <CharString name="dvGH_YA">
          519 749 663 57 callsubr
          -73 -90 -118 -129 -69 284 callgsubr
          -388 -227 rmoveto
          75 -52 vlineto
          -108 -22 45 111 hvcurveto
          29 485 -31 vlineto
          41 callsubr
          -1 -25 0 -23 2 -23 rrcurveto
          -131 -2 -46 -62 -117 hhcurveto
          -75 -73 29 81 81 65 29 83 hvcurveto
          857 337 rmoveto
          -1202 -77 128 -29 hlineto
          -98 14 -59 71 -32 vhcurveto
          -6 vlineto
          -55 -21 -47 -50 -77 vvcurveto
          -124 107 -60 125 89 84 27 92 37 vhcurveto
          -76 45 77 -44 108 -84 callsubr
        </CharString>
        <CharString name="dvG_BA">
          469 851 -28 callsubr
          230 487 rmoveto
          -1153 108 callsubr
          hlineto
          -106 callgsubr
          571 116 callgsubr
          -100 143 86 64 36 55 36 hvcurveto
          129 callgsubr
        </CharString>
        <CharString name="dvG_BHA">
          557 744 136 callgsubr
          461 362 rmoveto
          -216 -288 -162 82 137 callgsubr
          -639 108 callsubr
          hlineto
          -106 callgsubr
          178 vlineto
          136 callsubr
          16 -58 -76 vhcurveto
          -83 296 callsubr
          -81 -54 -121 73 callgsubr
          142 hvcurveto
          59 162 -378 -98 callsubr
        </CharString>
        <CharString name="dvG_BH_YA">
          967 1198 -12 callsubr
          170 361 rmoveto
          -77 207 -34 237 callgsubr
          -104 81 137 callgsubr
          -631 108 callsubr
          hlineto
          -106 callgsubr
          170 vlineto
          136 callsubr
          16 -58 -76 vhcurveto
          -82 296 callsubr
          -81 -54 -120 -106 83 -72 105 23 callgsubr
        </CharString>
        <CharString name="dvG_DA">
          396 888 483 141 callgsubr
          -1072 108 callsubr
          vlineto
          -106 callgsubr
          471 -102 -40 vlineto
          -172 -124 -67 -171 314 callgsubr
          hvcurveto
          -146 86 -76 callsubr
          endchar
        </CharString>
        <CharString name="dvG_DHA">
          505 1152 740 -19 callgsubr
          -637 108 callsubr
          hlineto
          -106 callgsubr
          180 vlineto
          75 callgsubr
          -62 -23 -43 -46 -74 vvcurveto
          -118 111 -61 114 93 79 33 59 42 vhcurveto
          -195 -98 callsubr
        </CharString>
        <CharString name="dvG_DH_VA">
          872 1305 -2 callsubr
          -427 408 -45 callgsubr
          -619 108 callsubr
          hlineto
          -106 callgsubr
          162 vlineto
          75 callgsubr
          -62 -23 -43 -46 -74 vvcurveto
          118 callsubr
        </CharString>
        <CharString name="dvG_DH_YA">
          928 1159 -10 callgsubr
          -23 -21 -3 -7 -19 hvcurveto
          -613 108 callsubr
          hlineto
          -106 callgsubr
          156 vlineto
          -11 -23 -6 -26 -28 vvcurveto
          -79 49 -53 59 -23 vhcurveto
          79 callgsubr
        </CharString>
        <CharString name="dvG_GA">
          490 1138 740 rmoveto
          -1174 108 callsubr
          hlineto
          -106 callgsubr
          305 -243 vlineto
          -106 callgsubr
          202 -663 -50 callgsubr
        </CharString>
        <CharString name="dvG_GHA">
          498 929 356 rmoveto
          -108 -90 -65 -108 -79 -76 28 81 39 callgsubr
          335 vlineto
          217 77 rmoveto
          -1182 108 callsubr
          hlineto
          -106 callgsubr
          176 -29 vlineto
          181 callsubr
          338 callgsubr
          -60 115 94 77 33 62 42 vhcurveto
          -202 -50 callgsubr
        </CharString>
        <CharString name="dvG_JA">
          650 1298 740 rmoveto
          -1334 108 callsubr
          hlineto
          -106 callgsubr
          750 -149 -266 -65 callsubr
          181 -440 86 663 131 vlineto
          endchar
        </CharString>
        <CharString name="dvG_LA">
          696 1336 663 rmoveto
          77 -1372 108 callsubr
          vlineto
          -106 callgsubr
          655 -4 callgsubr
          vlineto
          endchar
        </CharString>
        <CharString name="dvG_MA">
          540 972 -77 callsubr
          482 360 rmoveto
          -1224 108 callsubr
          hlineto
          -106 callgsubr
          375 -209 -52 vlineto
          -153 -81 -54 -121 -105 83 -73 105 119 callsubr
        </CharString>
        <CharString name="dvG_NA">
          526 621 176 rmoveto
          -65 -59 36 316 callsubr
          -40 -60 hvcurveto
          553 564 rmoveto
          -1210 108 callsubr
          hlineto
          -106 callgsubr
          626 -176 -315 vlineto
          -148 -80 218 callgsubr
          207 -413 305 callsubr
        </CharString>
        <CharString name="dvG_NNA">
          668 837 406 -22 callgsubr
          479 77 rmoveto
          -1352 108 callsubr
          hlineto
          -106 callgsubr
          188 152 callsubr
        </CharString>
        <CharString name="dvG_N_YA">
          999 1230 663 rmoveto
          201 -250 hlineto
          105 callsubr
          6 vhcurveto
          164 317 callgsubr
          -64 -60 37 82 76 56 41 65 73 44 319 callgsubr
          1005 566 rmoveto
          -1683 108 callsubr
          hlineto
          -106 callgsubr
          814 -16 vlineto
          -153 -1 -8 -188 vhcurveto
          -292 hlineto
          -149 -79 -73 329 callsubr
          74 78 106 56 -22 49 -41 25 hvcurveto
          183 178 callsubr
        </CharString>
        <CharString name="dvG_R">
          -173 291 -1 rmoveto
          264 300 rlineto
          94 vlineto
          -2 -3 -365 -391 0 vvcurveto
          -224 741 rmoveto
          108 callsubr
          vlineto
          -106 callgsubr
          224 77 vlineto
          endchar
        </CharString>
        <CharString name="dvG_RA">
          102 -36 740 rmoveto
          108 callsubr
          vlineto
          -106 callgsubr
          202 -294 vlineto
          -75 -80 -270 -290 0 vvcurveto
          103 hlineto
          242 273 rlineto
          -272 -52 callsubr
        </CharString>
        <CharString name="dvG_R_YA">
          538 769 -104 callgsubr
          417 110 rmoveto
          -1222 108 callsubr
          hlineto
          -106 callgsubr
          353 -31 vlineto
          41 callsubr
          -2 -41 2 -38 6 -35 rrcurveto
          -100 -108 -211 -226 0 vvcurveto
          103 hlineto
          231 257 rlineto
          -94 41 83 -56 121 -84 callsubr
        </CharString>
        <CharString name="dvG_SA">
          573 1004 424 -35 callsubr
          216 77 rmoveto
          -1256 108 callsubr
          hlineto
          -106 callgsubr
          392 -24 vlineto
          40 callgsubr
          -10 -27 1 -11 hhcurveto
          -208 -68 callsubr
        </CharString>
        <CharString name="dvG_VA">
          444 877 -95 callgsubr
          215 408 rmoveto
          -1128 108 callsubr
          hlineto
          -106 callgsubr
          546 113 callgsubr
        </CharString>
        <CharString name="dvG_YA">
          502 732 -104 callgsubr
          417 110 rmoveto
          -1185 108 callsubr
          hlineto
          -106 callgsubr
          316 27 callgsubr
        </CharString>
        <CharString name="dvGx">
          -187 184 117 -102 callsubr
          303 623 rmoveto
          -523 108 callsubr
          hlineto
          -106 callgsubr
          156 vlineto
          endchar
        </CharString>
        <CharString name="dvGxA">
          102 185 104 -102 callsubr
          -221 636 rmoveto
          108 callsubr
          vlineto
          -106 callgsubr
          202 317 callsubr
        </CharString>
        <CharString name="dvGx_R">
          -180 78 133 -102 callsubr
          213 -134 rmoveto
          264 300 rlineto
          94 vlineto
          -2 -3 -365 -391 0 vvcurveto
          -224 741 rmoveto
          108 callsubr
          vlineto
          -106 callgsubr
          224 77 vlineto
          endchar
        </CharString>
        <CharString name="dvGx_RA">
          102 77 169 -102 callsubr
          -113 571 rmoveto
          108 callsubr
          vlineto
          -106 callgsubr
          202 -294 vlineto
          -75 -80 -270 -290 0 vvcurveto
          103 hlineto
          242 273 rlineto
          -272 -52 callsubr
        </CharString>
        <CharString name="dvH">
          -81 691 258 rmoveto
          76 -350 vlineto
          47 callgsubr
          176 77 -696 -20 callgsubr
          endchar
        </CharString>
        <CharString name="dvHA">
          184 callsubr
          -50 26 -41 43 -26 hvcurveto
          104 callsubr
          126 88 73 91 7 vhcurveto
          -48 callsubr
        </CharString>
        <CharString name="dvHA_mU">
          177 callgsubr
          -40 39 -25 hvcurveto
          -49 -35 -29 -56 -74 vvcurveto
          -132 93 -60 144 -11 vhcurveto
          82 -6 51 -14 -70 vvcurveto
          -64 -42 -31 -73 -84 -67 37 100 -1 vhcurveto
          -82 hlineto
          -122 1 77 -88 158 hhcurveto
          126 68 64 105 98 -59 54 -145 11 hvcurveto
          -105 8 -56 38 84 vvcurveto
          90 59 40 83 110 29 -66 -64 vhcurveto
          84 hlineto
          100 1 -60 105 -164 hhcurveto
          -25 -23 -2 -5 -22 hvcurveto
          -32 302 callsubr
        </CharString>
        <CharString name="dvHA_mUU">
          177 callgsubr
          -39 39 -25 hvcurveto
          -50 -35 -29 -56 -73 vvcurveto
          -77 36 -58 60 -33 vhcurveto
          -39 -27 -26 -43 -61 vvcurveto
          -117 83 -55 112 12 vhcurveto
          72 vlineto
          -69 -11 -47 30 69 vvcurveto
          61 47 34 65 121 49 -91 -152 -3 vhcurveto
          78 hlineto
          4 182 -73 132 -175 1 rrcurveto
          -83 1 -54 52 80 vvcurveto
          82 51 47 93 101 37 -55 -76 vhcurveto
          82 hlineto
          120 1 -71 86 -150 hhcurveto
          -26 -24 -3 -5 -22 hvcurveto
          -31 302 callsubr
        </CharString>
        <CharString name="dvHA_mvR">
          59 490 483 rmoveto
          180 217 77 -743 -77 440 -105 -100 240 callsubr
          -53 30 -43 48 -24 hvcurveto
          -66 -46 -35 -77 -96 vvcurveto
          -197 147 -103 217 7 vhcurveto
          73 vlineto
          -174 -1 -106 75 144 vvcurveto
          132 80 65 111 74 54 -24 -56 22 vhcurveto
          -111 -1 -76 -40 -95 vvcurveto
          -107 89 -35 117 vhcurveto
          46 67 -36 hlineto
          -74 -66 11 64 62 56 11 71 hvcurveto
          67 hlineto
          148 2 -112 67 -124 hhcurveto
          -33 -31 -4 -7 -28 hvcurveto
          -40 12 -33 25 41 255 callsubr
        </CharString>
        <CharString name="dvH_LA">
          110 506 483 rmoveto
          180 252 77 -794 -77 456 -105 -131 240 callsubr
          -53 30 -42 47 -23 hvcurveto
          -74 -46 -42 -79 -100 vvcurveto
          -190 141 -104 183 -2 vhcurveto
          68 vlineto
          -145 6 -99 77 138 vvcurveto
          145 95 63 122 79 54 -23 -43 24 vhcurveto
          -29 -10 -21 -22 -10 -32 rrcurveto
          45 -13 -38 26 -50 hhcurveto
          -78 -59 -53 -96 -96 68 -71 110 1 hvcurveto
          59 vlineto
          -72 -1 -39 42 65 vvcurveto
          53 24 36 49 61 11 -54 -65 -3 vhcurveto
          57 hlineto
          65 -2 10 54 60 hhcurveto
          52 18 -39 -52 -65 -30 -40 -77 1 hvcurveto
          -59 vlineto
          109 -1 64 52 112 vvcurveto
          76 -38 61 -66 13 vhcurveto
          78 -32 -79 52 -120 hhcurveto
          -34 -31 -4 -7 -29 hvcurveto
          -40 11 -32 25 43 255 callsubr
        </CharString>
        <CharString name="dvH_MA">
          628 1060 -77 callsubr
          -453 -46 rmoveto
          47 callgsubr
          310 -209 -52 hlineto
          -127 -78 -37 -83 -22 hvcurveto
          761 406 rmoveto
          -1312 -20 callgsubr
          168 hlineto
          -94 10 79 -63 98 -5 callgsubr
        </CharString>
        <CharString name="dvH_NA">
          653 1085 141 callsubr
          -132 -77 -57 -96 -16 hvcurveto
          -204 hlineto
          47 callgsubr
          601 hlineto
          -337 -487 -103 callsubr
          553 564 rmoveto
          -1337 -20 callgsubr
          204 hlineto
          -99 16 83 -59 104 hhcurveto
          -66 callsubr
        </CharString>
        <CharString name="dvH_NNA">
          89 440 108 rmoveto
          -57 -4 -46 -56 -56 -4 46 57 vhcurveto
          151 vlineto
          4 19 20 2 20 hhcurveto
          22 20 -2 -3 19 hvcurveto
          78 223 rmoveto
          180 219 77 -773 -77 468 -105 -128 vlineto
          -120 -77 -50 -97 -57 35 -45 53 -23 hvcurveto
          -70 -46 -43 -76 -97 vvcurveto
          -177 127 -104 183 -2 vhcurveto
          70 vlineto
          -140 6 -90 75 128 vvcurveto
          83 36 57 55 31 vhcurveto
          -134 vlineto
          -91 35 -62 92 92 35 58 96 vhcurveto
          134 vlineto
          44 -28 24 -50 1 -79 1 -8 rcurveline
          -220 74 218 vlineto
          179 -111 89 -165 -35 -33 -4 -9 -31 vhcurveto
          -44 10 -39 26 46 vvcurveto
          56 51 22 68 vhcurveto
          endchar
        </CharString>
        <CharString name="dvH_R">
          -81 691 258 rmoveto
          76 -350 vlineto
          47 callgsubr
          176 77 -696 -77 434 -105 -96 hlineto
          183 callgsubr
          -50 26 -41 43 -26 hvcurveto
          -54 -35 -30 -56 -78 vvcurveto
          -108 65 -79 105 -22 vhcurveto
          -141 -154 rlineto
          96 hlineto
          122 148 rlineto
          1 hlineto
          117 -148 318 callsubr
          77 26 50 57 5 68 rlinecurve
          161 callsubr
          -90 -54 59 81 89 59 45 106 hvcurveto
          endchar
        </CharString>
        <CharString name="dvH_RA">
          -2 484 663 rmoveto
          162 77 -682 -77 434 -105 -96 hlineto
          183 callgsubr
          -50 26 -41 43 -26 hvcurveto
          -54 -37 -32 -60 -75 vvcurveto
          -127 99 -91 138 126 69 69 79 14 vhcurveto
          -84 hlineto
          -44 -15 -31 -30 -79 hhcurveto
          -93 -61 56 88 82 58 60 92 60 41 -19 -34 22 hvcurveto
          -149 -144 rlineto
          96 hlineto
          141 129 rlineto
          84 -26 -77 56 -109 hhcurveto
          -23 -22 -2 -5 -20 hvcurveto
          -35 13 -28 25 39 238 callgsubr
          24 hlineto
          -2 3 rlineto
          2 hlineto
          endchar
        </CharString>
        <CharString name="dvH_VA">
          59 540 54 rmoveto
          -60 -42 -39 -60 -63 -40 40 59 62 40 39 63 60 42 -39 -61 vhcurveto
          -43 428 rmoveto
          180 210 77 -743 -77 447 -105 -107 240 callsubr
          -55 32 -44 50 -24 hvcurveto
          -67 -46 -40 -76 -95 vvcurveto
          -177 129 -106 177 -1 vhcurveto
          68 vlineto
          -137 7 -85 78 127 vvcurveto
          133 90 67 113 84 52 -24 -66 22 vhcurveto
          23 -25 -34 15 -42 hhcurveto
          -95 -65 -60 -99 -95 68 -63 93 49 40 19 32 24 hvcurveto
          -113 74 234 vlineto
          173 -86 95 -165 -33 -30 -4 -8 -28 vhcurveto
          -42 12 -37 25 43 255 callsubr
        </CharString>
        <CharString name="dvH_YA">
          265 697 155 rmoveto
          -111 -47 -96 -104 -91 -49 50 85 vhcurveto
          73 75 30 78 87 -85 56 -140 -29 -27 -3 -7 -26 hvcurveto
          -39 13 -32 26 41 121 callsubr
          178 180 225 hlineto
          216 77 rmoveto
          -966 -77 439 -105 -99 hlineto
          -121 -76 -51 -98 -52 28 -43 46 -25 hvcurveto
          -67 -44 -40 -74 -94 vvcurveto
          -184 141 -91 170 vhcurveto
          75 vlineto
          -132 1 -95 64 132 vvcurveto
          131 91 55 103 88 48 -26 -43 -51 -55 -5 -75 vhcurveto
          -18 hlineto
          -137 -13 67 -123 156 hhcurveto
          77 57 37 55 30 hvcurveto
          -158 85 854 131 vlineto
          endchar
        </CharString>
        <CharString name="dvI">
          -17 488 482 rmoveto
          181 143 77 -667 -77 438 -35 callgsubr
          endchar
        </CharString>
        <CharString name="dvII">
          -17 291 callsubr
          438 -35 callgsubr
          162 181 143 77 -147 97 hlineto
          87 23 47 65 62 22 -38 -61 1 vhcurveto
          74 hlineto
          102 -55 68 -103 -123 -44 -81 -124 vhcurveto
          -20 0 -45 -32 vvcurveto
          endchar
        </CharString>
        <CharString name="dvII_Anusvara">
          -17 -34 740 rmoveto
          -77 436 -35 callgsubr
          162 181 141 77 -145 99 hlineto
          87 24 47 68 65 22 -40 -60 3 vhcurveto
          73 hlineto
          102 -57 69 -105 -125 -46 -78 -127 vhcurveto
          -21 0 -46 -32 vvcurveto
          124 115 rmoveto
          -26 21 -21 26 26 22 21 26 26 -22 22 -26 -26 -21 -22 -26 vhcurveto
          endchar
        </CharString>
        <CharString name="dvJ">
          -55 720 514 rmoveto
          -340 -85 callgsubr
          255 vlineto
          -756 300 rmoveto
          -77 757 77 vlineto
          endchar
        </CharString>
        <CharString name="dvJA">
          215 -36 740 38 callsubr
        </CharString>
        <CharString name="dvJH">
          -59 481 492 rmoveto
          171 222 77 -739 -77 431 -96 -87 vlineto
          -69 callgsubr
          76 86 39 -22 33 -24 14 hvcurveto
          227 69 -404 hlineto
          -63 -49 8 67 69 61 2 71 hvcurveto
          endchar
        </CharString>
        <CharString name="dvJHA">
          219 651 346 rmoveto
          -352 hlineto
          56 callsubr
          170 hlineto
          216 77 rmoveto
          -903 -77 431 -96 -87 hlineto
          -69 callgsubr
          76 86 40 -22 33 -24 13 hvcurveto
          175 -277 -18 callsubr
        </CharString>
        <CharString name="dvJH_MA">
          735 1167 -77 callsubr
          -602 -34 rmoveto
          56 callsubr
          420 -209 -52 hlineto
          -121 -76 -34 -74 -27 hvcurveto
          758 394 rmoveto
          -1419 -77 431 -96 -87 hlineto
          -69 callgsubr
          76 86 39 -22 33 -24 14 hvcurveto
          139 hlineto
          -104 1 83 -72 104 -5 callgsubr
        </CharString>
        <CharString name="dvJH_NA">
          725 1157 141 callsubr
          -126 -76 -52 -89 -20 hvcurveto
          -321 hlineto
          56 callsubr
          676 hlineto
          -337 -487 -103 callsubr
          553 564 rmoveto
          -1409 -77 431 -96 -87 hlineto
          -69 callgsubr
          76 86 39 -22 33 -24 14 hvcurveto
          139 hlineto
          -110 8 87 -67 110 hhcurveto
          -66 callsubr
        </CharString>
        <CharString name="dvJH_R">
          -39 299 346 rmoveto
          56 callsubr
          226 77 -743 -77 431 -96 -87 hlineto
          -69 callgsubr
          74 86 41 -23 34 -24 13 hvcurveto
          233 hlineto
          -59 -76 -233 -302 0 vvcurveto
          101 hlineto
          204 296 rlineto
          151 vlineto
          endchar
        </CharString>
        <CharString name="dvJH_RA">
          248 679 346 rmoveto
          -367 hlineto
          -69 -56 8 66 68 67 4 70 hvcurveto
          157 24 hlineto
          -2 3 rlineto
          2 144 198 hlineto
          217 77 rmoveto
          -932 -77 431 -96 -79 hlineto
          -112 -103 -25 -119 -125 102 -23 114 84 38 -12 -67 -61 -34 -35 -76 -82 -60 50 75 -4 hvcurveto
          -83 -261 83 135 hlineto
          -40 28 65 -32 68 hhcurveto
          123 52 76 83 41 -18 37 -23 13 hvcurveto
          188 hlineto
          -244 -378 rlineto
          95 hlineto
          162 278 rlineto
          -177 -50 callgsubr
        </CharString>
        <CharString name="dvJH_YA">
          650 878 -104 callgsubr
          -579 -284 rmoveto
          56 callsubr
          312 -31 hlineto
          41 callsubr
          -2 -36 2 -34 4 -31 rrcurveto
          689 394 rmoveto
          -1331 -77 431 -96 -87 hlineto
          -69 callgsubr
          76 86 39 -22 33 -24 14 hvcurveto
          147 hlineto
          -107 38 85 -64 130 -84 callsubr
        </CharString>
        <CharString name="dvJ_BA">
          617 999 -28 callsubr
          230 487 rmoveto
          -1301 -77 1086 -179 hlineto
          154 callsubr
          -69 -60 -23 -40 -44 hvcurveto
          -311 -85 callgsubr
          171 vlineto
          -15 -32 -8 -37 -40 vvcurveto
          -145 17 callgsubr
        </CharString>
        <CharString name="dvJ_DA">
          533 1033 483 141 callgsubr
          -1217 -77 549 vlineto
          325 callsubr
          hlineto
          -80 -69 -14 -33 -52 hvcurveto
          -326 -85 callgsubr
          172 vlineto
          -17 -32 -9 -39 -46 vvcurveto
          -143 100 -86 138 60 257 callgsubr
          vhcurveto
          -146 85 294 -77 vlineto
          -92 -61 -32 -70 -100 161 callgsubr
        </CharString>
        <CharString name="dvJ_DDA">
          506 998 482 155 callsubr
          -1182 -77 528 vlineto
          420 -106 -87 hlineto
          -60 -59 -11 -32 -40 hvcurveto
          -286 -85 callgsubr
          156 vlineto
          -2 -11 -1 -11 -13 vvcurveto
          56 callgsubr
        </CharString>
        <CharString name="dvJ_JA">
          770 1418 740 rmoveto
          -1454 -77 1237 97 callgsubr
          -329 -65 callsubr
          158 -74 53 callsubr
        </CharString>
        <CharString name="dvJ_JHA">
          737 1168 346 rmoveto
          -352 hlineto
          56 callsubr
          170 hlineto
          216 77 rmoveto
          -1420 -77 517 hlineto
          431 -96 -87 hlineto
          -71 -69 -10 -43 -37 hvcurveto
          -268 -85 callgsubr
          154 vlineto
          -1 -5 0 -6 -6 vvcurveto
          -132 102 -15 113 67 56 -3 -77 -61 -39 -33 -76 -83 -54 48 75 -4 vhcurveto
          -83 -261 83 135 hlineto
          -40 28 58 -30 68 hhcurveto
          125 60 76 86 40 -22 33 -24 13 hvcurveto
          175 -277 -18 callsubr
        </CharString>
        <CharString name="dvJ_J_NYA">
          690 1341 740 rmoveto
          -1377 -77 1158 -138 -742 -124 43 callsubr
          124 -86 -147 vlineto
          -141 31 -121 169 165 32 116 146 vhcurveto
          75 286 vlineto
          99 78 -44 -100 -76 -38 -52 -86 -85 -61 52 97 -6 hvcurveto
          -82 -292 85 141 hlineto
          -39 25 60 -35 78 hhcurveto
          121 72 82 114 71 -35 51 -53 30 hvcurveto
          199 -453 85 663 134 hlineto
          endchar
        </CharString>
        <CharString name="dvJ_J_VA">
          1173 1606 -95 callgsubr
          215 408 rmoveto
          -1857 -77 1642 -14 callsubr
          -61 -53 -20 -35 -40 hvcurveto
          -312 70 callsubr
          -351 -65 callsubr
          180 -74 vlineto
          -141 31 -121 169 165 32 116 146 vhcurveto
          74 172 vlineto
          -15 -32 -8 -37 -40 vvcurveto
          -81 callgsubr
        </CharString>
        <CharString name="dvJ_J_YA">
          1190 1253 420 rmoveto
          9 1 hlineto
          141 12 18 63 158 vvcurveto
          9 201 -252 vlineto
          -138 -68 -82 -124 -147 -53 106 122 5 vhcurveto
          603 321 rmoveto
          -1874 -77 1372 -7 hlineto
          -132 -1 -25 -118 -5 vhcurveto
          -295 70 callsubr
          -316 -65 callsubr
          145 -74 vlineto
          -141 31 -121 169 165 32 116 146 vhcurveto
          74 138 189 callsubr
          103 68 308 callsubr
          85 -75 callgsubr
        </CharString>
        <CharString name="dvJ_KA">
          933 852 178 callgsubr
          -1609 -77 526 vlineto
          512 -181 hlineto
          55 callgsubr
          -59 -50 -18 -32 -37 hvcurveto
          -309 -125 hlineto
          -120 -1 -88 -111 -110 -3 88 120 vhcurveto
          125 -86 -148 vlineto
          -141 31 -121 169 164 33 116 146 vhcurveto
          74 168 vlineto
          -14 -32 -8 -36 -40 vvcurveto
          -91 callsubr
          vhcurveto
          -103 callgsubr
        </CharString>
        <CharString name="dvJ_MA">
          697 1128 480 rmoveto
          -183 183 183 hlineto
          -266 -316 rmoveto
          -88 -19 307 callsubr
          83 57 21 78 vhcurveto
          67 hlineto
          482 332 rmoveto
          -1380 -77 526 hlineto
          231 hlineto
          141 -177 -482 -101 hlineto
          -120 -2 -88 -110 -111 -3 88 120 202 callgsubr
          159 vlineto
          -29 -25 -17 -36 -48 vvcurveto
          -105 84 -69 103 125 55 79 141 vhcurveto
          59 183 -408 -98 callsubr
        </CharString>
        <CharString name="dvJ_NA">
          689 783 188 rmoveto
          -65 -59 37 81 77 56 41 65 73 44 321 callsubr
          553 552 rmoveto
          -1372 -77 1156 -163 -740 -112 hlineto
          285 callsubr
          112 -86 -135 vlineto
          -141 31 -122 169 165 32 116 147 vhcurveto
          62 150 vlineto
          -25 -31 -13 -41 -48 vvcurveto
          253 callgsubr
          vhcurveto
          207 -425 -18 callsubr
        </CharString>
        <CharString name="dvJ_NY">
          -44 281 452 rmoveto
          83 -1 66 -48 -101 vvcurveto
          -84 -48 -55 -88 -74 -65 53 71 278 callgsubr
          127 71 96 111 74 -37 56 -56 29 hvcurveto
          290 74 -428 hlineto
          -293 214 rmoveto
          -77 721 77 vlineto
          endchar
        </CharString>
        <CharString name="dvJ_NYA">
          187 291 callsubr
          649 -138 -375 -72 9 vlineto
          95 78 -42 -100 -76 -40 -52 -86 -85 -59 52 97 -7 hvcurveto
          -81 -292 85 140 hlineto
          -38 25 58 -35 78 hhcurveto
          121 73 83 114 71 -33 49 -49 29 hvcurveto
          193 -453 86 663 134 77 hlineto
          endchar
        </CharString>
        <CharString name="dvJ_NY_YA">
          676 907 663 -67 callsubr
          417 110 rmoveto
          -1360 -77 858 -31 hlineto
          -120 -2 -55 -143 -9 vhcurveto
          54 -45 -79 24 -98 hhcurveto
          -184 -74 hlineto
          84 -1 65 -48 -101 vvcurveto
          -84 -47 -55 -88 -75 -64 51 73 278 callgsubr
          126 72 96 111 74 -37 56 -57 29 hvcurveto
          46 hlineto
          98 64 -27 -50 15 hvcurveto
          -164 14 93 -105 166 86 callgsubr
        </CharString>
        <CharString name="dvJ_R">
          -55 450 -13 15 callgsubr
        </CharString>
        <CharString name="dvJ_RA">
          215 -36 740 15 callsubr
        </CharString>
        <CharString name="dvJ_TA">
          609 1257 740 rmoveto
          -1293 -77 1076 -159 -660 -116 hlineto
          -120 -2 -89 215 callgsubr
          89 120 vhcurveto
          116 -86 -139 vlineto
          -141 31 -121 169 165 32 116 146 vhcurveto
          66 218 vlineto
          -47 -38 -26 -58 -83 vvcurveto
          -150 83 -104 182 vhcurveto
          14 73 hlineto
          -139 -53 67 114 126 86 50 114 hvcurveto
          143 -428 305 callsubr
        </CharString>
        <CharString name="dvJ_TTA">
          586 985 485 107 callsubr
          -1270 -77 538 vlineto
          398 -102 hlineto
          -68 -2 -61 -15 -48 -30 rrcurveto
          -343 -85 callgsubr
          183 vlineto
          -24 -38 -13 -47 -55 vvcurveto
          230 callgsubr
          157 191 callgsubr
          vhcurveto
          -85 -71 callsubr
        </CharString>
        <CharString name="dvJ_VA">
          596 1029 -95 callgsubr
          215 408 rmoveto
          -1280 -77 1065 -14 callsubr
          -61 -53 -20 -35 -40 hvcurveto
          -312 -85 callgsubr
          172 vlineto
          -15 -32 -8 -37 -40 vvcurveto
          -81 callgsubr
        </CharString>
        <CharString name="dvJ_YA">
          648 711 420 -34 callsubr
        </CharString>
        <CharString name="dvJx">
          -67 270 27 -102 callsubr
          450 487 rmoveto
          -340 -85 callgsubr
          255 vlineto
          -756 300 rmoveto
          -77 757 77 vlineto
          endchar
        </CharString>
        <CharString name="dvJxA">
          215 264 22 -102 callsubr
          -300 718 38 callsubr
        </CharString>
        <CharString name="dvJx_JxA">
          769 268 22 -102 callsubr
          561 hmoveto
          -53 callsubr
          -27 32 98 callsubr
          32 -27 27 -32 hvcurveto
          588 718 rmoveto
          -1453 -77 1236 97 callgsubr
          -328 -65 callsubr
          157 -74 53 callsubr
        </CharString>
        <CharString name="dvJx_R">
          -91 128 74 -102 callsubr
          322 -87 15 callgsubr
        </CharString>
        <CharString name="dvJx_RA">
          215 115 60 -102 callsubr
          -151 680 15 callsubr
        </CharString>
        <CharString name="dvJx_YA">
          648 274 19 -102 callsubr
          437 401 -34 callsubr
        </CharString>
        <CharString name="dvK">
          152 326 18 callsubr
          614 256 callsubr
          -976 -77 512 -181 vlineto
          -85 callsubr
          100 52 -60 -96 vhcurveto
          85 hlineto
          135 -82 98 -137 52 callsubr
          vhcurveto
          179 vlineto
          endchar
        </CharString>
        <CharString name="dvKA">
          399 326 178 -22 callsubr
        </CharString>
        <CharString name="dvKH">
          40 607 474 rmoveto
          82 53 -50 -80 -81 -53 -50 -82 -34 callgsubr
          hvcurveto
          -255 189 rmoveto
          472 77 -862 -77 305 130 callgsubr
          127 89 75 130 128 -88 76 -128 -128 -89 250 callgsubr
          -59 56 -34 3 callgsubr
          105 vlineto
          145 4 39 52 186 vvcurveto
          endchar
        </CharString>
        <CharString name="dvKHA">
          304 607 -43 callsubr
          -204 504 rmoveto
          -77 303 306 callgsubr
          -130 -1 vhcurveto
          -34 -169 hlineto
          -2 callgsubr
          77 vlineto
          endchar
        </CharString>
        <CharString name="dvKH_KHA">
          969 1268 213 rmoveto
          -81 -53 50 81 80 53 50 81 79 50 -50 -80 -80 -50 -51 -79 hvcurveto
          -439 173 callsubr
          38 52 186 vvcurveto
          80 386 -176 vlineto
          38 -28 -48 23 -71 hhcurveto
          -118 328 callgsubr
          -60 -17 -55 -34 -82 hhcurveto
          -107 -51 54 107 hvcurveto
          -221 -23 rmoveto
          -80 -54 50 81 80 54 50 80 84 51 -49 -81 -82 -51 -49 -84 32 callsubr
          574 -79 vlineto
          -148 -17 -24 -100 -4 vhcurveto
          86 -24 -73 54 -104 hhcurveto
          -129 -88 -76 -128 -81 34 -59 56 -34 hvcurveto
          -61 -17 -55 -34 -83 hhcurveto
          -107 -51 54 107 hvcurveto
          1444 504 rmoveto
          -1650 -77 304 -79 hlineto
          -162 -20 -14 -129 -1 vhcurveto
          -35 169 callgsubr
          90 50 94 30 vhcurveto
          -2 14 15 -1 15 hhcurveto
          57 49 16 29 36 hvcurveto
          -118 21 90 -68 130 hhcurveto
          112 90 50 93 30 hvcurveto
          -1 10 11 -1 10 43 callgsubr
          vlineto
          endchar
        </CharString>
        <CharString name="dvKH_MA">
          857 1289 454 rmoveto
          -183 209 183 hlineto
          -266 -343 rmoveto
          -89 -19 -54 -80 -60 -44 41 59 82 61 21 84 vhcurveto
          58 hlineto
          -416 -167 134 callsubr
          -439 173 callsubr
          39 52 186 vvcurveto
          80 671 -209 -52 vlineto
          -71 -56 -12 -24 -39 hvcurveto
          82 -27 -72 48 -100 74 callsubr
          1337 504 rmoveto
          -1541 -77 303 -79 hlineto
          -162 -21 -14 -129 -1 vhcurveto
          -35 36 callgsubr
          63 53 19 35 36 hvcurveto
          -57 31 63 -35 73 -5 callgsubr
        </CharString>
        <CharString name="dvKH_NA">
          851 1283 141 callsubr
          -74 -57 -18 -33 -39 hvcurveto
          71 -31 -69 41 -92 hhcurveto
          -127 -88 -76 -128 -80 34 -60 56 -33 3 callgsubr
          105 vlineto
          -47 callsubr
          931 85 callgsubr
          -339 37 -41 callsubr
          892 527 rmoveto
          -1535 -77 303 -79 hlineto
          -163 -21 -13 -130 -1 vhcurveto
          -34 36 callgsubr
          66 54 21 38 37 hvcurveto
          -62 34 68 -36 81 hhcurveto
          -66 callsubr
        </CharString>
        <CharString name="dvKH_R">
          40 607 213 -39 callgsubr
        </CharString>
        <CharString name="dvKH_RA">
          304 607 213 -45 callsubr
        </CharString>
        <CharString name="dvKH_SHA">
          818 168 341 rmoveto
          -47 callsubr
          412 vlineto
          -14 -23 -10 -27 -4 -29 rrcurveto
          88 hlineto
          60 11 40 29 64 hhcurveto
          75 46 -46 -79 -130 -101 -15 -121 -12 -11 -1 1 -8 hvcurveto
          93 -23 -78 52 -101 hhcurveto
          -127 -87 -76 -128 -77 35 -59 56 -35 hvcurveto
          -63 -16 -56 -35 -83 hhcurveto
          -108 -51 54 107 hvcurveto
          439 -23 rmoveto
          -80 -53 48 83 80 50 50 82 90 46 -46 -84 -80 -50 -51 -85 hvcurveto
          -643 527 rmoveto
          -77 303 -79 vlineto
          -162 -21 -15 -129 vhcurveto
          -35 169 callgsubr
          91 50 95 29 vhcurveto
          -3 15 15 -1 16 hhcurveto
          59 56 23 35 24 hvcurveto
          -1 0 -13 1 -1 vhcurveto
          -119 7 71 -65 115 hhcurveto
          147 45 265 callgsubr
          -20 -57 -88 330 callgsubr
          21 5 -1 19 hhcurveto
          155 3 117 47 170 vvcurveto
          116 -82 84 -126 -25 -23 -3 -6 -21 vhcurveto
          380 hmoveto
          -740 -52 callsubr
        </CharString>
        <CharString name="dvKH_TA">
          732 1163 241 callsubr
          -89 -77 -21 -48 -52 hvcurveto
          76 -29 -71 44 -95 hhcurveto
          -127 -88 -76 -128 -80 34 -60 56 -33 3 callgsubr
          105 vlineto
          -47 callsubr
          811 vlineto
          -425 -354 rmoveto
          -60 -13 -49 -36 -69 hhcurveto
          -80 -53 50 81 289 callgsubr
          -10 -1 -10 -2 -9 hvcurveto
          640 425 rmoveto
          -1415 -77 303 -79 hlineto
          -163 -21 -14 -129 vhcurveto
          -35 36 callgsubr
          53 46 14 25 35 113 callsubr
        </CharString>
        <CharString name="dvKH_VA">
          724 1157 54 callsubr
          -550 -119 -41 callsubr
          -439 173 callsubr
          39 52 186 vvcurveto
          80 805 -183 vlineto
          54 64 callgsubr
          -84 -70 -39 -63 -40 hvcurveto
          52 -36 -60 29 -78 hhcurveto
          -127 -88 310 callgsubr
          35 -59 55 -34 3 callgsubr
          1203 504 rmoveto
          -1407 -77 303 122 callsubr
          44 35 hvcurveto
          -70 39 73 -44 90 276 callsubr
          vlineto
          endchar
        </CharString>
        <CharString name="dvKH_YA">
          784 1015 663 77 callgsubr
          -118 -2 -55 -135 -10 vhcurveto
          63 -34 -67 36 -86 hhcurveto
          -127 -88 -76 -128 -80 34 -60 56 -33 3 callgsubr
          439 -23 -41 callsubr
          825 527 rmoveto
          -1468 -77 303 -79 hlineto
          -164 -21 -13 -132 vhcurveto
          -32 36 callgsubr
          81 62 31 54 36 hvcurveto
          -75 44 77 -43 107 -84 callsubr
        </CharString>
        <CharString name="dvKHx">
          24 324 -62 267 callsubr
          -27 32 98 callsubr
          32 -27 27 -32 hvcurveto
          278 536 rmoveto
          81 54 -50 -80 -81 -54 -50 -81 -34 callgsubr
          hvcurveto
          -255 189 rmoveto
          472 77 -860 118 callgsubr
          127 85 75 130 128 -84 76 -128 -128 -89 264 callgsubr
          -61 -16 -56 -35 -83 hhcurveto
          -107 -51 54 107 hvcurveto
          105 vlineto
          145 4 39 52 186 vvcurveto
          endchar
        </CharString>
        <CharString name="dvKHxA">
          304 324 -69 -102 callsubr
          283 282 -68 callgsubr
          -78 34 -62 56 -35 hvcurveto
          -60 -18 -55 -34 -81 hhcurveto
          -108 -51 54 107 hvcurveto
          -204 504 rmoveto
          -77 303 306 callgsubr
          -130 -1 vhcurveto
          -34 -169 hlineto
          -2 callgsubr
          77 vlineto
          endchar
        </CharString>
        <CharString name="dvKHx_MA">
          857 328 223 callsubr
          961 518 rmoveto
          -183 209 183 hlineto
          -266 -343 rmoveto
          -89 -19 -54 -80 -60 -44 41 59 82 61 21 84 vhcurveto
          58 hlineto
          -416 -167 134 callsubr
          -439 173 callsubr
          39 52 186 vvcurveto
          80 671 -209 -52 vlineto
          -70 -55 -11 -24 -39 hvcurveto
          81 -28 -74 48 -99 74 callsubr
          1337 504 rmoveto
          -1543 -77 305 -79 hlineto
          -162 -21 -14 -129 -1 vhcurveto
          -35 36 callgsubr
          63 52 19 34 38 hvcurveto
          -56 31 62 -35 73 -5 callgsubr
        </CharString>
        <CharString name="dvKHx_R">
          39 97 42 -102 callsubr
          510 171 -39 callgsubr
        </CharString>
        <CharString name="dvKHx_RA">
          304 84 37 -102 callsubr
          523 176 -45 callsubr
        </CharString>
        <CharString name="dvKHx_SA">
          846 327 -64 -102 callsubr
          950 488 -35 callsubr
          -670 -450 -41 callsubr
          -439 173 callsubr
          39 52 186 vvcurveto
          80 644 -24 vlineto
          -1 callsubr
          -14 -2 -15 0 -16 -1 rlinecurve
          82 -27 -74 47 -100 hhcurveto
          -128 -89 250 callgsubr
          -59 56 -34 3 callgsubr
          1325 504 rmoveto
          -1529 118 callgsubr
          54 46 13 26 36 hvcurveto
          -108 11 64 -72 118 128 callgsubr
        </CharString>
        <CharString name="dvKHx_SHA">
          834 327 -64 -102 callsubr
          484 470 rmoveto
          89 -24 -77 53 -104 74 callsubr
          105 vlineto
          -47 callsubr
          423 vlineto
          -15 -24 -10 -28 -3 -30 rrcurveto
          84 hlineto
          55 8 40 37 69 hhcurveto
          76 48 -46 -80 -129 -97 -12 -124 hvcurveto
          -244 -193 134 callsubr
          -645 527 rmoveto
          -77 305 306 callgsubr
          -130 -1 vhcurveto
          -34 36 callgsubr
          54 47 14 26 36 hvcurveto
          -116 9 78 -65 116 hhcurveto
          147 52 265 callgsubr
          -27 -57 -88 hhcurveto
          -73 -43 43 83 hvcurveto
          133 vlineto
          -1 20 20 -1 19 hhcurveto
          154 2 116 42 171 vvcurveto
          117 -81 85 -127 -25 -23 -3 -6 -21 vhcurveto
          383 hmoveto
          -740 -13 callgsubr
        </CharString>
        <CharString name="dvKHx_TA">
          721 317 -64 231 callsubr
          835 561 rmoveto
          -144 hlineto
          -89 -76 -21 -47 -52 hvcurveto
          75 -30 -72 44 -95 hhcurveto
          -127 -87 250 callgsubr
          -59 55 -34 3 callgsubr
          105 vlineto
          -47 callsubr
          812 vlineto
          -557 -450 -41 callsubr
          773 527 rmoveto
          -1418 -77 305 -79 hlineto
          -163 -21 -14 264 callsubr
          97 -89 148 57 callgsubr
          53 46 14 25 36 113 callsubr
        </CharString>
        <CharString name="dvKHx_VA">
          724 328 -64 267 callsubr
          -26 32 32 26 26 32 32 -26 27 -32 hvcurveto
          829 395 rmoveto
          -99 -66 -62 -99 -100 -64 274 callsubr
          62 100 99 66 -62 -99 vhcurveto
          -550 -119 -41 callsubr
          -439 173 callsubr
          39 52 186 vvcurveto
          80 805 197 callgsubr
          -86 hhcurveto
          -85 -69 -39 -62 -40 hvcurveto
          51 -36 -62 29 -77 hhcurveto
          -127 -88 310 callgsubr
          35 -59 55 -34 3 callgsubr
          1204 504 rmoveto
          -1410 -77 305 122 callsubr
          43 37 hvcurveto
          -69 38 73 -44 90 hhcurveto
          85 311 callgsubr
          hvcurveto
          -182 85 -93 callsubr
        </CharString>
        <CharString name="dvKHx_YA">
          784 329 223 callsubr
          686 727 77 callgsubr
          -117 -2 -55 -133 -11 vhcurveto
          63 -35 -68 36 -86 hhcurveto
          -127 -88 -76 -128 -80 34 -60 56 -33 3 callgsubr
          439 -23 -41 callsubr
          825 527 rmoveto
          -1470 -77 305 -79 hlineto
          -164 -21 -13 -132 vhcurveto
          -32 36 callgsubr
          80 63 30 54 37 hvcurveto
          -74 135 callgsubr
          vlineto
          endchar
        </CharString>
        <CharString name="dvK_CA">
          791 1222 350 rmoveto
          -97 -68 -78 -96 -91 -65 50 88 91 62 62 97 vhcurveto
          28 72 -299 hlineto
          -102 -85 -5 -64 -43 hvcurveto
          194 373 vlineto
          289 hlineto
          -896 115 callgsubr
          1113 562 rmoveto
          -1475 -77 512 -181 hlineto
          -106 callsubr
          337 vlineto
          120 3 112 9 85 hhcurveto
          139 hlineto
          -50 -32 -31 -56 -73 vvcurveto
          -123 101 -83 124 95 55 41 48 29 vhcurveto
          -188 -50 callgsubr
        </CharString>
        <CharString name="dvK_DA">
          769 560 663 rmoveto
          623 -102 -40 hlineto
          -110 -91 -27 -65 -51 hvcurveto
          59 -31 -58 37 -83 hhcurveto
          -77 -52 -32 -49 -30 hvcurveto
          -234 -306 -107 callsubr
          942 305 rmoveto
          180 149 77 -1453 -77 512 -181 vlineto
          49 -32 -56 33 -80 hhcurveto
          -135 -88 -93 callgsubr
          -183 84 315 vlineto
          107 47 66 96 94 46 -55 -88 4 vhcurveto
          -1 -7 0 -7 -8 vvcurveto
          -143 101 -86 138 60 257 callgsubr
          vhcurveto
          -146 85 294 -78 vlineto
          -92 -60 -32 -71 -99 161 callgsubr
        </CharString>
        <CharString name="dvK_JA">
          982 1414 514 rmoveto
          -267 -125 hlineto
          -120 -2 -88 -110 -94 -17 63 91 -2 vhcurveto
          137 -61 92 -137 -79 -54 -33 -50 -31 vhcurveto
          182 854 vlineto
          -1088 115 callgsubr
          1304 562 rmoveto
          -1666 112 callsubr
          49 66 95 99 34 -53 -100 vhcurveto
          -126 3 41 -104 154 hhcurveto
          164 33 116 146 hvcurveto
          74 182 -440 -98 callsubr
        </CharString>
        <CharString name="dvK_KA">
          1161 1095 18 callsubr
          -535 485 rmoveto
          685 -181 hlineto
          55 callgsubr
          -79 -62 -32 -54 -38 hvcurveto
          54 -38 -61 33 -79 197 callsubr
          -234 -306 -107 callsubr
          1490 256 callsubr
          -1852 -77 512 -181 vlineto
          -85 callsubr
          100 52 -60 -96 -91 callsubr
          vhcurveto
          -103 callgsubr
        </CharString>
        <CharString name="dvK_KHA">
          1076 1379 -43 callsubr
          -380 427 rmoveto
          479 -79 hlineto
          -144 -16 -27 -94 -5 vhcurveto
          94 -25 -74 63 -110 197 callsubr
          -234 -306 -107 callsubr
          1398 562 rmoveto
          -1760 -97 callsubr
          100 52 -60 -96 vhcurveto
          -94 vlineto
          -2 callgsubr
          vlineto
          endchar
        </CharString>
        <CharString name="dvK_LA">
          1059 1357 20 callsubr
          -65 -50 -21 -37 -33 hvcurveto
          68 -31 -62 43 -91 hhcurveto
          -77 -52 -33 -48 -29 hvcurveto
          179 797 vlineto
          -1032 -485 134 callgsubr
          1382 256 callsubr
          -1743 -77 511 103 callsubr
          80 55 120 callsubr
          99 49 -60 -96 vhcurveto
          0 vlineto
          -3 -19 -1 -20 -22 vvcurveto
          -73 callsubr
          vhcurveto
          -54 callgsubr
          92 105 65 callsubr
        </CharString>
        <CharString name="dvK_MA">
          911 1342 454 11 callgsubr
          -517 283 rmoveto
          517 297 callgsubr
          -41 -36 -4 -8 -30 hvcurveto
          75 -32 -68 48 -97 197 callsubr
          -234 -306 -107 callsubr
          1233 562 rmoveto
          -1595 -97 callsubr
          71 47 -31 -53 21 vhcurveto
          -33 -28 -17 -42 -55 287 callgsubr
          182 -380 86 -78 callsubr
          vlineto
          endchar
        </CharString>
        <CharString name="dvK_NA">
          962 1394 141 callsubr
          -72 -56 -17 -32 -38 hvcurveto
          77 -29 -63 50 -100 hhcurveto
          -78 -53 -35 -51 -30 hvcurveto
          184 834 85 callgsubr
          -731 2 -107 callsubr
          1284 562 rmoveto
          -1646 -77 512 -181 hlineto
          -104 callsubr
          49 66 96 99 50 -60 -95 vhcurveto
          -2 -13 -1 -12 -14 vvcurveto
          -89 callsubr
          vhcurveto
          83 callsubr
        </CharString>
        <CharString name="dvK_NNA">
          991 1160 406 -22 callgsubr
          -600 hmoveto
          282 -143 hlineto
          28 -31 -42 16 -53 hhcurveto
          -75 -51 -32 -48 -30 hvcurveto
          -234 -306 -107 callsubr
          1313 562 rmoveto
          -1675 112 callsubr
          48 66 95 94 40 -51 -85 8 vhcurveto
          0 vlineto
          -112 14 57 -71 128 203 callsubr
        </CharString>
        <CharString name="dvK_PA">
          -37 callsubr
          -79 121 -31 callsubr
        </CharString>
        <CharString name="dvK_PHA">
          1108 912 663 21 callgsubr
          -1792 -77 512 45 callsubr
          313 vlineto
          107 47 67 95 69 41 -29 -49 21 vhcurveto
          -104 19 65 -72 115 hhcurveto
          58 callgsubr
          hvcurveto
          -312 -105 callsubr
        </CharString>
        <CharString name="dvK_P_RA">
          -37 callsubr
          -75 121 -52 callgsubr
        </CharString>
        <CharString name="dvK_R">
          152 171 332 -16 callsubr
        </CharString>
        <CharString name="dvK_RA">
          399 171 116 callsubr
          876 331 rmoveto
          77 -1083 164 callsubr
          -56 -58 -79 -81 0 vvcurveto
          101 hlineto
          189 214 rlineto
          -103 callgsubr
        </CharString>
        <CharString name="dvK_SA">
          957 1389 424 -35 callsubr
          -829 hmoveto
          548 86 callsubr
          -12 -2 -14 0 -14 -1 rlinecurve
          88 -28 -73 58 -105 197 callsubr
          -234 -306 -107 callsubr
          1279 562 rmoveto
          -1641 -97 callsubr
          100 52 -60 -96 vhcurveto
          -120 -68 callsubr
        </CharString>
        <CharString name="dvK_SHA">
          915 914 403 rmoveto
          91 -23 -63 61 -108 hhcurveto
          -77 -53 -30 -47 -30 hvcurveto
          185 299 vlineto
          -14 -22 -9 -26 -2 -27 84 1 rcurveline
          55 9 44 29 64 hhcurveto
          76 45 -46 -79 -130 -100 -15 -122 hvcurveto
          -608 -225 -107 callsubr
          -362 562 rmoveto
          -77 512 45 callsubr
          314 vlineto
          107 47 57 95 100 37 -60 -96 vhcurveto
          -120 vlineto
          -131 74 -73 122 147 45 97 127 2 vhcurveto
          -85 hlineto
          -90 -1 -21 284 callsubr
          5 -1 20 hhcurveto
          155 3 116 331 callsubr
          -25 -23 -3 -6 -21 vhcurveto
          381 hmoveto
          -740 -13 callgsubr
        </CharString>
        <CharString name="dvK_SS">
          -77 297 750 rmoveto
          -107 -90 -66 -113 -90 55 -64 87 -21 hvcurveto
          -76 -39 -88 -57 -103 vvcurveto
          -98 72 -69 107 69 43 30 27 18 vhcurveto
          -123 84 259 -74 vlineto
          -63 -37 -54 -84 -72 -40 44 58 84 90 40 75 40 vhcurveto
          336 72 -241 hlineto
          43 36 21 49 52 vvcurveto
          91 -70 78 -121 vhcurveto
          2 -76 rmoveto
          62 48 -35 -71 -56 -32 -41 -46 -27 hvcurveto
          -80 -70 34 86 78 54 32 64 hvcurveto
          endchar
        </CharString>
        <CharString name="dvK_SSA">
          174 329 444 123 callgsubr
          278 296 rmoveto
          -296 -185 vlineto
          43 36 21 49 52 vvcurveto
          91 -70 78 -121 -107 -90 -66 -113 -90 55 -64 87 -21 vhcurveto
          -79 -41 -85 -57 -102 vvcurveto
          -98 71 -68 107 70 43 30 26 18 vhcurveto
          -122 83 259 -73 vlineto
          -63 -37 -54 -85 -72 -39 44 58 84 90 40 75 40 vhcurveto
          280 -372 84 117 callsubr
          hlineto
          endchar
        </CharString>
        <CharString name="dvK_SS_MA">
          673 1104 454 11 callgsubr
          -500 64 123 callgsubr
          982 296 rmoveto
          -737 -77 255 -6 callsubr
          182 -380 86 -78 callsubr
          vlineto
          endchar
        </CharString>
        <CharString name="dvK_SS_M_YA">
          1098 1329 663 rmoveto
          201 140 callgsubr
          -130 -68 84 119 2 vhcurveto
          164 10 22 79 152 vvcurveto
          -407 -173 rmoveto
          209 322 -34 vlineto
          -123 -1 -45 -143 -7 vhcurveto
          -261 -134 20 callgsubr
          -500 64 123 callgsubr
          1407 296 rmoveto
          -1177 -77 270 -6 callsubr
          132 -27 callgsubr
        </CharString>
        <CharString name="dvK_SS_VA">
          550 982 -2 callsubr
          -650 105 rmoveto
          -94 2 -55 43 75 vvcurveto
          81 59 36 64 60 54 -40 -77 -55 -41 -40 -47 -25 vhcurveto
          243 303 rmoveto
          -77 407 -181 vlineto
          52 -35 -62 35 -85 hhcurveto
          -97 -77 -52 -80 -36 hvcurveto
          -155 hlineto
          36 31 28 44 56 vvcurveto
          106 -76 76 -117 -114 -91 -74 -116 -84 47 -60 80 -27 vhcurveto
          -81 -37 -80 -48 -107 vvcurveto
          -111 80 -71 115 73 259 callsubr
          -80 -79 -44 43 68 94 86 30 85 40 vhcurveto
          245 hlineto
          -1 -11 -1 -12 -12 vvcurveto
          49 callsubr
          246 callgsubr
        </CharString>
        <CharString name="dvK_SS_YA">
          592 823 663 rmoveto
          201 -262 hlineto
          -127 -72 -92 -122 -130 -65 77 119 3 vhcurveto
          163 10 22 89 151 vvcurveto
          -482 -183 rmoveto
          -105 1 -57 34 77 vvcurveto
          81 58 36 65 60 54 -40 -77 -49 -34 -38 -41 -25 vhcurveto
          223 295 rmoveto
          -77 174 -32 vlineto
          -136 -1 -50 -188 vhcurveto
          -109 hlineto
          32 29 23 43 51 vvcurveto
          106 -77 76 -116 -114 -91 -74 -116 -87 51 -57 86 -23 vhcurveto
          -85 -38 -86 -47 -111 vvcurveto
          -111 80 -71 114 74 259 callsubr
          -81 -78 -45 43 68 100 99 28 89 44 vhcurveto
          212 hlineto
          -169 9 93 -100 167 hhcurveto
          102 70 47 66 34 hvcurveto
          -220 86 665 130 77 vlineto
          endchar
        </CharString>
        <CharString name="dvK_S_DDA">
          1234 1145 424 rmoveto
          36 44 11 74 1 121 rrcurveto
          455 -106 -87 hlineto
          -99 -97 -30 -103 -10 hvcurveto
          -795 239 rmoveto
          548 hlineto
          326 callgsubr
          296 callgsubr
          -41 hlineto
          -1 -4 -22 -1 rlineto
          88 -28 -73 58 -105 197 callsubr
          -234 -306 -107 callsubr
          1408 304 155 callsubr
          -1918 -77 512 -181 vlineto
          -85 callsubr
          100 52 -60 -96 vhcurveto
          -120 vlineto
          -126 65 -88 129 134 61 124 callsubr
          -81 hhcurveto
          -80 -27 56 80 hvcurveto
          141 420 vlineto
          -84 25 87 -20 100 68 callgsubr
        </CharString>
        <CharString name="dvK_S_P_LA">
          1958 2256 505 rmoveto
          215 callsubr
          -18 -65 rrcurveto
          257 callsubr
          -87 hhcurveto
          -106 -64 -56 -92 -23 hvcurveto
          -55 -21 -34 -32 -75 hhcurveto
          -109 -34 74 105 hvcurveto
          207 145 vlineto
          628 hlineto
          -1110 -239 rmoveto
          72 callsubr
          202 -209 hlineto
          -10 0 -10 1 -10 vhcurveto
          -838 239 rmoveto
          549 hlineto
          199 callgsubr
          -110 236 callsubr
          -12 -13 -1 -14 hhcurveto
          88 -28 -73 58 -105 197 callsubr
          -234 -306 -107 callsubr
          2280 256 callsubr
          -2642 -77 512 -181 vlineto
          -85 callsubr
          100 52 -60 -96 vhcurveto
          1 -120 hlineto
          -107 callgsubr
          467 vlineto
          -93 26 67 -59 119 hhcurveto
          52 42 15 25 31 hvcurveto
          13 -146 102 -89 157 14 rrcurveto
          78 vlineto
          -125 -9 -62 70 114 vvcurveto
          93 31 69 92 106 27 -93 -115 -5 vhcurveto
          82 hlineto
          102 callsubr
          vlineto
          endchar
        </CharString>
        <CharString name="dvK_S_P_RA">
          1329 1464 -83 callsubr
          -318 -28 rmoveto
          72 callsubr
          183 261 callsubr
          -819 239 rmoveto
          549 hlineto
          199 callgsubr
          -110 236 callsubr
          -12 -13 -1 -14 hhcurveto
          88 -28 -73 58 -105 197 callsubr
          -234 -306 -107 callsubr
          1651 562 rmoveto
          -2013 -97 callsubr
          100 52 -60 -96 vhcurveto
          1 -120 hlineto
          -107 callgsubr
          449 vlineto
          -90 27 67 -58 107 -52 callgsubr
        </CharString>
</ttFont>
